<?xml version="1.0" encoding="UTF-8" standalone="no"?>
<!-- Created with Inkscape (http://www.inkscape.org/) -->

<svg
   xmlns:dc="http://purl.org/dc/elements/1.1/"
   xmlns:cc="http://creativecommons.org/ns#"
   xmlns:rdf="http://www.w3.org/1999/02/22-rdf-syntax-ns#"
   xmlns:svg="http://www.w3.org/2000/svg"
   xmlns="http://www.w3.org/2000/svg"
   xmlns:xlink="http://www.w3.org/1999/xlink"
   xmlns:sodipodi="http://sodipodi.sourceforge.net/DTD/sodipodi-0.dtd"
   xmlns:inkscape="http://www.inkscape.org/namespaces/inkscape"
   width="600"
   height="600"
   viewBox="0 0 600.00001 600.00001"
   id="svg4462"
   version="1.1"
   inkscape:version="0.91 r13725"
   sodipodi:docname="DCM_RNN.svg">
  <defs
     id="defs4464">
    <linearGradient
       inkscape:collect="always"
       xlink:href="#linearGradient4233"
       id="linearGradient4313"
       x1="86.66256"
       y1="290.21344"
       x2="549.73438"
       y2="652.25214"
       gradientUnits="userSpaceOnUse" />
    <linearGradient
       inkscape:collect="always"
       id="linearGradient4233">
      <stop
         style="stop-color:#195a93;stop-opacity:1"
         offset="0"
         id="stop4235" />
      <stop
         style="stop-color:#1e9559;stop-opacity:1"
         offset="1"
         id="stop4237" />
    </linearGradient>
    <linearGradient
       inkscape:collect="always"
       xlink:href="#linearGradient4233"
       id="linearGradient5066"
       gradientUnits="userSpaceOnUse"
       x1="86.66256"
       y1="290.21344"
       x2="549.73438"
       y2="652.25214" />
    <linearGradient
       inkscape:collect="always"
       xlink:href="#linearGradient4233"
       id="linearGradient5068"
       gradientUnits="userSpaceOnUse"
       x1="86.66256"
       y1="290.21344"
       x2="549.73438"
       y2="652.25214" />
    <linearGradient
       inkscape:collect="always"
       xlink:href="#linearGradient4233"
       id="linearGradient5070"
       gradientUnits="userSpaceOnUse"
       x1="86.66256"
       y1="290.21344"
       x2="549.73438"
       y2="652.25214" />
    <linearGradient
       inkscape:collect="always"
       xlink:href="#linearGradient4233"
       id="linearGradient5072"
       gradientUnits="userSpaceOnUse"
       x1="86.66256"
       y1="290.21344"
       x2="549.73438"
       y2="652.25214" />
  </defs>
  <sodipodi:namedview
     id="base"
     pagecolor="#ffffff"
     bordercolor="#666666"
     borderopacity="1.0"
     inkscape:pageopacity="0.0"
     inkscape:pageshadow="2"
     inkscape:zoom="0.49497475"
     inkscape:cx="-71.437281"
     inkscape:cy="520"
     inkscape:document-units="px"
     inkscape:current-layer="g5074"
     showgrid="false"
     units="px"
     inkscape:window-width="1280"
     inkscape:window-height="707"
     inkscape:window-x="0"
     inkscape:window-y="1"
     inkscape:window-maximized="1" />
  <metadata
     id="metadata4467">
    <rdf:RDF>
      <cc:Work
         rdf:about="">
        <dc:format>image/svg+xml</dc:format>
        <dc:type
           rdf:resource="http://purl.org/dc/dcmitype/StillImage" />
        <dc:title></dc:title>
      </cc:Work>
    </rdf:RDF>
  </metadata>
  <g
     inkscape:label="Layer 1"
     inkscape:groupmode="layer"
     id="layer1"
     transform="translate(0,-452.36216)">
    <g
       id="g5074"
       transform="translate(-88.571428,39.999955)">
      <g
         id="g4268"
         style="display:inline;fill:#2e5627;fill-opacity:0.39215686"
         transform="translate(60.473471,201.53146)">
        <g
           style="fill:url(#linearGradient4313);fill-opacity:1"
           id="g4301" />
      </g>
      <g
         id="g5093"
         transform="matrix(1.002416,0,0,1.002416,-1.3584075,32.85494)">
        <path
           inkscape:connector-curvature="0"
           id="path4536"
           d="m 283.04574,589.94944 -0.44922,0.5137 -0.15235,0.1718 -0.13281,0.1856 -0.99609,1.3847 -0.043,0.061 -0.043,0.062 -1.4707,2.1934 -0.0293,0.043 -0.0273,0.043 -1.24414,1.9434 7.94921,5.0859 1.1875,-1.8555 1.43555,-2.1406 0.35352,-0.4902 0.26367,0.1562 0.83984,-1.414 0.0977,-0.1661 0.0859,-0.1738 0.16015,-0.3301 0.47656,-0.9765 0.002,-1.086 0.002,-0.088 0.0254,-12.5703 z m -10.04493,15.6269 -0.0215,0.037 -0.0234,0.039 -2.70898,4.8125 -0.0234,0.043 -0.0234,0.041 -1.4082,2.627 8.31445,4.4609 1.40235,-2.6094 0.008,-0.016 2.61719,-4.6503 0.0215,-0.035 0.0234,-0.043 0.42969,-0.7266 -8.13282,-4.7871 z m -8.625,16.1289 -0.0254,0.051 -0.0254,0.051 -2.93359,6.129 -0.0195,0.041 -0.0195,0.043 -1.06641,2.3476 8.5918,3.9043 1.02734,-2.2617 0,0 2.88086,-6.0234 0.0117,-0.023 0.0195,-0.035 -0.002,0 0.0215,-0.045 -1.82617,-0.8731 -6.60547,-3.3613 z m -8.72656,19.6504 -0.0156,0.037 -0.0137,0.039 -1.30468,3.4239 -0.0156,0.039 -0.0137,0.041 -1.18555,3.289 8.87891,3.1973 1.1543,-3.207 1.27539,-3.3477 0.006,-0.014 0.0234,-0.062 0.81836,-2.0391 -8.75976,-3.5097 z"
           style="color:#000000;font-style:normal;font-variant:normal;font-weight:normal;font-stretch:normal;font-size:medium;line-height:normal;font-family:sans-serif;text-indent:0;text-align:start;text-decoration:none;text-decoration-line:none;text-decoration-style:solid;text-decoration-color:#000000;letter-spacing:normal;word-spacing:normal;text-transform:none;direction:ltr;block-progression:tb;writing-mode:lr-tb;baseline-shift:baseline;text-anchor:start;white-space:normal;clip-rule:nonzero;display:inline;overflow:visible;visibility:visible;opacity:1;isolation:auto;mix-blend-mode:normal;color-interpolation:sRGB;color-interpolation-filters:linearRGB;solid-color:#000000;solid-opacity:1;fill:#323232;fill-opacity:0.39215686;fill-rule:nonzero;stroke:none;stroke-width:9.43675232;stroke-linecap:butt;stroke-linejoin:miter;stroke-miterlimit:4;stroke-dasharray:9.43675189, 9.43675189;stroke-dashoffset:0;stroke-opacity:1;color-rendering:auto;image-rendering:auto;shape-rendering:auto;text-rendering:auto;enable-background:accumulate" />
        <path
           inkscape:connector-curvature="0"
           id="path4538"
           d="m 289.41292,743.12714 0.59571,0.4434 0.14453,0.1074 0.15039,0.098 0.74609,0.4766 0.15039,0.096 0.1543,0.086 1.93164,1.0507 0.12891,0.07 0.13281,0.062 2.49219,1.1739 0.0859,0.039 0.0859,0.037 3.02344,1.2871 0.0606,0.025 0.0605,0.023 0.12305,0.049 3.66211,-9.2735 0.01,-0.025 0,0 -0.0859,-0.035 -0.0352,-0.014 -2.79883,-1.1914 -2.26758,-1.0664 -1.68164,-0.916 -0.41797,-0.2676 -0.46874,-0.3476 z m 19.58399,8.7149 2.4707,0.8769 0.0293,0.01 0.0293,0.01 4.84375,1.6563 0.0332,0.012 0.0352,0.012 2.14844,0.6992 3.0957,-9.5098 -2.07812,-0.6758 -0.0352,-0.012 -0.0352,-0.012 -4.7168,-1.6113 -0.0137,0 -0.043,-0.016 -2.41406,-0.8594 z m 19.17383,6.3808 9.55273,2.9531 2.95312,-9.5546 -9.55273,-2.9532 z m 19.19335,5.8301 5.19336,1.5371 0.0234,0.01 0.0254,0.01 4.40821,1.2578 2.74218,-9.6172 -4.4082,-1.2578 -5.14453,-1.5234 z m 19.31055,5.5605 9.64258,2.6543 2.65234,-9.6406 -9.64062,-2.6543 z m 19.33594,5.2774 9.66601,2.5683 2.56836,-9.664 -9.66406,-2.5684 z m 19.39258,5.0664 5.37304,1.3789 0.0234,0.01 0.0215,0.01 4.32226,1.0664 2.39649,-9.709 -4.27735,-1.0547 -0.0449,-0.012 -5.32812,-1.3672 z m 19.44922,4.8535 0.67187,0.166 0.0234,0.01 0.0254,0.01 9.05859,2.1407 2.29883,-9.7325 -9.00976,-2.1289 -0.0234,-0.01 -0.0254,-0.01 -0.62305,-0.1523 z m 19.58007,4.5781 9.14844,2.0469 0.0234,0.01 0.0254,0.01 0.61328,0.1309 2.08594,-9.7813 -0.5625,-0.1191 -9.14844,-2.0488 z m 19.63477,4.252 2.36914,0.4863 0.0215,0 0.0215,0 5.97656,1.1699 0.0254,0.01 0.0254,0 1.46875,0.2715 1.81836,-9.834 -1.41797,-0.2617 -0.0351,-0.01 -0.0156,0 -5.88086,-1.1504 -2.36718,-0.4863 z"
           style="color:#000000;font-style:normal;font-variant:normal;font-weight:normal;font-stretch:normal;font-size:medium;line-height:normal;font-family:sans-serif;text-indent:0;text-align:start;text-decoration:none;text-decoration-line:none;text-decoration-style:solid;text-decoration-color:#000000;letter-spacing:normal;word-spacing:normal;text-transform:none;direction:ltr;block-progression:tb;writing-mode:lr-tb;baseline-shift:baseline;text-anchor:start;white-space:normal;clip-rule:nonzero;display:inline;overflow:visible;visibility:visible;opacity:1;isolation:auto;mix-blend-mode:normal;color-interpolation:sRGB;color-interpolation-filters:linearRGB;solid-color:#000000;solid-opacity:1;fill:#323232;fill-opacity:0.39215686;fill-rule:nonzero;stroke:none;stroke-width:10;stroke-linecap:butt;stroke-linejoin:miter;stroke-miterlimit:4;stroke-dasharray:10, 10;stroke-dashoffset:0;stroke-opacity:1;color-rendering:auto;image-rendering:auto;shape-rendering:auto;text-rendering:auto;enable-background:accumulate" />
        <path
           inkscape:connector-curvature="0"
           id="path4540"
           d="m 368.0262,538.63302 -2.15039,0.043 -0.0762,0.002 -0.0762,0.004 -2.14258,0.10742 -0.0762,0.004 -0.0781,0.008 -2.13476,0.17383 0.81836,9.96677 2.07031,-0.1679 1.95899,-0.1016 2.0371,-0.039 1.9961,0.019 1.32226,0.051 0.38868,-9.9922 -1.4043,-0.0547 -0.0742,-0.002 -0.0723,-0.002 -2.15821,-0.0215 -0.0742,0 z m 12.73243,11.06052 1.67578,0.2949 2.0625,0.4161 2.0957,0.4765 2.10156,0.5313 0.0391,0.01 1.31054,0.3633 2.66602,-9.63871 -1.42188,-0.39257 -0.0547,-0.0156 -0.0566,-0.0137 -2.20117,-0.55469 -0.0586,-0.0156 -0.0566,-0.0117 -2.19922,-0.5 -0.0586,-0.0137 -0.0606,-0.0117 -2.19531,-0.44532 -0.0605,-0.0117 -0.0625,-0.01 -1.73047,-0.30469 z m 18.88867,3.8203 -0.51172,1.2715 0.0488,0.02 0,0 0.0371,0.014 4.21484,1.6953 4.2832,1.9102 0.16016,0.078 4.38281,-8.9883 -0.21679,-0.1074 -0.0781,-0.037 -0.0781,-0.035 -4.42383,-1.9727 -0.084,-0.037 -0.084,-0.035 -4.42578,-1.7832 -0.0899,-0.035 -0.0918,-0.033 -0.13477,-0.047 z m 16.86133,9.3907 4.04101,2.2949 4.20313,2.5449 0.0215,0.014 0.11524,0.072 5.41015,-8.4082 -0.13476,-0.088 -0.0566,-0.035 -0.0586,-0.035 -4.3789,-2.6563 -0.0625,-0.035 -0.0605,-0.037 -4.10352,-2.3281 z m 16.61523,10.373 0.17578,0.1211 0.0449,0.029 4.19727,3.0039 0.0156,0.012 3.45313,2.5918 6.00195,-7.998 -3.54492,-2.6602 -0.0469,-0.033 -0.0449,-0.033 -4.31054,-3.084 -0.0488,-0.035 -0.0488,-0.033 -0.22266,-0.1504 z m 15.55273,11.8457 1.33008,1.0859 0.0195,0.018 4.08985,3.4825 2.01758,1.7851 6.62304,-7.4922 -2.08789,-1.8476 -0.0351,-0.031 -0.0352,-0.029 -4.16406,-3.5449 -0.0371,-0.031 -0.0371,-0.031 -1.34961,-1.1036 z m 14.71485,12.9942 2.72461,2.5859 3.84375,3.7656 0.0332,0.035 0.0215,0.02 0.4375,0.4434 7.11132,-7.0293 -0.49218,-0.5 -0.0293,-0.029 -0.0273,-0.027 -3.95899,-3.8789 -0.0293,-0.027 -0.0293,-0.029 -2.72656,-2.584 z m 13.98047,13.9609 0.21289,0.2207 0.0508,0.055 3.66601,3.9394 0.008,0.01 0.041,0.043 2.69532,2.9825 7.41796,-6.7051 -2.74414,-3.0352 -0.0234,-0.027 -0.0254,-0.027 -3.76563,-4.0468 -0.0254,-0.025 -0.0254,-0.027 -0.26367,-0.2754 z m 13.16406,14.6719 1.48242,1.7343 0.006,0.01 0.0391,0.047 3.3711,4.0567 1.4082,1.7422 7.77539,-6.2891 -1.4082,-1.7422 -0.0215,-0.025 -0.0215,-0.025 -3.45703,-4.1601 -0.0215,-0.027 -0.0215,-0.025 -1.52734,-1.7872 z m 12.42578,15.3261 2.19336,2.8614 0.0391,0.053 3.01172,4.041 0.0391,0.055 0.64063,0.8828 8.0957,-5.8691 -0.67969,-0.9375 -0.0176,-0.025 -0.0215,-0.027 -3.08984,-4.1465 -0.0195,-0.027 -0.0195,-0.025 -2.23243,-2.9141 z m 11.63867,15.9356 2.14258,3.1269 0.0391,0.057 2.58789,3.8926 0.0391,0.059 0.67968,1.0567 8.4043,-5.42 -0.71875,-1.1152 -0.0176,-0.029 -0.0195,-0.029 -2.66601,-4.0078 -0.0195,-0.029 -0.0195,-0.027 -2.18164,-3.1856 z m 10.72461,16.5371 1.25586,2.082 2.09961,3.6035 1.58399,2.8223 8.72265,-4.8906 -1.58398,-2.8242 -0.0195,-0.035 -0.0215,-0.035 -2.18164,-3.7442 -0.0195,-0.033 -0.0195,-0.033 -1.25781,-2.082 z m 9.45899,17.1094 1.10351,2.2597 1.44336,3.1231 1.29297,2.9824 0.0156,0.041 0.14257,0.3555 9.28321,-3.7207 -0.15821,-0.3946 -0.0254,-0.064 -0.0273,-0.062 -1.34375,-3.1074 -0.0254,-0.057 -0.0254,-0.055 -1.49219,-3.2343 -0.0234,-0.049 -0.0254,-0.051 -1.15234,-2.3575 z m 7.14843,17.6855 0.30274,1.0684 0.49023,2.1211 0.32227,1.8769 0.16406,1.6289 0.0176,1.3809 -0.006,0.078 0.006,0 0.002,0.1328 1.65235,-0.021 8.31836,0.5586 0.0176,-0.2656 0.0137,-0.1992 -0.004,-0.2012 -0.0234,-1.8203 -0.002,-0.2168 -0.0215,-0.2168 -0.20117,-2.0098 -0.0176,-0.1738 -0.0293,-0.1719 -0.37696,-2.1914 -0.0234,-0.1406 -0.0332,-0.1387 -0.54492,-2.3633 -0.0273,-0.1172 -0.0332,-0.1152 -0.3379,-1.1992 z"
           style="color:#000000;font-style:normal;font-variant:normal;font-weight:normal;font-stretch:normal;font-size:medium;line-height:normal;font-family:sans-serif;text-indent:0;text-align:start;text-decoration:none;text-decoration-line:none;text-decoration-style:solid;text-decoration-color:#000000;letter-spacing:normal;word-spacing:normal;text-transform:none;direction:ltr;block-progression:tb;writing-mode:lr-tb;baseline-shift:baseline;text-anchor:start;white-space:normal;clip-rule:nonzero;display:inline;overflow:visible;visibility:visible;opacity:1;isolation:auto;mix-blend-mode:normal;color-interpolation:sRGB;color-interpolation-filters:linearRGB;solid-color:#000000;solid-opacity:1;fill:#323232;fill-opacity:0.39215686;fill-rule:nonzero;stroke:none;stroke-width:10;stroke-linecap:butt;stroke-linejoin:miter;stroke-miterlimit:4;stroke-dasharray:10, 10;stroke-dashoffset:0;stroke-opacity:1;color-rendering:auto;image-rendering:auto;shape-rendering:auto;text-rendering:auto;enable-background:accumulate" />
        <path
           sodipodi:nodetypes="ccccccccccccccccccccccccccccccccccccccccccccccccccccccccccccccccccccccccccccccccccccccccccccccccccccccccccccccccccccccccccccccccccccccccccccccccccccccccccccccccccccccccccccccccccccccccccccccccccccccccccccccccccccccccccccccccccccccccccccccccccccccccccccccccccccccccccccccccccccccccccccccccccccccccccccccccccccccccccccccccccccccccccccccc"
           inkscape:connector-curvature="0"
           id="path3349-8-2"
           d="m 312.01953,229.51953 c -30.0178,7.4168 -62.79582,4.06707 -91.19942,17.73874 -35.44102,14.34858 -78.26186,21.32906 -101.85872,54.58646 -26.864365,13.60093 -43.581868,40.77936 -54.527796,67.55566 -12.615249,26.10012 -20.508485,52.80925 -34.199637,78.44098 -4.416598,27.49058 7.219983,55.02628 8.760725,81.7931 2.022994,27.25186 12.402738,65.80743 44.148412,69.83019 29.479146,6.8435 60.352966,8.19777 87.683076,-6.14825 3.89484,35.29644 40.582,31.10916 63.60352,45.60547 28.66786,18.55593 64.08163,12.0227 94.54297,2.17968 18.78566,23.19562 41.59616,46.57173 50.02539,76.19141 18.87631,20.82631 -0.77682,-27.3972 -8.71937,-34.0614 -5.74733,-11.00485 -40.59424,-40.74737 -24.34114,-45.64235 20.10012,18.80715 41.70646,36.15989 58.0898,58.94984 3.40317,8.2701 21.92843,38.82987 23.00369,21.25815 -3.35008,-15.63461 -34.09456,-43.41321 -3.1104,-30.39024 37.54673,7.56136 74.7155,-7.32415 104.26352,-29.88922 25.08053,-16.78296 30.3692,-48.69389 41.49438,-74.72461 17.92307,-22.93308 50.28345,-36.78305 53.7901,-70.35204 5.59321,-33.73459 10.08504,-74.28304 -15.56433,-101.35126 -5.81506,-29.8896 -34.27061,-45.62973 -45.94628,-72.29113 -17.62525,-19.52471 -39.02874,-34.47095 -56.92922,-53.51303 -26.56235,-11.57187 -52.07282,-27.02365 -79.91552,-35.2642 -28.88122,-16.19369 -61.31305,-17.66992 -93.6046,-19.28995 -6.47673,-0.65248 -12.97477,-1.19462 -19.48915,-1.212 z m 12.04688,4.5 c 18.42655,-3.76786 23.01155,9.20885 2.59375,7.50391 -10.45032,-0.78394 -51.30815,8.3527 -26.51174,-5.98866 7.91166,-1.17035 15.92854,-1.50593 23.91799,-1.51525 z m 39.60742,4.32227 c 13.21909,-2.40027 66.77629,13.56566 28.8468,11.14133 -15.95851,-2.29971 -34.25323,-3.3774 -48.49255,-8.09631 6.19438,-2.63253 13.01564,-2.97419 19.64575,-3.04502 z m -94.9961,3.125 c 18.28261,-4.49214 21.41604,15.1335 0.28783,6.48006 -17.6078,-1.65805 -33.88448,13.07609 -49.12767,14.70353 8.73135,-18.55117 30.58108,-21.60851 48.83984,-21.18359 z m 35.90625,7.34961 c 15.15639,2.55797 44.99019,-8.1317 46.23243,12.39839 -9.24233,23.33592 -49.20486,37.48771 -43.96485,71.94532 15.97237,-0.39907 8.43772,-43.62884 33.72675,-49.50899 11.85152,-11.40815 34.76494,-6.26951 18.71446,-22.29574 5.01769,-20.09064 41.58611,-0.80179 58.08414,-2.58785 22.66387,7.52929 12.37775,23.64925 -7.21669,14.61467 -12.20937,-9.95941 -19.57209,-11.39723 -4.5967,1.55527 0.39674,21.33086 -35.07146,24.91187 -49.4659,36.43162 -6.13982,-9.6989 -9.52243,-19.06791 -4.92058,-1.52357 13.51695,11.19276 15.54971,49.75124 28.74914,46.29084 2.85205,-27.10809 39.19262,-41.57871 61.56987,-29.53289 8.32025,12.38108 22.83572,56.74051 12.03655,19.05883 -23.93486,-30.12328 53.14226,-36.04371 44.274,-5.96508 4.15031,13.52004 -22.87244,50.86795 -0.44504,21.71926 -3.801,14.84539 -4.71274,25.02231 2.22579,4.73875 8.66404,-16.43717 -1.76887,-63.68253 27.46608,-36.93529 24.62523,20.13953 40.52379,61.64416 7.11125,82.10692 -9.88943,14.37003 -56.85835,20.62397 -19.17625,18.13158 3.92044,17.39257 6.05767,44.85793 4.42555,65.48487 4.9924,19.68414 -43.39474,35.4637 -13.67144,28.98727 29.32879,-18.92742 17.65179,-56.02033 17.86316,-84.64029 -2.69797,-25.16084 30.45205,-31.20195 38.73689,-52.75722 31.19989,-2.72462 22.54594,74.21838 -8.19002,46.61511 18.31471,10.76561 23.00101,54.95615 8.49771,52.49239 16.74197,1.35749 33.3363,16.84481 28.05001,34.46151 1.50136,36.25225 -50.41908,24.38756 -60.99609,26.40556 21.9585,14.05009 63.71653,7.34382 66.94717,-24.58667 -6.12039,-21.39358 2.79849,-45.69783 -1.86632,-64.30383 5.85802,15.72571 -16.64648,49.01334 -16.95706,17.28666 -9.49833,-20.61578 2.27552,-47.16313 14.3215,-57.86038 10.97263,20.48045 24.95418,44.13711 25.48357,66.9781 -8.35981,-0.2204 -8.43457,-27.87804 -8.08791,-2.80723 -0.0475,11.35428 -9.82044,42.87909 1.17458,13.77503 7.0718,-17.06059 12.88981,4.6004 7.80251,13.61586 -6.17229,32.069 -35.59276,65.50023 -70.52298,60.97401 -4.33389,-23.30299 -20.92734,42.78149 2.67943,17.45089 20.79205,-9.12481 -22.60416,12.53995 -15.25498,13.6318 0.94295,4.02063 38.04222,-19.47923 14.57812,-1.71484 -7.16826,4.35418 -32.87226,15.68969 -11.01958,10.26299 -19.51545,9.53319 -12.70832,8.33445 2.79231,1.23626 12.62225,-7.70546 26.58814,-11.06369 5.46585,-0.475 -9.51192,6.36452 -44.13885,15.43182 -14.50615,10.03239 35.26177,-16.47277 -10.70959,12.98217 -24.58985,11.10547 -15.71839,1.89271 -34.11128,4.71179 -34.68222,1.2211 -9.90788,-4.66737 -44.5307,7.7462 -15.92347,-2.28838 8.84536,-9.25324 -19.57403,-4.66052 -25.27467,6.03011 -21.32725,15.48634 -55.73951,23.60883 -76.16005,3.75272 19.43678,12.69181 57.06727,8.39681 78.1181,-11.36383 22.39258,-9.57585 8.0414,-13.4945 -6.58753,-1.51987 -9.81331,11.8559 -49.52255,22.21786 -46.63464,14.16033 20.71274,-1.49539 53.37621,-19.67504 57.65625,-33.02734 -16.99462,6.49145 -39.18775,33.16758 -53.69141,29.1914 16.43603,-10.08753 42.94117,-23.62966 51.01776,-33.95518 -20.71007,-1.25228 -53.8697,21.11485 -81.65612,10.43241 -14.06985,-4.01056 -20.32869,-0.32364 -2.47138,1.09666 11.96105,19.12986 -40.74209,21.07305 -51.03806,25.91328 -28.4169,11.28423 -60.31173,-0.72123 -84.15458,-17.43196 -31.11764,3.23611 -47.97566,-32.13138 -32.42988,-56.86631 15.58628,-35.52939 -20.04167,9.95107 -37.03846,10.18816 -27.153,10.39266 -57.421777,-5.64293 -69.391386,-30.64069 4.703142,12.07017 19.767708,30.19492 -1.774961,15.72859 10.192635,14.07083 51.792037,17.53288 42.943687,28.89306 15.50048,-8.67468 40.04913,-16.40755 55.58518,-14.88922 -17.2373,28.60038 -58.69157,20.97466 -87.315873,18.25279 -31.670005,-4.17371 -43.510094,-42.82466 -40.903516,-70.22066 2.626677,-24.92922 25.520033,2.09672 21.847746,0.49591 -20.268587,-14.70949 -4.778414,-63.46993 20.011386,-43.52852 14.713087,5.92818 35.357717,6.01648 14.704007,23.30321 -7.506559,7.80795 -24.094648,-13.93075 -7.707031,4.13672 6.122851,8.9855 27.298791,46.57002 28.292971,39.29101 -13.94286,-9.42315 -24.579223,-48.55653 -7.37983,-50.74406 8.59217,11.69407 29.08194,19.22264 7.99921,4.42884 -13.79392,-20.17395 9.63719,-24.43518 5.5115,-43.93219 10.72355,-2.52171 47.95713,-8.56767 15.94529,-8.04366 -14.34323,1.48908 -22.09755,-8.2286 -18.68359,3.90429 -0.77297,24.56769 -20.96979,39.08922 -42.319106,21.72128 -24.363999,-10.46934 -1.150706,-52.26261 6.302484,-25.9232 -5.153716,-19.498 10.429602,-44.85206 31.233412,-28.05589 -16.17306,-1.90814 -28.742104,-52.44846 -21.7698,-17.25031 2.18117,26.87754 -41.906306,14.9474 -22.228242,-9.51336 15.825219,-32.94537 50.217472,-15.41814 72.638672,-2.32617 11.21206,-1.20388 0.37077,38.90665 6.897,13.83463 6.84634,-12.22518 15.23596,-53.95146 3.05818,-19.52409 -35.47407,12.27858 -39.36084,-34.74204 -7.1837,-42.98828 6.87662,-12.38039 44.20912,-16.80466 37.27108,-23.25582 -25.35172,5.57471 -45.67282,23.54315 -64.6298,39.70491 -7.89198,24.74173 -24.69161,-2.87843 -6.54645,-13.72254 11.43886,-19.04368 44.90061,-15.97142 44.01892,-31.2729 7.34106,-10.69126 48.44491,-16.92454 34.58625,-20.56161 -20.98868,11.2047 2.10081,-20.05229 -15.117,0.86273 -20.59297,19.36822 -49.09707,29.62153 -69.15473,49.8049 -7.36484,11.79971 -15.646746,40.00027 -14.188071,9.8544 5.794241,-35.31305 43.483391,-51.27867 72.677731,-64.27735 23.76155,-14.36063 53.41773,-14.59748 75.46923,-31.50547 9.97001,-12.75708 47.84718,-0.77865 22.86558,8.58115 -25.16519,-6.16885 8.90666,8.95963 12.71988,15.74854 9.76672,-9.13488 33.04925,-15.38139 6.10109,-10.04104 -20.17012,4.24201 7.40312,-24.71833 15.00253,-24.15598 z m 121.20704,6.84375 c 13.21477,-0.69314 56.72799,26.20214 23.27648,16.99873 -7.96406,-3.14865 -22.71158,-8.20736 -23.27648,-16.99873 z m -211.11524,0.32812 c 0.64857,11.5569 -34.63768,25.49094 -42.82268,25.21571 5.9122,-14.73067 -17.645,18.45005 -29.43397,16.00353 -10.94396,10.60708 -22.60464,9.0389 -6.71559,-4.42264 22.96373,-17.7892 50.53105,-30.9041 78.97224,-36.7966 z m 225.00781,20.81836 c 21.66315,5.16047 55.48193,15.26287 59.31403,39.64124 -30.30744,4.18677 -48.19618,-25.54204 -78.00358,-27.16591 -15.26598,-9.3672 13.65374,-10.87903 18.68955,-12.47533 z m 31.83594,1.30664 c 15.20589,-2.01847 59.39374,22.2083 38.17773,34.33394 -7.19242,-16.28486 -32.10911,-25.07489 -38.17773,-34.33394 z M 291.51367,339.5957 180.48796,611.0595 Z m 125.49414,-45.90625 c 16.32212,-2.22496 72.04133,22.5181 30.55104,26.24957 -25.03118,-10.74489 -53.01389,4.19718 -71.25641,16.70389 -34.38051,-24.71752 22.13971,-41.48164 40.70537,-42.95346 z M 120.7793,305.47852 c -1.05072,14.23727 -29.770307,33.20878 -38.408705,38.40676 9.591437,-15.28444 23.472155,-28.59204 38.408705,-38.40676 z m 401.78125,9.73046 c 20.87032,2.22946 48.57998,36.52173 41.40467,49.39896 -14.16033,-13.41578 -30.93635,-34.48609 -41.40467,-49.39896 z m -331.23828,23.36133 c 3.6816,15.34732 -11.09844,17.63772 -17.01092,19.17006 17.47435,-3.44216 30.22652,13.40613 32.76665,27.72838 8.5424,-18.49167 -19.13886,-27.22179 -15.75573,-46.89844 z m -96.974614,7.44727 C 97.510325,358.18415 90.389419,384 76.363281,381.38867 74.337925,368.0704 81.611502,351.49642 94.347656,346.01758 Z m 319.921874,6.87304 c 8.40686,11.77811 -2.01493,61.03877 20.86925,37.01954 14.83248,-9.65742 47.82786,19.20497 15.44497,12.81573 -10.8541,1.89631 26.88458,5.50471 24.37786,19.81555 11.54044,22.05372 -5.03871,-28.5026 -12.62685,-32.50423 -15.62298,-14.77382 -45.72037,10.19688 -41.30145,-21.96299 -1.70255,-5.27964 -3.74537,-10.49519 -6.76378,-15.1836 z m 110.42188,2.31641 c 0.19571,17.31944 -12.64637,41.69836 -16.51953,51.10938 15.35074,-10.5321 20.58796,-33.86156 16.51953,-51.10938 z m -224.25586,0.27735 c -14.90953,7.17944 -22.04265,53.46786 -36.81606,25.62581 12.27321,23.00192 13.48802,49.29836 13.12663,74.77653 2.75368,-7.78651 3.79165,-21.33874 12.49414,-8.17578 -16.29296,-26.17301 -10.06242,-57.99592 9.3226,-80.6362 3.48289,-7.51339 15.66669,-7.10843 1.87269,-11.59036 z m 261.79297,12.70703 c 20.93015,-3.01849 46.48315,35.54746 35.74865,43.47187 -13.17665,-12.19919 -25.88859,-31.61232 -35.74865,-43.47187 z m -192.64063,2.22461 c -14.43216,14.75009 4.31181,0.0767 0,0 z m -298.851562,2.23437 c -2.561244,14.47025 9.000607,56.36977 -14.783608,48.33773 -3.358003,-15.91554 2.691348,-37.73617 14.783608,-48.33773 z m 292.968752,3.26953 c -14.85972,12.69131 -26.41231,17.54469 -14.56329,35.34969 9.49856,19.68314 4.11654,33.54828 -19.308,34.32527 -22.24727,3.13837 -57.01758,42.55903 -67.00347,6.99833 -14.8218,-35.0065 20.60356,47.64491 -13.96509,26.33648 -14.3594,-7.68316 -17.88296,-56.7174 -15.65744,-19.758 6.22221,15.97895 17.39206,25.99563 9.62229,42.63495 39.71712,-22.67698 80.46394,-47.99482 126.42615,-54.66277 21.64096,12.52625 45.10085,0.95247 68.00549,2.35613 -21.69637,-0.54741 -20.57012,-14.88533 -15.42383,-32.1875 -9.36161,-1.86324 -5.04011,41.24344 -31.38548,27.34989 -28.41929,2.89316 -42.56629,-33.90199 -34.67184,-54.65063 3.89269,-4.19959 17.40635,-9.23398 7.92451,-14.09184 z M 204.58203,389.6543 c -22.79474,5.44487 -43.706,43.94914 -35.92206,55.52338 6.16913,-16.93168 14.49164,-42.6557 35.06269,-51.67573 l 0.85937,-3.84765 z m 164.32227,1.62695 c 14.91319,1.25784 20.27397,44.56352 26.95633,23.71716 21.93164,6.95845 -19.79231,-18.91468 -25.51297,-23.48669 l -1.44336,-0.23047 z m 51.94726,5.36133 c -0.36237,0.0505 0.11391,0.59559 0,0 z m -185.1582,18.69336 c -5.0081,5.18437 0.50341,0.49202 0,0 z m 369.66797,4.92968 c 17.50432,-1.08965 21.30824,60.24684 7.44741,28.91205 -1.37033,-9.87948 -5.53083,-19.41078 -7.44741,-28.91205 z m -556.400392,2.46485 c -1.25605,13.34898 -6.894815,44.88312 -12.880902,53.86536 -4.773877,-17.52337 -2.018708,-42.02486 12.880902,-53.86536 z m 31.0625,0.68164 c 19.149927,7.8793 -16.90834,19.16384 -14.058153,34.17371 -40.692567,28.79599 -11.686546,-43.75414 14.058153,-34.17371 z m 155.376952,3.62305 c -0.76759,0.22227 0.29108,0.45907 0,0 z M 187.34766,549.4043 c -106.166469,174.2843 -53.08323,87.14215 0,0 z m 303.49023,-94.21875 c -7.76848,13.49092 -12.65752,29.9425 10.71822,26.35085 23.9902,1.89378 -31.31082,-1.10864 -9.97015,-18.1244 l 0.14255,-6.31044 z m -422.085937,9.63086 c 5.539262,12.48473 -21.26185,27.37816 -19.873047,44.92379 -24.472634,-2.6012 -3.003585,-48.17406 19.873047,-44.92382 z M 407.06445,466.625 c -10.82742,26.2653 -32.28413,44.91407 -62.28955,34.15398 -13.33905,-1.74774 -50.63525,6.79668 -26.41438,-16.67692 13.00453,-13.65639 9.02322,-5.49217 -2.56707,-3.49029 -5.6911,-13.92707 -4.55327,25.64075 -18.6319,25.68684 -8.22898,11.67226 -36.33292,18.97879 -34.6596,28.8283 22.25357,-7.84328 52.95658,-47.62088 73.94727,-21.25781 6.08405,12.53217 16.2335,23.30936 6.83198,2.61354 15.03759,-20.9538 54.34469,-0.6603 77.57899,-13.67352 14.61299,-2.0315 54.07263,-24.22465 18.7183,-10.09296 -14.40035,6.61228 -67.22357,20.85006 -40.3476,-8.71771 2.85875,-5.63361 6.28783,-11.19276 7.83356,-17.37345 z m 137.19141,33.96484 c -3.30432,11.9103 -23.729,34.99038 -0.59199,15.94703 9.42617,-6.6222 43.79941,5.6369 16.33445,-6.37141 -7.63695,-0.50339 -14.73658,-0.15378 -15.74246,-9.57562 z m -204.99414,9.55469 c 6.34612,5.29008 -4.46362,4.57871 0,0 z m 131.37695,11.46094 c 3.06742,4.71816 22.58946,2.0648 0,0 z m 14.61524,107.70312 c -304.77064,121.01477 -152.38532,60.50738 0,0 z M 385.05078,547.86914 c 14.08644,5.10315 24.36079,12.10126 2.19727,17.39453 -9.89707,13.37475 24.01445,-5.91482 33.00976,-6.86133 17.35181,6.52568 19.13647,-8.13443 -0.54728,-5.062 -11.69619,-0.84257 -23.24373,-2.84879 -34.65975,-5.4712 z m -163.5625,8.36719 c -4.37213,12.43862 -28.67813,16.60607 -22.23526,17.02301 16.57193,6.14232 12.52647,42.14647 41.3794,34.7372 14.90102,-1.75428 36.64288,3.12771 43.18203,14.30815 -0.23404,3.07465 20.72334,-15.1837 29.82681,-2.86948 14.2243,6.89082 -26.32137,-15.77952 -7.46151,-31.07371 7.44326,-7.25286 22.4338,-5.53833 3.86958,-11.16847 -19.40003,-14.3866 2.79686,7.98439 -18.35953,6.56865 -26.95297,3.48711 -3.45932,-0.45682 9.02071,2.89458 7.06782,25.23624 -19.00641,33.24701 -35.30315,18.22733 -4.70328,-8.50707 -30.91927,8.52972 -41.59696,-5.34653 -17.26865,-9.71198 -6.55347,-29.75961 -2.32212,-43.30073 z m 159.92383,11.28906 c -0.51714,0.11834 1.46103,0.86874 0,0 z m -16.92773,9.64844 c -1.17876,2.83217 9.8549,-1.71993 0,0 z m 186.03124,38.79101 c -10.5518,10.37204 -32.5751,16.40691 -7.21093,3.51368 l 4.73355,-2.60137 2.47738,-0.91231 z m -7.21874,7.9336 c -8.64827,9.10249 -40.37525,24.34844 -34.70899,16.08984 -22.76162,2.54006 -48.57317,10.62005 -69.93555,2.15234 35.26028,-0.98992 73.13516,1.04172 104.64454,-18.24218 z m -29.1836,2.89648 c -14.90884,3.58001 -2.02795,1.43316 0,0 z m 12.00586,2.77539 c -12.17441,6.08576 -22.1676,4.77431 -2.34032,0.40351 l 2.34035,-0.40355 z m -23.06055,5.04297 c -0.28863,4.09206 -54.44767,6.5492 -50.33725,1.3721 16.75585,-0.97066 33.56193,-0.89401 50.33725,-1.3721 z M 298,637.36133 c -3.30803,0.42172 2.39339,0.94507 0,0 z m 225.88477,4.11133 c -24.1118,11.57943 -54.50982,15.87319 -80.05665,12.36329 42.77035,-4.47099 -53.83768,-1.1301 -13.60754,-5.19548 19.01219,0.18798 54.75044,-3.25899 65.0786,-2.28326 -15.70661,2.77819 -39.9594,6.07936 -9.29397,3.23037 12.92831,-1.24645 25.48276,-4.38404 37.87956,-8.11492 z m 4.73242,5.06445 c -8.9913,7.05077 -41.2994,17.06681 -41.39057,13.97026 14.30643,-4.03448 25.94505,-8.22758 4.42875,-2.9061 -29.17446,4.1133 -61.93277,9.74435 -89.16904,-3.78873 24.41822,-0.57437 52.83422,9.72652 78.78719,2.6506 11.90029,-2.23118 38.86763,-8.4314 31.36952,-4.11834 5.33277,-1.82579 10.39927,-4.77309 15.97415,-5.80769 z m -66.52149,4.63281 c -4.22504,0.38487 3.86726,0.67253 0,0 z m 57.95703,1.58203 c -13.29549,13.09301 -47.07317,16.198 -56.86578,15.33094 19.96469,-0.59633 38.94222,-6.91182 56.86578,-15.33094 z m -134.96093,2.17578 c 19.08115,6.61369 44.39219,7.94752 61.10788,10.85911 -11.65356,1.37912 -45.70726,-0.96647 -13.92234,4.90062 22.18958,4.92646 43.51974,-2.62568 64.61999,-4.41697 9.22414,-3.45587 29.03001,-10.19116 7.80061,-0.88805 -34.45847,13.74452 -74.73106,14.134 -108.10757,-2.9633 -1.36989,-0.81124 -18.90507,-4.39391 -11.49857,-7.49141 z m 102.68945,19.31446 c -10.96291,11.00149 -70.33566,7.13546 -26.86523,3.66604 9.00606,-0.83091 17.96599,-2.05794 26.86523,-3.66604 z"
           style="display:inline;opacity:1;fill:url(#linearGradient5066);fill-opacity:1;fill-rule:nonzero;image-rendering:auto"
           transform="translate(60.473471,201.53147)" />
        <path
           style="display:inline;opacity:0.99599998;fill:url(#linearGradient5068);fill-opacity:1;fill-rule:nonzero"
           d="m 251.48764,366.11322 a 35,35 0 0 1 -35,-35 35,35 0 0 1 35,-35 35,35 0 0 1 35,35 35,35 0 0 1 -35,35 z m 0,-12.5 a 22.5,22.5 0 0 0 22.5,-22.5 22.5,22.5 0 0 0 -22.5,-22.5 22.5,22.5 0 0 0 -22.5,22.5 22.5,22.5 0 0 0 22.5,22.5 z"
           id="path4211-5"
           inkscape:connector-curvature="0"
           transform="translate(60.473471,201.53147)" />
        <path
           style="display:inline;opacity:0.99599998;fill:url(#linearGradient5070);fill-opacity:1;fill-rule:nonzero"
           d="m 185.26198,534.4047 a 35,35 0 0 1 -35,-35 35,35 0 0 1 35,-35 35,35 0 0 1 35,35 35,35 0 0 1 -35,35 z m 0,-12.5 a 22.5,22.5 0 0 0 22.5,-22.5 22.5,22.5 0 0 0 -22.5,-22.5 22.5,22.5 0 0 0 -22.5,22.5 22.5,22.5 0 0 0 22.5,22.5 z"
           id="path4211-5-2"
           inkscape:connector-curvature="0"
           transform="translate(60.473471,201.53147)" />
        <path
           style="display:inline;opacity:0.99599998;fill:url(#linearGradient5072);fill-opacity:1;fill-rule:nonzero"
           d="m 483.66104,617.8433 a 35,35 0 0 1 -35,-35 35,35 0 0 1 35,-35 35,35 0 0 1 35,35 35,35 0 0 1 -35,35 z m 0,-12.5 a 22.5,22.5 0 0 0 22.5,-22.5 22.5,22.5 0 0 0 -22.5,-22.5 22.5,22.5 0 0 0 -22.5,22.5 22.5,22.5 0 0 0 22.5,22.5 z"
           id="path4211-5-3"
           inkscape:connector-curvature="0"
           transform="translate(60.473471,201.53147)" />
        <circle
           style="display:inline;opacity:0.99599998;fill:#303030;fill-opacity:0.39215686;fill-rule:nonzero"
           id="path4211-6-5-5"
           cx="312.02457"
           cy="-532.40942"
           r="15"
           transform="scale(1,-1)" />
        <circle
           style="display:inline;opacity:0.99599998;fill:#303030;fill-opacity:0.39215686;fill-rule:nonzero"
           id="path4211-6-5-5-6"
           cx="246.44258"
           cy="-700.46124"
           r="15"
           transform="scale(1,-1)" />
        <circle
           style="display:inline;opacity:0.99599998;fill:#303030;fill-opacity:0.39215686;fill-rule:nonzero"
           id="path4211-6-5-5-6-2"
           cx="544.84161"
           cy="-784.37469"
           r="15"
           transform="scale(1,-1)" />
      </g>
    </g>
  </g>
</svg>
