<?xml version="1.0" encoding="UTF-8" standalone="no"?>
<!-- Created with Inkscape (http://www.inkscape.org/) -->

<svg
   xmlns:dc="http://purl.org/dc/elements/1.1/"
   xmlns:cc="http://creativecommons.org/ns#"
   xmlns:rdf="http://www.w3.org/1999/02/22-rdf-syntax-ns#"
   xmlns:svg="http://www.w3.org/2000/svg"
   xmlns="http://www.w3.org/2000/svg"
   xmlns:xlink="http://www.w3.org/1999/xlink"
   xmlns:sodipodi="http://sodipodi.sourceforge.net/DTD/sodipodi-0.dtd"
   xmlns:inkscape="http://www.inkscape.org/namespaces/inkscape"
   width="600"
   height="600"
   viewBox="0 0 600.00001 600.00001"
   id="svg4462"
   version="1.1"
   inkscape:version="0.91 r13725"
   sodipodi:docname="DCM_RNN.svg"
   inkscape:export-filename="/Users/yuanwang/Google_Drive/projects/Gits/YuanWangOnward.github.io/draft/DCM_RNN_v4.png"
   inkscape:export-xdpi="90"
   inkscape:export-ydpi="90">
  <defs
     id="defs4464">
    <linearGradient
       gradientTransform="translate(60.47347,172.49534)"
       inkscape:collect="always"
       xlink:href="#linearGradient4233"
       id="linearGradient4623-0"
       x1="97.976265"
       y1="288.68689"
       x2="565.29071"
       y2="666.28192"
       gradientUnits="userSpaceOnUse" />
    <linearGradient
       inkscape:collect="always"
       id="linearGradient4233">
      <stop
         style="stop-color:#195a93;stop-opacity:1"
         offset="0"
         id="stop4235" />
      <stop
         style="stop-color:#1e9559;stop-opacity:1"
         offset="1"
         id="stop4237" />
    </linearGradient>
  </defs>
  <sodipodi:namedview
     id="base"
     pagecolor="#ffffff"
     bordercolor="#666666"
     borderopacity="1.0"
     inkscape:pageopacity="0.0"
     inkscape:pageshadow="2"
     inkscape:zoom="0.68416667"
     inkscape:cx="300"
     inkscape:cy="363.08959"
     inkscape:document-units="px"
     inkscape:current-layer="g5074"
     showgrid="false"
     units="px"
     inkscape:window-width="1280"
     inkscape:window-height="707"
     inkscape:window-x="0"
     inkscape:window-y="1"
     inkscape:window-maximized="1" />
  <metadata
     id="metadata4467">
    <rdf:RDF>
      <cc:Work
         rdf:about="">
        <dc:format>image/svg+xml</dc:format>
        <dc:type
           rdf:resource="http://purl.org/dc/dcmitype/StillImage" />
        <dc:title></dc:title>
      </cc:Work>
    </rdf:RDF>
  </metadata>
  <g
     inkscape:label="Layer 1"
     inkscape:groupmode="layer"
     id="layer1"
     transform="translate(0,-452.36216)">
    <g
       id="g5074"
       transform="translate(-88.571428,39.999955)">
      <g
         id="g5303">
        <g
           transform="translate(1.2981384e-6,63.089588)"
           id="g5294">
          <path
             inkscape:connector-curvature="0"
             id="path3349-8-2-8"
             d="m 372.493,402.01487 c -9.25612,-0.008 -15.9372,1.17543 -23.38672,3.65039 -4.92647,1.63676 -9.35161,2.45101 -16.30469,3.00196 -33.00448,2.61518 -30.87697,2.20624 -45.97265,8.82617 -5.48357,2.4047 -19.4607,7.58058 -31.06055,11.50194 -31.30511,10.58278 -44.13472,16.45454 -57.51367,26.32423 -7.79807,5.75267 -12.90515,10.64605 -14.61719,14.00195 -1.93096,3.785 -4.90442,6.1382 -13.11523,10.3789 -6.79265,3.50827 -7.16261,3.84492 -17.82422,16.31054 -5.98802,7.00127 -11.99263,14.15972 -13.34375,15.90626 -3.42274,4.42433 -7.66124,13.63882 -8.7793,19.08789 -0.74668,3.63916 -1.90836,5.87286 -5.66797,10.89063 -7.00416,9.34811 -12.00727,22.60749 -14.11523,37.4043 -0.90031,6.31974 -1.25292,7.22537 -4.17383,10.73633 -14.2281,17.10236 -20.29456,36.93443 -16.2207,53.02929 1.42581,5.63303 2.54182,13.87612 3.15234,23.28125 0.59512,9.16768 2.26901,16.78187 4.91992,22.38672 1.56149,3.30147 1.89544,4.7945 1.375,6.13477 -0.37836,0.97437 -0.49853,5.91285 -0.26757,10.97461 0.32925,7.21546 0.93418,10.9268 2.80468,17.18358 5.44983,18.2296 11.3512,30.26389 18.73438,38.20899 6.12006,6.58586 11.02653,9.2449 18.87109,10.22851 3.55325,0.44555 12.85325,1.84437 20.66602,3.10938 16.7495,2.71209 31.61303,3.59973 38.29492,2.28516 6.79078,-1.33601 13.18465,-3.548 22.91211,-7.92969 5.8921,-2.65408 8.90615,-3.65047 9.43945,-3.11718 0.43088,0.43088 1.30982,2.81731 1.95508,5.30273 2.74698,10.58083 11.09985,21.76358 19.39453,25.9668 2.86634,1.4525 5.02428,1.94336 8.54297,1.94336 8.80898,0 13.21505,1.62055 33.71094,12.39258 14.95234,7.85846 22.52405,10.40557 34.37109,11.56835 14.71022,1.44371 30.1701,-0.61442 50.09961,-6.66992 4.922,-1.49554 9.45427,-2.71875 10.07227,-2.71875 1.6621,0 5.54197,4.61073 12.73437,15.13867 3.5272,5.1629 7.58859,10.5135 9.02539,11.88868 3.5143,3.3635 16.89571,22.53048 20.88281,29.91211 3.9362,7.2873 6.65002,14.36503 7.38282,19.25195 0.3266,2.1776 1.20056,4.29189 2.13476,5.16211 1.447,1.34814 7.42969,2.18669 7.42969,1.04101 0,-0.23918 -1.9553,-6.14648 -4.3457,-13.12695 -5.265,-15.37492 -8.78545,-21.30267 -22.49805,-37.89844 -12.03,-14.55945 -15.50906,-19.45972 -19.25586,-27.11132 -3.4229,-6.99001 -3.5603,-7.80672 -1.4375,-8.48047 3.1278,-0.99275 6.74275,1.05684 9.68555,5.49023 3.0108,4.53602 10.0658,10.5787 17.6289,15.09766 2.5865,1.5454 5.68246,4.10203 6.88086,5.68359 1.1983,1.58155 6.95838,8.1585 12.80078,14.61328 5.8424,6.45478 13.04596,14.90344 16.00586,18.77539 5.3958,7.05837 12.14439,19.56949 12.14454,22.51367 0,0.86423 0.6763,2.18465 1.5039,2.9336 1.262,1.14207 2.30116,1.27756 6.44336,0.83398 l 4.93945,-0.52929 -4.4414,-9.84375 c -4.7597,-10.54896 -9.67929,-18.71259 -15.10742,-25.07032 -1.85899,-2.17751 -3.07463,-4.1473 -2.70313,-4.37696 0.3717,-0.22965 3.14897,0.41867 6.17188,1.44142 10.31319,3.48919 17.84313,4.53417 32.33593,4.48828 11.4535,-0.0363 14.85204,-0.34104 23.17774,-2.07813 13.8312,-2.88577 19.88088,-5.3313 36.33398,-14.6914 30.5882,-17.40153 41.63346,-27.79082 46.47266,-43.71289 0.8975,-2.95269 2.40084,-6.4045 3.33984,-7.66993 2.9646,-3.99511 4.67063,-8.08411 8.79883,-21.08985 6.1151,-19.26522 9.92041,-25.8288 17.78711,-30.67968 15.3904,-9.49017 21.37215,-14.93176 28.68555,-26.09375 9.3688,-14.29891 13.27738,-24.87606 15.73828,-42.58984 2.3152,-16.66461 2.51393,-43.51574 0.39453,-53.25586 -2.9698,-13.64892 -7.33305,-23.08303 -14.24805,-30.80078 -2.1392,-2.38756 -3.89062,-4.71729 -3.89062,-5.17774 0,-1.52869 -4.35709,-13.4413 -6.36719,-17.4082 -4.7648,-9.40277 -13.74681,-20.72908 -22.00781,-27.75 -3.6823,-3.12949 -5.40455,-5.25854 -6.58985,-8.14258 -4.3766,-10.64889 -11.09011,-20.4191 -20.29101,-29.52929 -5.489,-5.43477 -16.91343,-14.45394 -23.79883,-18.78907 -2.3043,-1.45086 -4.26256,-3.55777 -5.69336,-6.125 -1.1997,-2.1523 -4.62448,-6.36752 -7.60937,-9.36718 -8.6558,-8.69902 -18.62735,-14.49542 -34.18555,-19.87305 -4.429,-1.53089 -12.36793,-5.07387 -17.64063,-7.87305 -22.1855,-11.77802 -29.75582,-14.95685 -38.60742,-16.21095 -2.4591,-0.34839 -7.87645,-2.48739 -14.31055,-5.65038 -18.0514,-8.87404 -27.76972,-11.21305 -46.48242,-11.18945 -6.6842,0.008 -16.82808,-0.62487 -24.45898,-1.52539 -11.88683,-1.40276 -20.64259,-2.13012 -27.8418,-2.13672 z m 12.04688,4.5 c 10.2064,0.0394 18.86328,0.94716 18.86328,2.86328 0,0.60768 -1.62684,1.94155 -3.61524,2.96485 -3.3062,1.70143 -4.38859,1.8459 -12.65429,1.67577 -4.9715,-0.10229 -10.55415,-0.12678 -12.40625,-0.0527 -1.8521,0.074 -7.44323,1.1031 -12.42383,2.28515 -6.33451,1.50342 -9.29702,1.90611 -9.86133,1.34181 -1.12103,-1.12104 -1.01201,-6.28225 0.15234,-7.21875 3.13951,-2.52514 18.8228,-3.91005 31.94532,-3.85938 z m 39.60742,4.32227 c 5.31496,-0.007 10.84223,0.40003 15.30078,1.22265 13.6804,2.52413 30.29492,7.6325 30.29492,9.31446 0,0.87268 -1.47785,1.06333 -7.47851,0.96483 -8.3276,-0.13669 -9.17207,-0.20844 -21.66407,-1.8496 -8.3459,-1.09646 -30.13346,-4.4867 -34.71093,-5.4004 -3.2184,-0.6424 -1.89358,-1.57865 4.23242,-2.99219 3.6084,-0.83261 8.71043,-1.25318 14.02539,-1.25975 z m -94.9961,3.125 c 11.08148,0.0144 12.91868,0.19117 14.22461,1.37304 3.34781,3.02975 3.44121,5.86161 0.22071,6.66992 -0.98574,0.24741 -4.67123,-0.10239 -8.18946,-0.77734 -3.9971,-0.76681 -8.19109,-1.06371 -11.17968,-0.79297 -5.61992,0.50909 -15.59861,3.72517 -24.74414,7.97656 -3.58541,1.6667 -8.9923,4.11685 -12.01563,5.44336 -6.1873,2.7146 -7.15625,2.8894 -7.15625,1.29102 0,-1.29708 6.30775,-9.27346 9.12109,-11.53321 8.57614,-6.88867 20.04831,-9.67589 39.71875,-9.65038 z m 35.90625,7.34961 16.10547,0.0273 c 16.303,0.028 25.7618,1.03564 28.5,3.03515 1.1915,0.87012 1.44396,2.31281 1.62696,9.33594 0.119,4.56923 -0.0549,8.66294 -0.38477,9.09765 -0.3299,0.43474 -2.78658,2.07803 -5.45898,3.65039 -12.3872,7.2883 -24.33863,18.43311 -29.89063,27.87306 -4.7654,8.1024 -7.07547,16.8932 -8.23047,31.32421 -0.0233,0.29062 -0.0454,0.49975 -0.0684,0.78125 l 0.88868,0 c 1.93675,-0.0609 3.87603,-0.11018 5.79687,0 l 1.47656,0 c 0.0748,-13.76585 2.5399,-23.03406 8.90235,-33.50782 7.0387,-11.58699 24.44105,-23.88424 39.40625,-27.8457 l 3.45117,-0.91406 -2.68555,-1.14844 c -1.4764,-0.63187 -3.11193,-1.6644 -3.63476,-2.29492 -1.2846,-1.54905 -1.52052,-12.03831 -0.32032,-14.23828 1.2755,-2.33793 5.46949,-2.28395 21.21289,0.26953 7.8646,1.2756 15.87007,2.04513 22.29493,2.14453 9.5175,0.14733 10.21558,0.26666 13.80468,2.36133 3.6996,2.15914 15.8592,11.56925 16.2461,12.57226 0.3533,0.91583 -11.91973,4.83758 -15.29883,4.88868 -3.9209,0.0593 -6.68917,-1.27819 -11.35547,-5.48829 -4.0047,-3.61321 -8.88499,-6.21711 -11.55469,-6.16601 -1.5363,0.0294 -1.23574,0.36309 1.69336,1.88867 5.1551,2.68496 8.84926,7.31609 9.47656,11.87695 0.9036,6.57035 0.4745,6.92867 -21.5957,17.98828 -8.7904,4.40497 -17.76475,9.38022 -19.9414,11.05469 -5.63421,4.33398 -6.74052,4.8261 -8.94922,3.98633 -1.9895,-0.75637 -5.88282,-7.83247 -5.88282,-10.69335 0,-0.84486 -0.34382,-1.74908 -0.76562,-2.00977 -2.0246,-1.25125 0.97757,11.1941 3.79297,15.72265 1.1801,1.89816 4.32869,6.90298 6.99609,11.1211 7.55919,11.95406 11.11623,21.43479 11.24024,30.37109 0.23808,0.10531 0.42316,0.19055 0.68164,0.30664 0.37994,0.15935 5.35131,2.22716 5.61132,2.41016 0.38618,0.2718 0.7561,0.56434 1.1211,0.86329 1.40968,-4.28413 2.68618,-9.14893 3.91601,-14.75783 0.8177,-3.72893 11.20419,-13.33058 18.02539,-16.66406 10.2057,-4.98757 20.53088,-6.70383 31.26758,-5.19531 6.17,0.8669 6.90583,1.16202 9.39453,3.75977 1.4854,1.55044 3.09317,4.01035 3.57227,5.46484 0.4791,1.45451 2.49853,6.20582 4.48633,10.55859 1.9879,4.35276 4.75765,11.2544 6.15625,15.33789 1.3985,4.08349 2.56103,6.90616 2.58203,6.27344 0.0746,-2.24766 -2.34932,-11.28175 -6.10352,-22.75586 -2.0938,-6.39961 -3.80664,-12.15232 -3.80664,-12.78515 0,-1.54104 8.16622,-5.54715 13.63672,-6.68946 5.3568,-1.11858 24.86204,-0.49875 30.43164,0.9668 3.5802,0.94206 3.86468,1.203 4.83008,4.45117 0.7447,2.50565 0.88869,5.86816 0.52539,12.27149 -0.824,14.52873 -1.81876,17.82705 -9.19336,30.48829 -4.1277,7.08699 -1.30413,5.10346 3.57227,-2.50978 6.0886,-9.5058 6.71355,-8.61324 3.00195,4.2832 -1.2533,4.35499 -2.1631,8.03411 -2.02148,8.17579 0.46559,0.46546 2.73884,-3.49981 4.37304,-7.62696 0.8822,-2.22819 3.00643,-9.3994 4.72071,-15.9375 2.86152,-10.91392 3.13211,-12.7883 3.29101,-22.89062 0.16103,-10.23436 0.29577,-12.95352 3.30078,-13.06446 1.00167,-0.037 2.32161,0.21539 4.06836,0.57618 7.8088,1.61288 14.05301,6.59428 24.16211,19.27343 12.1264,15.20933 17.13867,26.55247 17.13867,38.79493 0,9.56932 -2.71864,14.38625 -15.68554,27.80859 -11.5617,11.96783 -23.89648,19.0597 -36.26758,20.85156 -9.8732,1.43009 -7.21358,2.59187 4.51562,1.97266 l 9.85742,-0.52149 0.0234,7.12305 c 0.0134,3.91728 0.71394,12.29976 1.55664,18.62695 2.2955,17.23345 2.74816,32.3308 1.19336,39.82227 -2.3874,11.50298 -9.54681,22.53815 -17.13281,26.4082 -2.79553,1.4262 -6.50684,2.32832 -10.54687,2.69923 a 55,55 0 0 1 10.14453,2.20702 c 10.51441,-5.49444 19.51312,-16.88069 22.82421,-29.33983 1.46412,-5.50903 1.45686,-20.2525 -0.0176,-34.12891 -1.3449,-12.65849 -1.47755,-27.09935 -0.31055,-33.80078 l 0.83398,-4.7832 6.25977,-4.83986 c 9.3945,-7.26254 22.65299,-20.85565 27.40039,-28.09178 2.7441,-4.18277 4.42628,-6.30183 6.27734,-6.46875 1.85107,-0.16694 3.87197,1.61911 7.29102,5.24609 8.8189,9.35519 11.55379,18.43447 9.08789,30.17383 -1.6455,7.83306 -5.89472,16.31248 -9.19727,18.3535 -2.8161,1.74041 -7.51254,2.07245 -10.96484,0.7754 -1.1875,-0.44613 -3.43815,-2.25698 -5.00195,-4.0254 -2.0804,-2.35257 -2.851,-2.84654 -2.875,-1.84178 -0.0493,2.07147 3.07986,5.89095 6.10156,7.44725 5.3153,2.73769 8.43465,7.91529 9.93555,16.48829 0.517,2.9527 1.61049,8.94257 2.42968,13.3125 0.8193,4.36989 1.29535,8.56057 1.05665,9.3125 -0.55439,1.74688 -3.42759,2.82104 -9.11329,3.40624 -7.0077,0.72149 -7.54229,1.65968 -1.24609,2.1875 9.8764,0.828 18.79217,6.08727 24.94727,14.7129 l 3.43554,4.8125 0,7.98632 c 0,19.70649 -7.02352,29.91258 -22.89843,33.27736 -4.7108,0.99848 -14.19947,1.28026 -19.66797,0.58397 -1.2654,-0.16113 -7.82132,-1.18354 -14.57032,-2.27147 -2.57043,-0.41436 -4.55375,-0.72514 -6.30273,-0.97267 a 55,55 0 0 1 4.04492,5.60353 c 4.29781,0.48757 9.12098,1.34286 16.72071,2.82421 4.15818,0.81053 9.3349,1.46889 11.5039,1.46289 5.4088,-0.0155 13.00289,-1.91476 17.67969,-4.41993 5.448,-2.91832 13.56629,-11.21739 15.99609,-16.35351 4.2478,-8.97905 4.54985,-20.16631 0.87305,-32.28516 -2.2371,-7.3734 -2.12397,-9.05427 1.33203,-19.78906 2.5267,-7.84824 2.6662,-12.8009 0.5918,-21.0332 -0.7933,-3.14818 -1.05268,-3.50853 -1.55078,-2.16211 -0.3287,0.88859 -0.82843,4.65891 -1.11133,8.3789 -1.3254,17.42852 -4.70352,24.86167 -10.54102,23.1875 -4.6407,-1.3309 -5.5458,-3.05372 -5.3164,-10.11718 0.2022,-6.22592 -0.19082,-8.76792 -2.99414,-19.39258 -1.62009,-6.14042 -1.85573,-12.66912 -0.54493,-15.14844 0.4871,-0.92135 2.14309,-3.11218 3.67969,-4.86719 3.7928,-4.33222 7.4816,-12.14711 8.6543,-18.33984 0.5335,-2.81688 1.37017,-5.27693 1.85937,-5.46484 1.5809,-0.6073 5.59995,2.04549 7.88868,5.20507 4.2254,5.83303 9.92911,22.76713 9.99414,29.67579 0.009,0.99373 1.88269,3.94756 4.33789,6.84179 7.1485,8.42656 9.9256,16.68805 8.0039,23.8125 -0.7221,2.67728 -1.20728,3.25784 -2.70898,3.25781 -1.9604,0 -2.87188,-1.91791 -3.83008,-8.05273 -1.3254,-8.48528 -4.00992,-9.98922 -3.07813,-1.72461 1.02301,9.07324 0.47422,15.36306 -1.99218,22.84766 -1.2372,3.75411 -2.23575,7.78483 -2.21875,8.95703 l 0.0312,2.13281 1.24804,-2.30078 c 0.6861,-1.26544 2.49303,-5.75258 4.01563,-9.9707 l 2.76758,-7.66993 3.43164,0 3.43164,0 -0.15039,8.4375 c -0.359,20.22197 -9.54726,40.02283 -25.59766,55.16407 -12.4317,11.72739 -26.32383,18.07617 -39.54883,18.07617 -6.5919,0 -8.36407,-1.09989 -7.10547,-4.41016 0.4303,-1.13189 1.19447,-2.56221 1.69727,-3.17969 0.5028,-0.61748 -2.02007,0.51824 -5.60547,2.52344 -1.55911,0.87196 -3.03965,1.66581 -4.50586,2.44532 a 55,55 0 0 1 1.09961,10.67773 55,55 0 0 1 -1.23047,11.44727 c 0.009,-0.002 0.0259,-0.005 0.0352,-0.008 0.71332,-0.18498 1.15923,-0.29854 1.35352,-0.30664 0.3238,-0.0135 -0.0521,0.26885 -1.05665,1.01758 -0.16926,0.12615 -0.40372,0.26118 -0.61132,0.39258 a 55,55 0 0 1 -0.4668,1.82812 c 5.78115,-2.30757 11.24383,-5.03439 16.64648,-8.27734 1.0077,-0.60488 2.01852,-0.98551 2.5918,-1.00781 0.19109,-0.007 0.33501,0.0245 0.41211,0.10156 0.7422,0.74214 1.63451,0.18586 -12.87109,8.03516 -3.16421,1.71222 -5.5482,2.99556 -7.625,4.0332 a 55,55 0 0 1 -1.16211,3.18164 c 1.62679,-0.51983 2.81694,-0.85689 3.07226,-0.8457 0.41396,0.0181 -1.24212,1.09212 -3.74023,2.4707 a 55,55 0 0 1 -0.99414,2.05273 c 0.74629,-0.30851 1.57076,-0.66464 2.50976,-1.10156 2.1227,-0.98769 6.20166,-2.84519 9.06446,-4.12695 2.8627,-1.28177 6.76221,-3.38115 8.66601,-4.66602 2.45231,-1.65504 3.46145,-2.30443 3.87305,-2.21875 0.24695,0.0514 0.27734,0.36674 0.27734,0.88867 0,1.53066 -3.69736,4.65805 -8.81836,7.45704 -2.5309,1.3833 -5.90304,3.33283 -7.49414,4.33203 -2.70726,1.70017 -6.12379,3.14252 -10.88281,4.49023 a 55,55 0 0 1 -2.69336,3.9082 c 2.01504,-0.51729 3.87022,-1.07473 5.61719,-1.68359 6.0111,-2.095 5.88523,-0.76877 -0.22071,2.32031 -2.48626,1.25788 -5.33744,2.36158 -8.70703,3.35157 a 55,55 0 0 1 -1.6914,1.81445 c 5.77634,-1.83849 9.41368,-3.24914 14.18359,-5.35742 4.4291,-1.9576 11.10173,-5.23888 14.82813,-7.29297 4.05512,-2.23534 6.43803,-3.30027 7.16992,-3.20117 0.43913,0.0595 0.28486,0.53726 -0.45899,1.43359 -1.2653,1.52456 -22.22479,12.06681 -28.82422,14.49805 -4.3227,1.59249 -7.42874,2.54368 -10.46093,3.15429 a 55,55 0 0 1 -1.95313,1.57618 c 0.76851,-0.14026 1.56791,-0.26798 2.31055,-0.41602 6.2537,-1.24667 11.65795,-2.08848 12.00977,-1.87109 0.8663,0.53543 7.23762,-2.24807 11.73632,-5.12696 1.96263,-1.25598 3.25929,-1.87432 3.77539,-1.9082 0.66356,-0.0435 0.0366,0.87995 -2.12304,2.66016 -8.5075,7.01257 -22.39672,12.67472 -37.97852,15.48047 -3.32054,0.59789 -8.89638,1.25239 -14.56055,1.79296 a 55,55 0 0 1 -8.19336,0.68555 c -5.795,0.42155 -10.4289,0.60432 -10.76367,0.26953 -0.2336,-0.23359 0.75617,-0.4305 2.19727,-0.4375 0.58356,-0.003 1.4357,-0.0628 2.39453,-0.14844 a 55,55 0 0 1 -11.38086,-2.48632 c -5.40073,0.56394 -9.85348,1.19915 -13.45898,1.92578 -4.0836,0.82296 -8.05106,1.69287 -8.81836,1.93359 -1.2735,0.39963 -1.2834,0.36355 -0.0937,-0.4043 1.97561,-1.27527 10.77881,-4.05338 17.17773,-5.47265 a 55,55 0 0 1 -5.88867,-3.09766 c -0.54947,-0.002 -0.76927,-0.15556 -0.67969,-0.41601 a 55,55 0 0 1 -3.67578,-2.49024 c -4.38253,2.31982 -8.46314,4.96165 -12.45312,8.03906 -8.7844,6.77519 -24.44792,15.10656 -34.51172,18.35743 -8.1413,2.62989 -20.79446,3.39444 -25.69336,1.55273 -1.6872,-0.6343 -5.13899,-1.51875 -7.66992,-1.9668 -7.45629,-1.31999 -11.70602,-2.99099 -13.72852,-5.39453 -1.9488,-2.31604 -3.18189,-5.15209 -2.52539,-5.80858 0.206,-0.20603 2.66755,1.19547 5.46875,3.11327 7.3095,5.00426 14.036,6.88581 24.5918,6.88281 9.4475,-0.003 16.23545,-1.42715 23.84765,-5.00586 2.5718,-1.20904 5.07907,-2.19922 5.57227,-2.19922 0.4932,0 4.94698,-2.73594 9.89648,-6.08007 8.05591,-5.44292 16.01453,-10.09156 23.97071,-14.03321 a 55,55 0 0 1 -3.29102,-3.06445 c -9.81229,4.71885 -19.60503,10.2813 -28.82617,16.47656 -7.5984,5.10507 -13.88503,7.90448 -20.97656,9.33985 -6.42439,1.30034 -10.62093,1.39707 -15.89063,0.36329 -5.9274,-1.16282 -5.53554,-2.23439 0.81836,-2.23439 11.7987,0 21.37211,-3.79766 38.57031,-15.29883 9.67253,-6.46848 16.76896,-10.62486 22.36133,-13.09961 a 55,55 0 0 1 -3.27539,-4.62889 c -0.68351,0.37926 -1.52592,0.81497 -2.72266,1.375 -6.1549,2.8802 -13.07926,7.48385 -19.76171,13.14061 -7.5324,6.37617 -18.20657,13.00667 -23.66407,14.69923 -5.2541,1.62942 -9.70593,2.00019 -8.92969,0.74414 0.26061,-0.42181 0.88442,-0.76716 1.38672,-0.76759 2.5164,-0.002 11.47838,-5.29547 20.42188,-12.0625 10.1792,-7.7019 14.13668,-10.00948 26.70898,-15.58397 2.62047,-1.16189 4.66903,-1.92504 6.0918,-2.36133 a 55,55 0 0 1 -4.07812,-8.0625 c -1.71684,0.71847 -3.27418,1.30378 -4.51563,1.65625 -2.5309,0.71857 -6.15455,2.23054 -8.05273,3.36133 -18.20072,10.84271 -48.49032,14.45009 -71.63282,8.53125 -5.3867,-1.37771 -10.73212,-1.38985 -11.57422,-0.0273 -0.1874,0.30324 2.61969,0.76023 6.23829,1.01562 11.81291,0.83364 15.27799,4.29897 9.65039,9.65235 -3.7991,3.61396 -7.90559,5.55035 -20.80078,9.80078 -11.6276,3.83256 -23.06877,5.86884 -28.98047,5.16015 -3.7202,-0.44597 -3.94962,-0.37629 -3.57032,1.07422 0.539,2.06113 -1.01657,2.81618 -8.86328,4.30468 -8.69126,1.64871 -23.86051,1.5121 -32.29101,-0.29101 -11.37752,-2.43342 -25.82806,-8.89606 -36.91407,-16.50976 -5.75077,-3.94959 -5.99764,-4.03612 -13.87695,-4.86719 -9.15817,-0.96596 -13.09999,-2.42253 -18.8164,-6.95117 -8.28968,-6.56728 -12.15922,-16.14183 -11.50196,-28.45508 0.37583,-7.04098 5.82681,-22.19348 12.14649,-35.16992 a 55,55 0 0 1 -2.66407,0.0957 55,55 0 0 1 -3.93359,-0.19726 c -1.64778,2.2487 -3.56374,4.49942 -5.72266,6.67382 -6.13447,6.17844 -11.91668,10.15615 -21.00781,14.45313 -9.86314,4.66187 -16.97846,6.5162 -26.9375,7.01562 -7.13749,0.35795 -9.36407,0.16922 -14.4375,-1.22265 -6.81608,-1.86997 -10.43643,-3.57431 -17.00586,-8.00781 -7.85623,-5.30192 -13.37947,-11.082 -15.8789,-16.61719 -2.27424,-5.03648 -4.11562,-7.67188 -5.36329,-7.67188 -1.11803,0 6.82937,14.80099 9.83008,18.30664 1.52618,1.783 2.60189,3.41373 2.39063,3.625 -0.79152,0.79153 -4.58249,-0.72899 -9.10547,-3.65234 -6.64326,-4.29375 -6.47474,-3.07064 0.23242,1.6875 5.70064,4.04411 13.94776,8.40743 15.89063,8.4082 0.585,3.3e-4 3.86293,1.35978 7.28515,3.01953 3.42222,1.65977 8.54314,3.59803 11.37891,4.30664 7.62462,1.90531 8.45546,3.98924 2.76172,6.9336 -1.19072,0.61574 -2.16602,1.49251 -2.16602,1.94922 0,1.64596 4.23118,-0.24995 8.67188,-3.88672 4.35966,-3.57039 4.63684,-3.67635 10.82812,-4.11328 4.86992,-0.34367 9.72485,-1.54632 20.78125,-5.14649 15.63226,-5.09015 18.03011,-5.31738 17.97461,-1.70507 -0.0415,2.70186 -2.12563,6.54456 -4.59961,8.48046 -2.69329,2.10749 -13.35363,7.35156 -18.02148,8.86524 -2.12415,0.68883 -6.43744,1.7678 -9.58594,2.39648 -11.06237,2.20892 -31.15448,2.03408 -42.38281,-0.36914 -2.02437,-0.43328 -5.64808,-0.79478 -8.05274,-0.80078 -12.38533,-0.0321 -25.7046,-6.78469 -32.28711,-16.36914 -2.77287,-4.03742 -10.20578,-22.63982 -12.45312,-31.16797 -3.51435,-13.33611 -2.00536,-25.91524 3.97851,-33.16992 3.16642,-3.83888 4.80453,-3.71029 6.93164,0.54883 2.26902,4.54327 5.316,8.12645 8.47266,9.95898 l 2.57813,1.4961 -1.33204,-1.88086 c -5.53738,-7.81538 -9.78906,-18.10137 -9.78906,-23.6836 0,-6.77128 4.98176,-16.05443 11.86719,-22.11523 2.63174,-2.31655 4.25028,-3.48924 5.9375,-3.5625 1.68722,-0.0733 3.44432,0.95138 6.35352,3.02734 5.75589,4.10732 22.48408,10.31922 27.80273,10.32422 4.66726,0.004 4.23641,1.80909 -2.20117,9.22852 -2.02433,2.33308 -4.21761,5.52701 -4.87305,7.0957 -0.93118,2.22863 -1.61683,2.85156 -3.13672,2.85156 -2.68122,0 -6.01322,-1.85016 -10.1289,-5.625 -2.14652,-1.96874 -3.14774,-2.5607 -2.60938,-1.54297 0.48044,0.90824 4.15571,4.71223 8.16797,8.45313 6.81817,6.35708 7.37163,7.09958 8.46875,11.38476 2.92311,11.41716 10.30585,22.40863 19.25781,28.67188 l 3.73438,2.61328 -3.16797,-3.37891 c -7.67359,-8.18499 -12.24103,-15.98945 -14.83594,-25.35351 -2.81459,-10.15677 -1.70708,-20.33538 2.73047,-25.10742 l 2.57617,-2.76953 3.15235,3.64648 c 4.57863,5.29688 11.12612,10.11793 18.06835,13.65625 a 55,55 0 0 1 -0.61914,-2.64063 c -4.91314,-2.62081 -10.24301,-6.91315 -12.89648,-10.57617 -2.08451,-2.87758 -2.29297,-3.71585 -2.29297,-9.21093 0,-6.64946 1.06892,-10.02669 4.03711,-12.76172 l 1.93359,-1.78321 1.13868,1.62696 c 1.03273,1.47444 1.10067,0.97878 0.74218,-5.3086 -0.30617,-5.36976 -0.10578,-7.69098 0.88868,-10.29492 2.24004,-5.86544 1.2468,-5.57948 24.79882,-7.12695 0.39337,-0.0258 0.73219,-0.0316 1.10742,-0.0508 a 55,55 0 0 1 6.66602,-4.4375 c -0.0902,0.0195 -0.17801,0.0434 -0.26953,0.0605 -1.56356,0.29332 -8.24615,0.35668 -14.84961,0.14063 -9.31209,-0.30466 -13.12377,-0.75431 -16.99023,-2.00586 -2.74177,-0.88751 -5.15823,-1.61405 -5.36915,-1.61328 -0.21088,8.3e-4 0.98181,1.15682 2.6504,2.56836 l 3.0332,2.5664 -2.00781,2.38867 c -2.44186,2.902 -3.31875,5.55403 -4.47461,13.54688 -1.04325,7.21413 -2.36565,10.72022 -5.13672,13.61328 -1.87803,1.96072 -2.42809,2.10101 -7.82031,2.00391 -6.83577,-0.12309 -8.3753,-0.34711 -13.47071,-1.96094 -8.74714,-2.7704 -15.15718,-7.26389 -19.62109,-13.75195 -2.05644,-2.98894 -2.23642,-3.79224 -2.23242,-10.01368 0.005,-8.49027 1.01083,-12.1495 4.21679,-15.35546 3.1373,-3.13731 7.04638,-3.54995 7.60352,-0.80274 0.19248,0.94908 0.53725,2.58805 0.76562,3.64258 0.22838,1.05453 1.25749,2.95331 2.28711,4.21875 l 1.87305,2.30078 -0.0449,-10.77148 c -0.0377,-9.15639 0.18593,-11.28876 1.48633,-14.22852 2.28126,-5.15716 9.85551,-10.5054 15.05273,-10.62891 0.77938,-0.0185 4.33284,1.38884 7.89453,3.12891 3.5617,1.74007 6.63811,3.00056 6.83789,2.80078 0.19979,-0.19979 -1.45296,-1.58036 -3.67382,-3.06836 -6.12029,-4.10061 -13.40226,-11.89227 -15.9668,-17.08398 -1.25018,-2.53088 -2.55788,-6.67225 -2.9043,-9.20313 -0.61407,-4.48623 -0.6435,-4.53347 -1.20312,-1.85937 -0.3916,1.87121 -0.0681,4.87761 1.01953,9.45703 3.14724,13.25154 1.76051,16.23879 -8.75781,18.84961 -7.34684,1.82359 -11.3757,1.94853 -12.92188,0.40234 -2.07094,-2.07093 -2.99842,-6.51534 -2.64258,-12.66211 0.27607,-4.76909 0.87515,-7.04727 3.05274,-11.5957 3.19082,-6.66482 4.77387,-8.47218 11.2832,-12.89258 9.35923,-6.35573 19.0574,-8.904 26.67773,-7.01172 2.30436,0.57222 7.29912,3.32317 13.2793,7.31446 12.40858,8.28172 15.2801,9.65846 21.39844,10.26367 5.04034,0.49858 5.06019,0.51142 4.92773,2.80273 -0.0732,1.26544 -0.37997,5.95204 -0.68359,10.41602 -0.3754,5.51935 -0.2796,8.58803 0.30078,9.58789 0.74612,1.28542 0.85832,1.13186 0.88672,-1.21484 0.0491,-4.06612 1.70358,-9.5181 6.46484,-21.30469 3.05024,-7.55091 4.46219,-12.19008 4.79297,-15.73242 0.67251,-7.20175 -0.40523,-9.14831 -1.69336,-3.05664 -1.44245,6.82143 -4.71997,13.77622 -6.74804,14.32031 -3.27007,0.87727 -12.02687,0.4395 -15.62305,-0.78125 -8.04403,-2.7306 -13.59189,-8.43822 -14.47656,-14.89258 -1.05092,-7.6672 2.24645,-12.85406 12.62109,-19.84961 3.64209,-2.45583 9.04279,-6.49413 12.00195,-8.97266 12.30693,-10.30816 24.02508,-16.01492 40.33985,-19.42968 a 55,55 0 0 1 0.33398,-4.55664 c -18.34749,3.64094 -33.47582,11.35192 -46.68555,23.67187 -2.60534,2.42985 -5.59975,4.67462 -6.65429,4.98828 -8.00356,2.38063 -18.40625,13.97256 -18.40625,20.50977 0,1.48689 -0.29132,1.54111 -5.54493,1.02344 -3.04975,-0.30051 -5.81003,-0.71142 -6.13476,-0.91211 -1.13158,-0.69935 -0.54646,-6.8178 0.97266,-10.16602 4.61736,-10.17689 9.10424,-15.02758 21.82812,-23.60547 8.51371,-5.73958 19.12604,-10.25007 26.83594,-11.40625 3.88837,-0.58309 4.68535,-1.8789 1.15625,-1.8789 -2.85216,0 -2.8626,-0.5268 -0.0977,-4.34375 2.45913,-3.39472 6.13643,-5.87729 17.28321,-11.66407 7.89137,-4.09676 14.13178,-6.13338 22.29882,-6.94336 a 55,55 0 0 1 3.5293,-5.375 c -3.9931,0.46101 -9.08154,1.41712 -11.61328,2.20508 -2.65451,0.82619 -5.12564,1.31713 -5.49024,1.0918 -0.90927,-0.56198 0.003,-3.26686 2.03516,-6.03125 4.51301,-6.1408 1.62089,-4.89253 -3.93164,1.69726 -6.98467,8.28946 -10.71641,11.60596 -13.69141,12.16407 -1.71516,0.32177 -4.58971,2.00626 -7.36328,4.31445 -6.15103,5.11894 -16.45983,11.99621 -29.62304,19.76367 -6.0189,3.55168 -12.84066,8.14946 -15.16016,10.2168 -8.2046,7.31262 -14.89102,19.34905 -14.91992,26.86133 -0.005,1.18772 -0.36413,2.82683 -0.80078,3.64257 -0.43665,0.8159 -1.46636,1.48438 -2.28711,1.48438 -1.44437,0 -1.59557,-0.31958 -2.62891,-5.56055 -0.18713,-0.94908 0.11065,-5.60533 0.66016,-10.34765 0.79607,-6.87004 1.50067,-9.64473 3.47265,-13.65039 3.25067,-6.60305 10.41675,-15.42341 17.20703,-21.18164 8.65668,-7.34094 24.15577,-17.23338 32.33789,-20.63868 4.09016,-1.70228 12.93792,-5.66505 19.66016,-8.80664 22.32104,-10.43162 36.75012,-15.77908 51.51172,-19.08984 8.4529,-1.89583 9.13793,-2.20207 15.2207,-6.77149 7.71219,-5.79349 15.82564,-9.63799 22.2793,-10.56054 9.36424,-1.33862 18.98633,1.15315 18.98633,4.91797 0,2.53068 -4.20372,8.02318 -6.60156,8.625 -1.13568,0.28504 -4.47671,-0.10669 -7.65625,-0.89844 -3.10247,-0.77257 -5.90736,-1.13759 -6.23438,-0.81055 -0.84907,0.84911 2.04662,2.77149 4.17578,2.77149 3.23522,0 7.0823,2.11394 7.9375,4.36328 0.35992,0.94665 0.48506,2.08179 0.41016,3.32031 a 55,55 0 0 1 11.02539,6.95703 c 5.74283,-5.37936 9.10573,-7.15325 18.03515,-10.52344 2.5309,-0.95523 4.08388,-1.74937 3.45118,-1.76367 -2.788,-0.0628 -17.06281,2.29416 -18.47657,3.05078 -2.06113,1.10307 -3.76562,-0.27508 -3.76562,-3.04687 0,-6.10418 7.88214,-15.29488 16.70117,-19.47266 l 5.1582,-2.4414 z m 121.20704,6.84375 c 3.50819,-0.2093 19.57465,5.77165 25.64843,9.69726 2.5655,1.65817 5.0533,3.01563 5.5293,3.01563 1.6765,0 7.51953,3.91215 7.51953,5.03515 0,0.62538 -0.8848,1.47339 -1.9668,1.88477 -1.082,0.41136 -2.20328,0.70911 -2.49218,0.66014 -4.5169,-0.76502 -17.2289,-5.33078 -22.45703,-8.06639 -6.70118,-3.50648 -14.2324,-10.91056 -12.3086,-12.09961 0.11556,-0.0714 0.29344,-0.113 0.52735,-0.12695 z m -211.11524,0.32812 c 1.34574,-0.007 2.09375,0.28544 2.09375,0.92969 0,1.22746 -1.52765,3.95074 -3.31836,5.916 -1.49299,1.6385 -39.56679,20.87697 -41.3164,20.87697 -1.2069,0 -0.1217,-4.36295 1.73242,-6.9668 0.87585,-1.22994 1.2706,-2.23634 0.87695,-2.23634 -1.45489,0 -4.88084,3.33258 -7.75976,7.54884 -3.97651,5.82366 -5.82223,7.35275 -10.80274,8.95116 -4.61712,1.48179 -13.10078,5.5591 -17.98242,8.64259 -1.70973,1.07994 -4.74834,2.93128 -6.75195,4.11328 l -3.64258,2.14843 0,-2.84569 c 0,-2.51333 0.6083,-3.43176 5.20117,-7.84181 6.65306,-6.38822 17.73182,-13.78452 30.8457,-20.59569 18.83294,-9.78156 43.55723,-18.60044 50.82422,-18.64063 z m 225.00781,20.81836 c 4.93913,-0.0504 10.12568,1.51571 19.05274,5.11328 25.2148,10.16144 41.03125,22.62162 41.03125,32.32616 0,2.69035 0.24755,2.63292 -6.90235,1.64453 -2.3199,-0.32071 -7.01454,-0.61844 -10.43164,-0.66014 -3.417,-0.0417 -7.38446,-0.46722 -8.81836,-0.94727 -3.5167,-1.17746 -7.36155,-4.1241 -8.66796,-6.64454 -0.78109,-1.50685 -3.75154,-3.40558 -10.92774,-6.98046 -11.4003,-5.67924 -19.76779,-8.70258 -28.77539,-10.39844 -6.9985,-1.31759 -8.30469,-2.30424 -8.30469,-6.26562 0,-2.38628 0.15228,-2.51198 3.64258,-3.01563 2.0036,-0.28913 6.37971,-1.37939 9.72461,-2.42383 3.5397,-1.1053 6.41348,-1.71782 9.37695,-1.74804 z m 31.83594,1.30664 c 3.84947,-0.16404 12.3794,1.63509 19.02735,4.32031 7.7871,3.14534 22.16433,13.71513 24.45703,17.98046 2.9592,5.50516 2.7023,9.5483 -0.7168,11.31642 -3.9551,2.04523 -5.41015,1.31335 -8.62305,-4.3418 -4.2589,-7.49625 -11.75733,-13.77499 -25.83594,-21.62891 -5.6945,-3.17672 -10.35546,-6.2301 -10.35546,-6.7871 0,-0.53101 0.76371,-0.80471 2.04687,-0.85938 z m -224.20312,8.17188 a 45,45 0 0 0 -45,45 45,45 0 0 0 45,45 45,45 0 0 0 44.19726,-36.68946 c 0.0283,-0.3404 0.0908,-0.67415 0.18945,-1.00196 a 45,45 0 0 0 0.61329,-7.30858 45,45 0 0 0 -45,-45 z m 169.6914,7.40429 c 11.9232,-0.0148 22.44687,3.31266 37.57617,11.87891 8.1477,4.61331 10.67188,6.7333 10.67188,8.96484 0,1.56889 0.18627,1.50261 -4.98633,1.75196 -2.1091,0.10167 -5.97983,1.09617 -8.60351,2.21093 -5.9922,2.54608 -9.75233,2.60133 -13.29883,0.1914 -5.5956,-3.8023 -21.13764,-3.15834 -33.18164,1.375 -6.7581,2.54376 -14.79294,7.59832 -21.14844,13.30665 -2.9352,2.63633 -5.56902,4.79492 -5.85352,4.79492 -0.2844,0 -2.83943,-2.3305 -5.67773,-5.17773 -4.9913,-5.0068 -7.71875,-10.00668 -7.71875,-14.15039 0,-2.02534 5.77402,-8.04877 10.91992,-11.39258 4.511,-2.93118 23.25163,-10.83602 30.11133,-12.70117 2.1091,-0.57345 7.14435,-1.04774 11.18945,-1.05274 z m -169.6914,8.34571 a 29.25,29.25 0 0 1 29.25,29.25 29.25,29.25 0 0 1 -29.25,29.25 29.25,29.25 0 0 1 -29.25,-29.25 29.25,29.25 0 0 1 29.25,-29.25 z m -126.53711,3.44335 c 0.14609,-0.0134 0.2818,-0.0109 0.4082,0.008 0.84269,0.12311 1.25,0.9559 1.25,2.51757 0,2.59208 -13.20673,15.76112 -28.55469,28.47266 -6.21373,5.14635 -11.51329,9.35546 -11.77734,9.35546 -1.98244,0 6.31899,-11.7097 13.62305,-19.2168 6.7947,-6.98361 20.5671,-19.06769 23.46484,-20.58789 0.61971,-0.3251 1.14764,-0.50865 1.58594,-0.54882 z m 401.78125,9.73046 c 2.0693,-0.0233 4.65797,0.43297 6.73437,1.38087 3.5647,1.62732 12.88981,7.65067 15.82031,10.21875 3.0614,2.68297 9.85815,11.12593 13.55665,16.8418 3.73838,5.77728 10.25069,19.75379 9.65429,20.71875 -1.0606,1.71614 -7.05297,-0.0455 -10.54687,-3.10157 -0.7835,-0.68536 -3.77409,-5.21557 -6.64649,-10.0664 -4.4256,-7.474 -6.66644,-10.24709 -14.68164,-18.17384 -5.2022,-5.14471 -11.26987,-10.7817 -13.48437,-12.52734 -2.2145,-1.74563 -4.02539,-3.45412 -4.02539,-3.79492 0,-0.97127 1.54984,-1.4728 3.61914,-1.4961 z m -331.23828,23.36134 -1.05469,1.90625 c -0.62666,1.13204 -1.06398,4.27247 -1.08008,7.73827 l -0.0273,5.834 -5.41797,0.50389 c -2.97918,0.27689 -6.68883,1.08821 -8.24414,1.8047 l -2.82813,1.30274 8.47266,0.41405 c 6.15863,0.30028 9.01821,0.77169 10.4707,1.72462 3.04227,1.99584 11.94288,14.27549 13.66211,18.84961 0.83833,2.23033 1.52344,5.34173 1.52344,6.91405 0,0.0987 -0.005,0.17317 -0.006,0.26563 0.0861,-0.10108 0.1761,-0.21156 0.26953,-0.32617 0.003,-0.009 0.0129,-0.0244 0.0156,-0.0332 1.31106,-4.24091 0.85924,-2.8655 1.65626,-8.36523 0.11806,-0.81473 0.27977,-1.56847 0.47265,-2.26954 -0.19177,-0.34648 -0.36314,-0.64477 -0.5625,-1.00781 -1.62137,-2.95269 -4.91869,-7.48967 -7.32617,-10.08203 -6.30211,-6.786 -7.61889,-9.84503 -9.52148,-22.11719 l -0.47461,-3.05664 z m -96.97461,7.44727 c 1.5935,-0.12102 2.09538,1.32459 0.55078,4.81639 -1.31916,2.98217 -1.60547,5.16772 -1.60547,12.24806 0,10.00306 -0.93999,12.02825 -6.24609,13.45703 -1.70804,0.45993 -4.60667,2.22664 -6.46485,3.93945 l -3.36719,3.10352 -0.85156,-2.19336 c -1.87578,-4.83412 0.81631,-16.86886 5.35352,-23.93556 4.28956,-6.68092 9.97501,-11.23384 12.63086,-11.43554 z m 319.92187,6.87303 c -0.0262,-0.003 -0.0481,0.005 -0.0664,0.0234 -0.23219,0.23218 0.12081,1.71951 0.78321,3.30468 0.6623,1.58519 1.94401,6.36662 2.84961,10.62695 1.50518,7.081 2.04018,16.40648 1.69336,26.6465 1.1698,1.18398 2.29371,2.40697 3.30273,3.71092 0.5331,0.16878 1.15966,0.41237 1.48438,0.75392 0.21681,0.0783 0.4382,0.15976 0.69531,0.27343 0.002,-0.009 0.002,-0.0143 0.004,-0.0234 0.54611,-3.21908 4.63765,-6.57154 10.12305,-8.29688 10.4209,-3.27779 25.861,1.35044 29.7793,8.92774 2.2766,4.40233 1.89833,4.63889 -6.4707,4.0625 -12.499,-0.86087 -17.72642,1.08303 -6.26172,2.32812 6.0293,0.65481 9.28154,1.95161 13.43554,5.35546 3.3627,2.75548 9.04277,10.69074 11.97657,16.73438 1.8251,3.75976 3.52959,4.96499 2.71289,1.91797 -0.2543,-0.94908 -0.46266,-2.46973 -0.47266,-3.37891 -0.006,-0.90916 -1.20607,-3.08416 -2.66797,-4.83398 -2.7621,-3.30605 -4.12449,-7.06396 -6.17969,-17.04297 -0.6673,-3.23967 -1.98115,-7.02593 -2.91796,-8.41602 -2.3448,-3.47935 -8.56553,-8.04121 -13.16993,-9.65625 -5.5474,-1.94581 -19.0137,-1.74834 -25.5,0.375 -2.6363,0.86302 -4.79687,1.34635 -4.79687,1.07422 -0.0119,-1.92615 -2.59237,-15.8534 -3.57227,-19.2832 -1.42212,-4.97777 -5.95115,-15.08754 -6.76367,-15.1836 z m 110.42188,2.31642 c -0.39606,0.0388 -0.95639,3.14666 -1.55274,8.64843 -1.4735,13.5932 -7.51243,29.83914 -14.49023,38.98048 -1.5101,1.9784 -2.7461,3.74826 -2.7461,3.93359 0,0.1853 1.02109,-0.018 2.26954,-0.45312 2.68349,-0.93548 6.70441,-5.21146 10.54101,-11.20899 4.8871,-7.6398 8.76731,-26.58217 7.19141,-35.10743 -0.4522,-2.44597 -0.96237,-4.58738 -1.13477,-4.75977 -0.0249,-0.0249 -0.0517,-0.0358 -0.0781,-0.0332 z m -224.25586,0.27734 c -0.96045,1.10824 -2.07189,2.28237 -3.41211,3.64258 -5.97042,6.05953 -9.37612,11.03 -19.14063,27.92187 -1.76548,3.05418 -3.40154,5.5546 -3.63476,5.5586 -1.69055,0.0288 -7.05995,-5.26696 -8.72266,-8.60351 -3.13874,-6.29863 -2.28546,-2.81381 1.02539,4.1875 7.18079,15.18482 9.92526,30.53278 10.11524,56.57616 l 0.0801,11.11914 2.34766,-7.28515 c 1.29075,-4.00723 2.41269,-7.37737 2.49219,-7.49024 0.0795,-0.11285 1.75416,1.4046 3.72265,3.37305 1.96848,1.96845 3.73738,3.42089 3.93164,3.22657 0.19434,-0.19433 -1.21456,-3.95632 -3.13281,-8.35938 -5.67415,-13.02433 -7.45621,-20.24077 -7.05664,-28.57812 0.38324,-7.99636 1.7079,-11.88131 9.20313,-26.96875 5.47099,-11.01287 10.79224,-18.41318 16.89062,-23.48828 0.75814,-0.63093 1.39502,-1.12895 2.05469,-1.65235 -0.48609,-0.19326 -1.20603,-0.50485 -3.47656,-1.42773 -1.28144,-0.52085 -2.36918,-1.11396 -3.28711,-1.75195 z m 261.79297,12.70704 c 0.73661,-0.055 1.83928,-10e-4 3.30273,0.1621 8.3766,0.93371 19.07262,7.44979 25.01172,15.23633 2.2873,2.99879 11.54584,22.86683 12.33594,26.47265 0.4952,2.25985 0.37946,2.4907 -1.24024,2.4629 -4.9673,-0.0854 -9.23181,-4.08813 -17.13281,-16.07618 -4.4556,-6.76048 -8.83436,-12.14451 -14.85156,-18.26562 -4.693,-4.77402 -8.53321,-9.04874 -8.53321,-9.5 0,-0.27228 0.3708,-0.43725 1.10743,-0.49218 z m -192.64063,2.2246 c -1.50382,1.97005 -3.0037,3.94277 -4.50586,5.91407 0.46875,-0.31436 0.92954,-0.64375 1.38672,-0.98048 0.81512,-1.5474 2.41014,-3.15544 4.11523,-4.58788 -0.32567,-0.12606 -0.65827,-0.24067 -0.99609,-0.3457 z m -298.85156,2.23438 c 0.73201,-0.0431 1.12374,0.34456 0.7793,1.24218 -1.19215,3.1067 -1.34685,7.85542 -0.51758,15.82226 0.79021,7.59168 0.74256,9.16998 -0.37891,12.87111 -1.4218,4.69232 -1.50845,9.79485 -0.23242,13.70312 0.99454,3.04611 0.48254,3.55936 -4.2793,4.27343 -1.73665,0.26044 -4.27719,1.15481 -5.64453,1.98634 -1.36735,0.83152 -2.66839,1.51172 -2.89062,1.51172 -0.82846,0 -2.49359,-5.12543 -2.99024,-9.20313 -0.65349,-5.36545 0.92217,-13.11157 4.98047,-24.48828 3.64064,-10.20589 4.88035,-12.78195 7.50195,-15.58398 1.22668,-1.3111 2.73072,-2.0794 3.67188,-2.13477 z m 292.96875,3.26953 c -3.08737,3.2677 -7.47378,7.14682 -13.87305,12.47852 -8.4006,6.99913 -9.02103,7.69012 -7.11133,7.91014 3.1626,0.36439 4.89833,3.1821 5.42383,8.80861 0.2525,2.70461 1.4902,9.02215 2.75,14.03905 1.2599,5.01692 2.39865,11.14938 2.53125,13.62892 l 0.24024,4.50976 -3.06641,1.1289 c -1.6873,0.62138 -9.48312,3.30833 -17.32422,5.97071 -9.1706,3.11376 -18.47357,6.95643 -26.07617,10.76953 -15.18542,7.61615 -30.30697,14.14452 -32.75977,14.14452 -4.25348,0 -8.21296,-6.48065 -13.54883,-22.17382 -4.25333,-12.50941 -3.36978,-4.66705 1.04883,9.31055 4.56938,14.45428 4.79263,20.85751 0.82813,23.64649 -3.96374,2.78843 -9.759,2.30462 -13.90235,-1.16212 -6.66564,-5.57713 -12.02651,-15.47283 -13.75195,-25.38086 -0.47967,-2.75457 -0.67892,-6.59589 -0.6289,-11.125 -1.225,0.81689 -2.25845,1.36232 -3.12891,1.68164 0.37878,9.31703 1.20387,13.53849 3.06055,19.06836 1.90107,5.66217 4.56884,10.28745 8.77148,15.20899 4.72552,5.53386 4.6795,8.77744 -0.51758,11.97461 a 55,55 0 0 1 0.41992,6.21875 55,55 0 0 1 -0.25976,5.23047 c 43.33605,-26.47375 86.91497,-46.81846 113.27344,-52.79493 12.15309,-2.75556 15.15323,-2.60751 23.30273,1.14649 10.2928,4.74137 14.76842,4.78191 35.23242,0.33008 4.4609,-0.97046 7.73011,-1.13378 14.57031,-0.73047 5.9583,0.3513 8.57074,0.26756 8.05274,-0.25782 -1.1611,-1.17724 -10.13363,-4.01216 -14.23633,-4.49804 -1.9949,-0.23629 -4.035,-0.68236 -4.5332,-0.99024 -0.6244,-0.38591 0.3702,-8.37983 3.3457,-26.69922 -1.4383,-0.91239 -2.78873,-1.90693 -4.10351,-3.01366 -0.72356,5.29906 -1.63944,10.61778 -2.76172,15.80859 -2.1036,9.72929 -3.04803,11.69505 -6.70313,13.93164 -2.2001,1.34628 -3.3928,1.45376 -11.6543,1.04883 -17.4768,-0.8566 -26.35336,-3.85007 -32.85546,-11.08204 -2.68299,-2.98415 -3.94501,-5.27446 -5.16211,-9.36132 -1.8827,-6.32183 -6.04441,-26.84977 -6.06641,-29.92773 -0.0165,-2.27131 0.14899,-2.44637 7.55859,-7.94922 2.77062,-2.05764 5.19756,-4.2055 7.36328,-6.55664 -0.1077,-0.20813 -0.21467,-0.41117 -0.32812,-0.625 -0.13259,-0.12656 -0.24988,-0.23124 -0.38477,-0.36134 -0.50891,-0.49082 -0.76877,-1.03902 -0.83203,-1.625 -0.0587,0.0428 -0.11694,0.0968 -0.17578,0.13673 -0.24262,0.16478 -0.49843,-0.59545 -0.3125,-0.82227 0.002,-0.002 0.004,-0.004 0.006,-0.006 -0.25367,-0.18397 -0.61669,-0.44662 -0.65625,-0.46678 -0.35202,-0.17948 -0.70937,-0.34795 -1.06445,-0.52149 z M 265.0555,562.14964 c -0.99233,0.71615 -2.38836,1.59351 -4.49414,2.88671 -19.85193,12.1915 -23.75399,16.15587 -28.57227,29.01954 -1.92678,5.14405 -4.56658,17.09268 -4.58398,20.74803 -0.008,1.67897 -0.75009,3.23608 -1.99219,4.44727 a 55,55 0 0 1 7.54688,-2.8789 c 0.0857,-5.2759 0.68824,-10.82075 1.71094,-14.83203 1.72911,-6.78198 6.70398,-16.37399 10.59765,-20.4336 3.95529,-4.12387 9.72771,-7.96179 17.75781,-11.83985 0.39207,-1.08614 0.85957,-2.1476 1.16993,-3.26953 0.35016,-1.26582 0.42997,-2.60991 0.85937,-3.84764 z m 164.32227,1.62694 c -0.79021,0.1599 0.32678,1.3945 2.86718,2.82227 1.7318,0.97338 4.3175,2.7945 5.7461,4.04882 3.8856,3.41165 9.63679,12.48135 12.21289,19.25587 l 2.2832,6 0.43945,-3.15235 c 0.24131,-1.73457 1.00382,-3.72065 1.69532,-4.41211 1.1649,-1.16496 1.5676,-1.15112 5.5,0.18556 3.0351,1.03166 4.48066,1.20678 5.07226,0.61523 0.5916,-0.59158 0.20876,-0.98064 -1.33984,-1.3672 -3.5895,-0.89602 -7.09094,-3.44904 -16.67774,-12.15819 -8.54189,-7.75987 -12.11606,-10.29661 -16.35546,-11.60743 -0.70513,-0.21801 -1.17996,-0.28377 -1.44336,-0.23047 z m 51.94726,5.36133 c -0.0372,0.0698 -0.0797,0.13737 -0.11718,0.20703 0.0113,0.0149 0.0219,0.0301 0.0332,0.0449 0.0263,-0.0843 0.0584,-0.16757 0.084,-0.25196 z m -185.1582,18.69336 c -0.83752,0.95265 -1.88384,2.14752 -2.07617,2.40625 -0.29359,0.39493 0.84054,-0.54018 1.1582,-0.91601 0.32503,-0.38455 0.70518,-0.79362 0.85938,-1.26563 -0.15451,0.17198 -0.17515,0.19152 -0.36133,0.40235 0.24887,-0.2943 0.18931,-0.23193 0.375,-0.45313 0.0164,-0.0573 0.0364,-0.11441 0.0449,-0.17383 z m 369.66797,4.92968 c 0.29363,-0.0185 0.74814,0.11174 1.35351,0.26368 5.382,1.35081 8.57428,5.69716 11.08008,15.08985 0.8523,3.19452 1.8643,6.64633 2.25,7.66991 1.5898,4.21927 2.58686,12.56991 1.75586,14.70703 -0.9449,2.42997 -3.10813,2.77158 -4.86523,0.76759 -2.2908,-2.6127 -3.49504,-6.05656 -5.52344,-15.79493 -1.1283,-5.41764 -2.91957,-12.14738 -3.98047,-14.95507 -2.3745,-6.28421 -2.95121,-7.69242 -2.07031,-7.74806 z m -556.40039,2.46485 c 1.10405,-0.0342 1.88841,1.02467 2.26172,3.2461 0.43269,2.57477 0.16475,3.6229 -1.66602,6.51952 -5.13207,8.11995 -7.27307,16.36136 -8.11328,31.22852 -0.49342,8.73091 -0.67278,9.53593 -2.65039,11.88477 l -2.12109,2.51954 -0.81055,-2.09961 c -1.64533,-4.26265 -2.44357,-14.8146 -1.65039,-21.81641 0.91791,-8.10299 2.4662,-13.5979 5.57617,-19.79883 3.79449,-7.56582 7.06608,-11.61828 9.17383,-11.6836 z m 31.0625,0.68164 c 2.79565,0.011 5.03868,0.50212 5.65039,1.46875 0.83961,1.32675 0.9191,6.8758 0.11719,8.13672 -0.31662,0.49786 -2.63991,1.98905 -5.16407,3.3125 -7.9688,4.17818 -10.68343,7.6366 -11.91015,15.17384 -0.92077,5.65746 -2.37493,6.95417 -12.125,10.8203 -4.36806,1.73205 -8.21094,3.15039 -8.53907,3.15039 -1.83469,0 -2.03579,-9.73911 -0.33789,-16.37891 1.18052,-4.6165 5.4444,-13.36461 7.81055,-16.02538 1.8225,-2.04944 9.9544,-6.36895 15.52734,-8.24805 2.82658,-0.95305 6.17505,-1.42119 8.97071,-1.41016 z m 155.37695,3.62306 c -0.0804,0.0811 -0.15441,0.14823 -0.23633,0.23241 -0.001,10e-4 -9.2e-4,0.003 -0.002,0.004 0.0699,0.002 0.14258,0.009 0.21289,0.0117 0.008,-0.0826 0.0174,-0.16531 0.0254,-0.24804 z m -48.05273,27.36913 a 47.5,47.5 0 0 0 -47.5,47.5 47.5,47.5 0 0 0 47.5,47.5 47.5,47.5 0 0 0 47.5,-47.5 47.5,47.5 0 0 0 -47.5,-47.5 z m 303.49023,0.78125 c -0.54039,-0.11207 -1.14723,1.35386 -1.77148,4.35742 -0.4588,2.20716 -1.64723,5.7674 -2.64063,7.91015 l -1.80469,3.89454 -1.70703,0.8457 c 0.58617,2.23329 0.58343,4.38845 1.42188,6.63867 0.0101,0.0796 0.0266,0.1569 0.0371,0.23633 1.90057,0.32867 4.44632,0.68911 7.07812,0.97266 8.6377,0.93064 12.91624,1.87148 16.17774,3.55664 2.3633,1.22104 2.81982,0.37389 0.76562,-1.41797 -2.5375,-2.21344 -4.57873,-2.83267 -11.66015,-3.54297 -5.33851,-0.53547 -7.46719,-1.08059 -8.58399,-2.19727 -1.4684,-1.46843 -1.45937,-1.53336 0.79883,-5.82617 2.5301,-4.80976 3.5748,-9.88975 2.7793,-13.51172 -0.26667,-1.21403 -0.5664,-1.84877 -0.89063,-1.91601 z m -422.08594,9.63087 c 0.19313,-0.0121 0.36593,-0.0122 0.51758,0 0.16176,0.013 0.29822,0.0398 0.4082,0.082 0.67068,0.25736 1.64797,1.76217 2.16993,3.34375 0.94012,2.84856 0.91966,2.89657 -2.03321,5.17969 -10.02265,7.74936 -15.87161,17.19597 -17.42773,28.14453 -0.85604,6.02286 -1.07564,6.53475 -3.50781,8.17382 -4.05035,2.72951 -5.79628,2.33153 -8.2793,-1.89257 -1.95303,-3.32248 -2.13679,-4.28472 -2.08789,-10.92968 0.0906,-12.32696 4.407,-19.92633 14.7832,-26.02736 5.21613,-3.06689 12.56021,-5.89318 15.45703,-6.07421 z m 338.3125,1.80858 -1.55664,1.91602 c -0.8565,1.05453 -3.67557,5.74451 -6.26367,10.42188 -6.2772,11.34456 -11.2123,17.91271 -15.6875,20.87695 -3.5856,2.37495 -3.93823,2.44726 -12.04883,2.44726 -4.5951,0 -14.97596,-0.55098 -23.06836,-1.22461 -9.9625,-0.82922 -18.368,-1.07224 -26.0332,-0.75 l -11.32031,0.47657 -0.84766,-1.85937 c -0.7115,-1.56143 -0.49529,-2.51557 1.34961,-5.93946 2.5153,-4.66819 10.6811,-13.67098 14.5918,-16.08789 1.4538,-0.89852 2.48205,-1.79521 2.28515,-1.99218 -0.5359,-0.53585 -2.94503,0.9112 -6.58593,3.95312 -4.2771,3.5734 -5.5987,3.47882 -7.40039,-0.52539 l -1.45899,-3.24219 -0.51172,5.15235 c -0.7908,7.97158 -2.4523,11.86709 -7.7539,18.18554 -8.82134,10.5132 -22.47225,20.64352 -45.48438,33.71289 0.80175,0.72732 1.54942,1.53416 2.22461,2.43946 0.11434,0.15331 0.21052,0.31812 0.31055,0.48047 0.2128,-0.006 0.46955,0.0421 0.69726,0.0605 12.48295,-7.2771 25.80489,-15.34318 32.1836,-19.54883 14.18116,-9.35009 22.49706,-12.29956 30.88086,-10.95117 5.8215,0.9363 7.36741,2.25036 10.88281,9.24219 3.9632,7.88229 10.93739,17.57825 11.92969,16.58594 0.2207,-0.22064 -0.84213,-2.86993 -2.36133,-5.88672 -2.9119,-5.78202 -3.72627,-11.3078 -1.97656,-13.41602 0.50769,-0.61178 2.70862,-1.73479 4.89062,-2.49609 3.5124,-1.22544 6.87064,-1.38558 29.27734,-1.39258 23.8105,-0.007 25.76003,-0.11356 32.92383,-1.79687 12.45133,-2.9258 26.76946,-8.24569 45.44141,-16.88086 -0.0417,-0.0645 -0.0839,-0.12608 -0.125,-0.19141 -0.59059,-0.70027 -1.1299,-1.51376 -1.60742,-2.40039 -22.52062,10.61101 -35.19035,14.24325 -52.08203,15.52539 -14.71589,1.11699 -15.16896,0.71973 -9.16016,-8.02344 4.0525,-5.89659 12.00847,-21.20187 12.97266,-24.95507 l 0.49218,-1.91602 z m -219.71679,4.40431 a 30.875,30.875 0 0 1 30.875,30.875 30.875,30.875 0 0 1 -30.875,30.875 30.875,30.875 0 0 1 -30.875,-30.875 30.875,30.875 0 0 1 30.875,-30.875 z m 356.9082,29.56053 c -0.0387,-0.0168 -0.0743,-0.0144 -0.10547,0.008 -0.0356,0.0251 -0.0659,0.0772 -0.0898,0.15625 -1.8254,6.0313 -3.43847,9.26851 -7.78907,15.64063 -2.783,4.0762 -5.06054,7.78869 -5.06054,8.25 0,0.89518 0.32162,0.68579 6.13672,-4.01563 8.4888,-6.863 16.08273,-8.00538 30.29296,-4.55274 7.0168,1.70484 5.95724,0.0509 -2.57226,-4.01562 -3.7992,-1.81137 -6.15591,-2.38135 -10.69531,-2.58399 -6.7467,-0.30119 -7.6186,-0.89931 -8.9961,-6.16991 -0.40769,-1.55985 -0.85,-2.59938 -1.12109,-2.71681 z m -204.99414,9.5547 c 0.864,-0.0971 1.72284,1.25745 1.73828,3.0703 l -0.004,0 c 0.016,1.84036 -1.28398,1.68837 -2.33398,-0.27343 -0.6378,-1.20123 -0.63698,-1.83977 0.01,-2.48633 0.18943,-0.18943 0.39045,-0.28814 0.58984,-0.31054 z m 131.37695,11.46093 c -0.25801,-0.009 -0.42963,0.0136 -0.49023,0.0742 -0.2424,0.24243 0.88686,0.80006 2.50976,1.23829 1.02428,0.27657 2.97043,0.80485 4.72852,1.28125 a 55,55 0 0 1 3.44726,-0.41798 c -2.13585,-0.29791 -4.22999,-0.73363 -6.20117,-1.32617 -1.66807,-0.50142 -3.2201,-0.82231 -3.99414,-0.8496 z m 14.61524,7.70312 a 50,50 0 0 0 -50,50 50,50 0 0 0 50,50 50,50 0 0 0 50,-50 50,50 0 0 0 -50,-50 z m 0,17.5 a 32.5,32.5 0 0 1 32.5,32.5 32.5,32.5 0 0 1 -32.5,32.5 32.5,32.5 0 0 1 -32.5,-32.5 32.5,32.5 0 0 1 32.5,-32.5 z m -100.20313,1.06056 c -0.0955,-5.8e-4 -0.15578,0.009 -0.17578,0.0293 -0.6405,0.64052 8.06812,4.98159 11.69922,5.83203 9.5198,2.22959 7.43363,4.80816 -9.32617,11.5332 -1.87912,0.75402 -3.71406,1.46092 -5.53125,2.14649 0.94945,0.53533 1.74406,1.38226 2.74023,1.83984 0.38784,0.17815 0.81872,0.23817 1.22852,0.35742 l 1.55468,0.73633 c 0.49297,-0.032 1.07051,0.24252 1.64258,0.53711 5.17313,-1.93335 10.28718,-4.19075 15.23633,-6.74414 9.78,-5.04579 10.98677,-5.47421 16.13867,-5.73438 3.7163,-0.18766 6.45055,0.0886 8.21875,0.83204 0.62031,0.2608 2.23017,1.29548 4.22266,2.65429 a 55,55 0 0 1 3.16211,-7.69531 c -3.65064,-0.0328 -7.11515,-0.19099 -11.11328,-0.4668 -13.6374,-0.94076 -25.74557,-2.60884 -33.85743,-4.66601 -2.75484,-0.69865 -5.17143,-1.18743 -5.83984,-1.19141 z m -163.5625,8.36718 c -4.61654,3.78486 -8.08618,7.31801 -10.61719,10.76562 -5.25641,7.16003 -8.11149,8.03814 -12.82421,3.94141 -2.70467,-2.35121 -3.68439,-1.87579 -1.32032,0.64062 0.93067,0.99064 3.7317,2.41904 6.22461,3.17384 l 4.53125,1.37304 0.51953,4.30079 c 1.18222,9.79309 6.00805,18.05311 13.45117,23.02343 6.10923,4.0796 9.67341,4.7442 24.10938,4.49609 l 12.30469,-0.21094 4.59765,2.40039 c 2.52857,1.32076 7.17267,3.11131 10.32032,3.97853 7.42413,2.04545 11.18621,3.65284 11.70312,5 0.2287,0.59594 -0.0745,2.03031 -0.67383,3.18554 -0.59866,1.15404 -1.08883,2.23013 -1.08984,2.39453 l 0,0.002 c 0.003,0.94502 1.5687,-0.0569 3.87695,-2.48437 6.9738,-7.33399 10.5059,-8.45359 17.7168,-5.61133 3.7365,1.47278 15.41232,4.562 17.13672,4.5332 0.4219,-0.007 -1.20704,-0.82631 -3.61914,-1.81836 -2.4122,-0.99205 -6.10266,-2.90528 -8.20117,-4.25195 l -3.81641,-2.44727 -1.70117,-7.36328 c -1.4636,-6.33378 -1.57382,-7.83884 -0.79102,-10.76562 0.8822,-3.29832 4.61081,-9.51907 6.34961,-10.59375 0.42538,-0.26295 5.11544,-0.41563 10.72656,-0.38282 -0.44661,-1.08244 -0.5401,-2.23486 -0.27539,-3.3457 -4.49959,-0.36618 -8.19837,-1.85237 -14.18945,-5.08203 -3.9087,-2.10716 -7.10547,-3.67795 -7.10547,-3.49219 0,0.18577 1.21362,1.79216 2.69922,3.57032 3.1537,3.77472 2.91116,4.39485 -2.66797,6.79492 -3.33094,1.43294 -8.37386,2.21591 -22.27344,3.45898 -1.89816,0.16984 2.43953,0.14468 9.63868,-0.0547 15.76801,-0.43674 15.79846,-0.42111 13.85156,6.51758 -0.7159,2.55153 -1.24805,7.29013 -1.24805,11.09571 0,9.03468 -0.40509,9.30375 -13.23633,8.7832 -10.25442,-0.41601 -15.20164,-1.71404 -18.625,-4.88672 -1.66773,-1.54559 -1.97057,-2.35024 -1.59179,-4.24414 0.40364,-2.01827 0.28505,-2.25834 -0.8711,-1.75586 -6.75561,2.93599 -10.3211,3.65071 -19.99219,4.00781 l -10.21874,0.37696 -5.78711,-2.9375 c -6.65229,-3.37651 -11.98277,-8.30904 -13.30274,-12.3086 -0.55278,-1.67463 -0.79168,-5.57743 -0.60351,-9.8789 0.27004,-6.17465 0.64319,-7.76595 2.83593,-12.08594 0.43793,-0.86282 1.03261,-1.83074 1.67383,-2.81055 0.11743,-3.23326 1.04159,-6.51235 2.375,-9.00195 z m 159.92383,11.28907 c -0.0216,0.008 -0.0429,0.0173 -0.0644,0.0254 l 0.47656,0.36524 c -0.0857,-0.0956 -0.25812,-0.24886 -0.41211,-0.39063 z m -16.92773,9.64843 c -0.13807,-5.1e-4 -0.276,0.002 -0.41407,0.002 0.34181,0.29555 0.66682,0.60643 0.97071,0.93555 1.19159,-0.30334 2.36121,-0.58813 3.58789,-0.91992 -0.10745,3e-5 -0.21483,0 -0.32227,0 -1.27364,-9.9e-4 -2.54845,-0.0129 -3.82226,-0.0176 z m 186.03124,38.79101 c 1.13451,0.37815 -6.17488,5.20953 -13.70898,9.0625 -3.2649,1.66969 -6.22514,3.03711 -6.57812,3.03711 -1.35281,0 0.45444,-1.62483 3.52734,-3.16991 1.764,-0.88703 6.06163,-3.32365 9.54883,-5.41602 3.4873,-2.09236 6.73187,-3.67339 7.21093,-3.51368 z m -7.21874,7.9336 c 0.29719,0.0474 0.25042,0.37277 -0.11915,0.97071 -1.0156,1.64326 -9.4445,6.61412 -15.3164,9.0332 -3.4305,1.41325 -5.55476,2.57599 -4.72266,2.58399 1.5058,0.014 1.5058,0.0185 0,1.02539 -4.1458,2.77236 -17.23633,7.18069 -17.23633,5.80469 0,-0.39268 0.77747,-1.01425 1.72657,-1.38086 5.5271,-2.13502 5.65498,-2.39275 0.95898,-1.94727 -2.5308,0.2401 -8.13798,1.10154 -12.45898,1.91602 -4.3211,0.81448 -12.25818,1.9993 -17.63868,2.63281 -9.6042,1.13078 -30.56249,1.42381 -35.09179,0.49023 -3.0451,-0.62765 -5.5074,-2.12535 -4.7461,-2.88672 0.9667,-0.96673 10.54992,-1.23846 14.19922,-0.40234 3.8595,0.8843 31.33258,-0.68096 45.17188,-2.57422 16.5644,-2.26607 29.56111,-6.45529 40.82031,-13.15821 2.50606,-1.49192 3.95777,-2.18637 4.45313,-2.10741 z m -29.1836,2.89649 c -0.65294,0.0373 -1.90076,0.1694 -3.1875,0.30468 a 55,55 0 0 1 -3.57812,1.71484 c 4.55882,-0.92035 7.81826,-1.71302 7.51953,-2.01172 -0.0325,-0.0325 -0.29958,-0.0336 -0.75391,-0.008 z m 12.00586,2.77539 c 0.0734,0.0126 0.10034,0.0405 0.0723,0.0859 -0.2247,0.36366 -3.17529,1.53399 -6.55469,2.60156 -3.3795,1.06756 -6.90278,1.91416 -7.83008,1.88086 -1.9903,-0.0715 -2.19299,0.009 7.32031,-2.87695 3.59599,-1.09077 6.4782,-1.77971 6.99219,-1.69141 z m -23.06055,5.04297 c 4.04783,-0.032 3.71797,0.17746 1.31055,0.88867 -1.8981,0.56076 -7.58176,1.53124 -12.63086,2.15821 -12.6761,1.57402 -43.35547,1.32699 -43.35547,-0.34961 0,-1.22834 4.41121,-1.63944 21.47461,-1.99806 9.4908,-0.19945 21.91498,-0.46689 27.60938,-0.59569 2.40747,-0.0545 4.24252,-0.0928 5.59179,-0.10352 z m -205.05859,2.74804 c -0.26642,-0.011 -0.56892,0.0377 -0.8457,0.14844 -0.61186,0.24482 -0.43051,0.4261 0.46289,0.4629 0.8085,0.0333 1.26071,-0.1475 1.00586,-0.40235 -0.12743,-0.12741 -0.35663,-0.19802 -0.62305,-0.20899 z m 225.88477,4.11134 c 0.63951,0.0807 -0.49229,0.88656 -3.56641,2.24608 -9.9183,4.38634 -25.52043,8.13633 -41.73633,10.03321 -18.8907,2.20976 -36.92339,2.25345 -34.75391,0.084 0.2127,-0.21274 2.79177,-0.60456 5.73047,-0.8711 2.9386,-0.26656 5.86144,-0.65268 6.49414,-0.85742 1.0225,-0.3309 1.0225,-0.44119 0,-0.99219 -0.6327,-0.34096 -3.73874,-0.28524 -6.90234,0.12304 -6.5242,0.842 -26.26451,0.33556 -29.09961,-0.74608 l -1.87305,-0.71485 1.87305,-0.45117 c 1.0303,-0.24855 8.08501,-0.64997 15.67774,-0.89258 33.9166,-1.08374 54.85145,-2.1683 60.56445,-3.13867 1.4164,-0.24059 1.9953,-0.1179 1.5332,0.32617 -0.6739,0.64733 -12.96816,2.77649 -26.81836,4.64452 -4.9278,0.66463 -4.708,0.69107 2.6836,0.32813 16.1611,-0.79352 34.0186,-3.89491 45.5664,-7.91602 2.55999,-0.89144 4.12958,-1.26787 4.62696,-1.20507 z m 4.73242,5.06444 c 0.24298,0.0476 -0.27205,0.38896 -1.62305,1.23243 -4.879,3.04609 -16.5666,7.93558 -24.2168,10.13086 -7.9046,2.26826 -18.16555,4.34811 -18.71875,3.79492 -0.1571,-0.15715 4.87665,-1.7965 11.18555,-3.64259 6.309,-1.84609 11.34917,-3.47705 11.20117,-3.625 -0.148,-0.14797 -3.60273,0.57569 -7.67773,1.60938 -8.8035,2.2332 -19.97297,3.82566 -37.73047,5.37891 -15.1876,1.32848 -19.33354,1.32559 -30.39844,-0.0195 -17.278,-2.10043 -27.63354,-4.88988 -28.15234,-7.58398 -0.2568,-1.3337 0.12696,-1.39562 5.50586,-0.90819 3.1793,0.2881 8.47738,1.04539 11.77343,1.68358 20.205,3.91198 38.35671,5.07516 52.41211,3.35939 3.5743,-0.43633 13.40184,-2.20831 21.83789,-3.93947 24.50253,-5.02803 23.99786,-4.97811 17.06446,-1.73047 -5.7795,2.70716 -1.46245,1.40195 7.09375,-2.14453 4.0072,-1.66095 8.14862,-3.1954 9.20312,-3.41014 0.67553,-0.13757 1.09445,-0.21412 1.24024,-0.18556 z m -66.52149,4.63282 c -0.41702,-0.005 -0.86325,0.0395 -1.23632,0.13672 -0.7462,0.19445 -0.32019,0.36721 0.94531,0.38281 1.2657,0.0156 1.87477,-0.14342 1.35547,-0.35351 -0.2596,-0.10508 -0.64743,-0.16087 -1.06446,-0.16602 z m 57.95703,1.58203 c 0.0877,-0.0133 0.15145,-0.0116 0.19336,0.004 0.20118,0.074 -0.0978,0.47234 -0.63671,1.125 -0.5789,0.70092 -2.88395,2.08428 -5.12305,3.07618 -2.2392,0.99189 -4.99937,2.48437 -6.13477,3.31445 -2.4044,1.75788 -17.66562,5.51628 -29.39062,7.24024 -7.2465,1.06545 -19.08569,1.66169 -18.24219,0.91797 0.1757,-0.15496 3.75448,-0.50837 7.95508,-0.78516 14.3025,-0.94239 29.88206,-5.16276 45.19726,-12.24219 3.77579,-1.74532 5.56795,-2.55737 6.18164,-2.65039 z m -134.96093,2.17577 c 2.02407,-0.0479 5.52114,0.74449 9.77539,2.29884 9.1553,3.34495 21.15522,5.21309 46.91992,7.3086 10.4049,0.84627 4.91534,1.84505 -10.66016,1.93944 l -14.57226,0.0898 4.60156,1.48438 c 2.5308,0.81716 7.53569,2.00457 11.12109,2.63867 7.2749,1.28664 31.22607,2.29343 28.75977,1.20897 -1.1392,-0.50093 -0.0534,-0.81135 4.21875,-1.20702 7.4085,-0.68615 23.0081,-3.23544 28.1875,-4.60742 2.216,-0.58704 3.83482,-0.75318 3.59766,-0.36914 -0.68611,1.10997 0.19694,0.86643 7.55664,-2.07813 12.4898,-4.99707 15.47746,-5.20077 4.94726,-0.33789 -12.4511,5.74996 -28.91239,10.04963 -44.17969,11.54101 -22.9374,2.24062 -43.3125,-0.93902 -62.1914,-9.70312 -3.9849,-1.84992 -9.49158,-3.88447 -12.23828,-4.52148 -5.0547,-1.17225 -7.74219,-2.79485 -7.74219,-4.67578 0,-0.65092 0.68399,-0.98108 1.89844,-1.00978 z m 102.68945,19.31446 c 0.0948,0.007 0.15514,0.0223 0.17969,0.0469 0.5603,0.56032 -7.13842,3.45659 -13.88672,5.22461 -7.003,1.83474 -31.2097,3.08557 -32.0918,1.65822 -0.7349,-1.18906 1.59617,-1.59119 18.9336,-3.26369 8.79158,-0.8481 18.39243,-2.08832 21.33593,-2.75781 2.57557,-0.58579 4.86578,-0.95648 5.5293,-0.9082 z"
             style="display:inline;opacity:1;fill:url(#linearGradient4623-0);fill-opacity:1;fill-rule:nonzero;image-rendering:auto" />
          <path
             inkscape:connector-curvature="0"
             id="path4536-6"
             d="m 283.04574,560.9133 -0.44922,0.51368 -0.15235,0.17187 -0.13281,0.18555 -0.99609,1.38476 -0.043,0.0605 -0.043,0.0625 -1.4707,2.19335 -0.0293,0.043 -0.0273,0.043 -1.24414,1.94335 7.94921,5.08595 1.1875,-1.85548 1.43555,-2.14061 0.35352,-0.49025 0.26367,0.15625 0.83984,-1.41405 0.0977,-0.16602 0.0859,-0.17384 0.16015,-0.33007 0.47656,-0.97657 0.002,-1.08593 0.002,-0.0879 0.0254,-12.57032 z m -10.04493,15.62696 -0.0215,0.0371 -0.0234,0.0391 -2.70898,4.8125 -0.0234,0.043 -0.0234,0.041 -1.4082,2.62695 8.31445,4.46093 1.40235,-2.60938 0.008,-0.0156 2.61719,-4.65039 0.0215,-0.0352 0.0234,-0.043 0.42969,-0.72655 -8.13282,-4.78711 z m -8.625,16.1289 -0.0254,0.0508 -0.0254,0.0508 -2.93359,6.12891 -0.0195,0.041 -0.0195,0.043 -1.06641,2.34766 8.5918,3.90429 1.02734,-2.26171 0,-0.002 2.88086,-6.02343 0.0117,-0.0234 0.0195,-0.0352 -0.002,0 0.0215,-0.0449 -1.82617,-0.87306 -6.60547,-3.36132 z m -8.72656,19.65039 -0.0156,0.0371 -0.0137,0.0391 -1.30468,3.42382 -0.0156,0.0391 -0.0137,0.041 -1.18555,3.28906 8.87891,3.19725 1.1543,-3.20703 1.27539,-3.34764 0.006,-0.0137 0.0234,-0.0625 0.81836,-2.03907 -8.75976,-3.50977 z"
             style="color:#000000;font-style:normal;font-variant:normal;font-weight:normal;font-stretch:normal;font-size:medium;line-height:normal;font-family:sans-serif;text-indent:0;text-align:start;text-decoration:none;text-decoration-line:none;text-decoration-style:solid;text-decoration-color:#000000;letter-spacing:normal;word-spacing:normal;text-transform:none;direction:ltr;block-progression:tb;writing-mode:lr-tb;baseline-shift:baseline;text-anchor:start;white-space:normal;clip-rule:nonzero;display:inline;overflow:visible;visibility:visible;opacity:1;isolation:auto;mix-blend-mode:normal;color-interpolation:sRGB;color-interpolation-filters:linearRGB;solid-color:#000000;solid-opacity:1;fill:#232323;fill-opacity:0.39215687;fill-rule:nonzero;stroke:none;stroke-width:9.43675232;stroke-linecap:butt;stroke-linejoin:miter;stroke-miterlimit:4;stroke-dasharray:9.43675189, 9.43675189000000003;stroke-dashoffset:0;stroke-opacity:1;color-rendering:auto;image-rendering:auto;shape-rendering:auto;text-rendering:auto;enable-background:accumulate" />
          <path
             inkscape:connector-curvature="0"
             id="path4538-1"
             d="m 289.41292,714.09104 0.59571,0.44336 0.14453,0.10741 0.15039,0.0977 0.74609,0.47656 0.15039,0.0957 0.1543,0.0859 1.93164,1.05078 0.12891,0.0703 0.13281,0.0625 2.49219,1.17383 0.0859,0.0391 0.0859,0.0371 3.02344,1.28711 0.0606,0.0254 0.0605,0.0234 0.12305,0.0488 3.66211,-9.27343 0.01,-0.0254 0,-0.002 -0.0859,-0.0352 -0.0352,-0.0137 -2.79883,-1.19141 -2.26758,-1.06641 -1.68164,-0.91601 -0.41797,-0.26758 -0.46874,-0.34766 z m 19.58399,8.71485 2.4707,0.87694 0.0293,0.01 0.0293,0.01 4.84375,1.65625 0.0332,0.0117 0.0352,0.0117 2.14844,0.69922 3.0957,-9.50977 -2.07812,-0.67578 -0.0352,-0.0117 -0.0352,-0.0117 -4.7168,-1.61133 -0.0137,-0.004 -0.043,-0.0156 -2.41406,-0.85936 z m 19.17383,6.38086 9.55273,2.95312 2.95312,-9.55469 -9.55273,-2.95313 z m 19.19335,5.83006 5.19336,1.53711 0.0234,0.008 0.0254,0.006 4.40821,1.25781 2.74218,-9.61719 -4.4082,-1.25781 -5.14453,-1.52344 z m 19.31055,5.56056 9.64258,2.65429 2.65234,-9.64063 -9.64062,-2.65429 z m 19.33594,5.27734 9.66601,2.56835 2.56836,-9.66405 -9.66406,-2.56836 z m 19.39258,5.06641 5.37304,1.3789 0.0234,0.006 0.0215,0.006 4.32226,1.0664 2.39649,-9.70898 -4.27735,-1.05469 -0.0449,-0.0117 -5.32812,-1.36719 z m 19.44922,4.85351 0.67187,0.16601 0.0234,0.006 0.0254,0.006 9.05859,2.14063 2.29883,-9.73243 -9.00976,-2.1289 -0.0234,-0.006 -0.0254,-0.006 -0.62305,-0.15234 z m 19.58007,4.57813 9.14844,2.04687 0.0234,0.006 0.0254,0.006 0.61328,0.13086 2.08594,-9.78126 -0.5625,-0.11914 -9.14844,-2.04882 z m 19.63477,4.25195 2.36914,0.48632 0.0215,0.004 0.0215,0.004 5.97656,1.16992 0.0254,0.006 0.0254,0.004 1.46875,0.27149 1.81836,-9.83398 -1.41797,-0.26173 -0.0351,-0.008 -0.0156,-0.002 -5.88086,-1.15039 -2.36718,-0.48633 z"
             style="color:#000000;font-style:normal;font-variant:normal;font-weight:normal;font-stretch:normal;font-size:medium;line-height:normal;font-family:sans-serif;text-indent:0;text-align:start;text-decoration:none;text-decoration-line:none;text-decoration-style:solid;text-decoration-color:#000000;letter-spacing:normal;word-spacing:normal;text-transform:none;direction:ltr;block-progression:tb;writing-mode:lr-tb;baseline-shift:baseline;text-anchor:start;white-space:normal;clip-rule:nonzero;display:inline;overflow:visible;visibility:visible;opacity:1;isolation:auto;mix-blend-mode:normal;color-interpolation:sRGB;color-interpolation-filters:linearRGB;solid-color:#000000;solid-opacity:1;fill:#232323;fill-opacity:0.39215687;fill-rule:nonzero;stroke:none;stroke-width:10;stroke-linecap:butt;stroke-linejoin:miter;stroke-miterlimit:4;stroke-dasharray:10, 10;stroke-dashoffset:0;stroke-opacity:1;color-rendering:auto;image-rendering:auto;shape-rendering:auto;text-rendering:auto;enable-background:accumulate" />
          <path
             inkscape:connector-curvature="0"
             id="path4540-1"
             d="m 368.0262,509.5969 -2.15039,0.043 -0.0762,0.002 -0.0762,0.004 -2.14258,0.10742 -0.0762,0.004 -0.0781,0.008 -2.13476,0.17382 0.81836,9.96681 2.07031,-0.16797 1.95899,-0.10158 2.0371,-0.0391 1.9961,0.0195 1.32226,0.0508 0.38868,-9.9922 -1.4043,-0.0547 -0.0742,-0.002 -0.0723,-0.002 -2.15821,-0.0215 -0.0742,0 z m 12.73243,11.06054 1.67578,0.29493 2.0625,0.41602 2.0957,0.47655 2.10156,0.53125 0.0391,0.01 1.31054,0.36329 2.66602,-9.63867 -1.42188,-0.39258 -0.0547,-0.0156 -0.0566,-0.0137 -2.20117,-0.5547 -0.0586,-0.0156 -0.0566,-0.0117 -2.19922,-0.5 -0.0586,-0.0137 -0.0606,-0.0117 -2.19531,-0.44533 -0.0605,-0.0117 -0.0625,-0.01 -1.73047,-0.30468 z m 18.88867,3.82032 -0.51172,1.27149 0.0488,0.0195 0,0.002 0.0371,0.0137 4.21484,1.69531 4.2832,1.91016 0.16016,0.0781 4.38281,-8.98827 -0.21679,-0.10743 -0.0781,-0.0371 -0.0781,-0.0351 -4.42383,-1.97265 -0.084,-0.0371 -0.084,-0.0351 -4.42578,-1.7832 -0.0899,-0.0351 -0.0918,-0.0332 -0.13477,-0.0469 z m 16.86133,9.39063 4.04101,2.29491 4.20313,2.54493 0.0215,0.0137 0.11524,0.0723 5.41015,-8.40822 -0.13476,-0.0879 -0.0566,-0.0351 -0.0586,-0.0352 -4.3789,-2.65625 -0.0625,-0.0351 -0.0605,-0.0371 -4.10352,-2.32814 z m 16.61523,10.37303 0.17578,0.12111 0.0449,0.0293 4.19727,3.0039 0.0156,0.0117 3.45313,2.59181 6.00195,-7.99806 -3.54492,-2.66016 -0.0469,-0.0332 -0.0449,-0.0332 -4.31054,-3.08399 -0.0488,-0.0351 -0.0488,-0.0332 -0.22266,-0.15039 z m 15.55273,11.84572 1.33008,1.08592 0.0195,0.0176 4.08985,3.48242 2.01758,1.78516 6.62304,-7.49218 -2.08789,-1.84766 -0.0351,-0.0312 -0.0352,-0.0293 -4.16406,-3.54492 -0.0371,-0.0312 -0.0371,-0.0312 -1.34961,-1.10352 z m 14.71485,12.99413 2.72461,2.58594 3.84375,3.76562 0.0332,0.0352 0.0215,0.0195 0.4375,0.44335 7.11132,-7.0293 -0.49218,-0.5 -0.0293,-0.0293 -0.0273,-0.0273 -3.95899,-3.87891 -0.0293,-0.0273 -0.0293,-0.0293 -2.72656,-2.58399 z m 13.98047,13.96094 0.21289,0.2207 0.0508,0.0547 3.66601,3.93945 0.008,0.01 0.041,0.043 2.69532,2.98243 7.41796,-6.70508 -2.74414,-3.03516 -0.0234,-0.0273 -0.0254,-0.0273 -3.76563,-4.04687 -0.0254,-0.0254 -0.0254,-0.0274 -0.26367,-0.27539 z m 13.16406,14.67187 1.48242,1.73437 0.006,0.006 0.0391,0.0469 3.3711,4.05664 1.4082,1.74218 7.77539,-6.28907 -1.4082,-1.74218 -0.0215,-0.0254 -0.0215,-0.0254 -3.45703,-4.16016 -0.0215,-0.0273 -0.0215,-0.0254 -1.52734,-1.78711 z m 12.42578,15.32618 2.19336,2.86132 0.0391,0.0527 3.01172,4.04102 0.0391,0.0547 0.64063,0.88282 8.0957,-5.86914 -0.67969,-0.9375 -0.0176,-0.0254 -0.0215,-0.0274 -3.08984,-4.14648 -0.0195,-0.0273 -0.0195,-0.0254 -2.23243,-2.91408 z m 11.63867,15.93554 2.14258,3.12696 0.0391,0.0566 2.58789,3.89258 0.0391,0.0586 0.67968,1.05665 8.4043,-5.41992 -0.71875,-1.11523 -0.0176,-0.0293 -0.0195,-0.0293 -2.66601,-4.0078 -0.0195,-0.0293 -0.0195,-0.0274 -2.18164,-3.18556 z m 10.72461,16.53711 1.25586,2.08203 2.09961,3.60351 1.58399,2.82228 8.72265,-4.89063 -1.58398,-2.82421 -0.0195,-0.0352 -0.0215,-0.0352 -2.18164,-3.74413 -0.0195,-0.0332 -0.0195,-0.0332 -1.25781,-2.08204 z m 9.45899,17.10938 1.10351,2.25976 1.44336,3.12305 1.29297,2.98242 0.0156,0.041 0.14257,0.35548 9.28321,-3.72071 -0.15821,-0.39453 -0.0254,-0.0645 -0.0273,-0.0625 -1.34375,-3.10742 -0.0254,-0.0566 -0.0254,-0.0547 -1.49219,-3.23436 -0.0234,-0.0488 -0.0254,-0.0508 -1.15234,-2.35743 z m 7.14843,17.68554 0.30274,1.06836 0.49023,2.12109 0.32227,1.87696 0.16406,1.6289 0.0176,1.38086 -0.006,0.0781 0.006,0 0.002,0.13281 1.65235,-0.0215 8.31836,0.5586 0.0176,-0.26563 0.0137,-0.19921 -0.004,-0.20118 -0.0234,-1.82031 -0.002,-0.2168 -0.0215,-0.21678 -0.20117,-2.00978 -0.0176,-0.17383 -0.0293,-0.17187 -0.37696,-2.19141 -0.0234,-0.14062 -0.0332,-0.13868 -0.54492,-2.36328 -0.0273,-0.11718 -0.0332,-0.11524 -0.3379,-1.19922 z"
             style="color:#000000;font-style:normal;font-variant:normal;font-weight:normal;font-stretch:normal;font-size:medium;line-height:normal;font-family:sans-serif;text-indent:0;text-align:start;text-decoration:none;text-decoration-line:none;text-decoration-style:solid;text-decoration-color:#000000;letter-spacing:normal;word-spacing:normal;text-transform:none;direction:ltr;block-progression:tb;writing-mode:lr-tb;baseline-shift:baseline;text-anchor:start;white-space:normal;clip-rule:nonzero;display:inline;overflow:visible;visibility:visible;opacity:1;isolation:auto;mix-blend-mode:normal;color-interpolation:sRGB;color-interpolation-filters:linearRGB;solid-color:#000000;solid-opacity:1;fill:#232323;fill-opacity:0.39215687;fill-rule:nonzero;stroke:none;stroke-width:10;stroke-linecap:butt;stroke-linejoin:miter;stroke-miterlimit:4;stroke-dasharray:10, 10;stroke-dashoffset:0;stroke-opacity:1;color-rendering:auto;image-rendering:auto;shape-rendering:auto;text-rendering:auto;enable-background:accumulate" />
          <circle
             style="display:inline;opacity:0.99599998;fill:#232323;fill-opacity:0.39215687;fill-rule:nonzero"
             id="path4211-6-5-5-9"
             cx="308.52353"
             cy="-503.49789"
             r="20"
             transform="scale(1,-1)" />
          <circle
             style="display:inline;opacity:0.99599998;fill:#282828;fill-opacity:0.39215687;fill-rule:nonzero"
             id="path4211-6-5-5-62"
             cx="247.86665"
             cy="-674.80121"
             r="20"
             transform="scale(1,-1)" />
          <circle
             style="display:inline;opacity:0.99599998;fill:#232323;fill-opacity:0.39215687;fill-rule:nonzero"
             id="path4211-6-5-5-3"
             cx="545.86664"
             cy="-752.44763"
             r="20"
             transform="scale(1,-1)" />
        </g>
      </g>
    </g>
  </g>
</svg>
