<?xml version="1.0" encoding="UTF-8" standalone="no"?>
<!-- Created with Inkscape (http://www.inkscape.org/) -->

<svg
   xmlns:dc="http://purl.org/dc/elements/1.1/"
   xmlns:cc="http://creativecommons.org/ns#"
   xmlns:rdf="http://www.w3.org/1999/02/22-rdf-syntax-ns#"
   xmlns:svg="http://www.w3.org/2000/svg"
   xmlns="http://www.w3.org/2000/svg"
   xmlns:xlink="http://www.w3.org/1999/xlink"
   xmlns:sodipodi="http://sodipodi.sourceforge.net/DTD/sodipodi-0.dtd"
   xmlns:inkscape="http://www.inkscape.org/namespaces/inkscape"
   width="600"
   height="600"
   viewBox="0 0 600.00001 600.00001"
   id="svg5313"
   version="1.1"
   inkscape:version="0.91 r13725"
   sodipodi:docname="reconstruction.svg"
   inkscape:export-filename="/Users/yuanwang/Google_Drive/projects/Gits/YuanWangOnward.github.io/draft/reconstruction.png"
   inkscape:export-xdpi="90"
   inkscape:export-ydpi="90">
  <defs
     id="defs5315">
    <linearGradient
       inkscape:collect="always"
       xlink:href="#linearGradient4233"
       id="linearGradient6212"
       x1="299.98047"
       y1="1050.9336"
       x2="298.59097"
       y2="455.21927"
       gradientUnits="userSpaceOnUse" />
    <linearGradient
       inkscape:collect="always"
       id="linearGradient4233">
      <stop
         style="stop-color:#195a93;stop-opacity:1"
         offset="0"
         id="stop4235" />
      <stop
         style="stop-color:#1e9559;stop-opacity:1"
         offset="1"
         id="stop4237" />
    </linearGradient>
  </defs>
  <sodipodi:namedview
     id="base"
     pagecolor="#ffffff"
     bordercolor="#666666"
     borderopacity="1.0"
     inkscape:pageopacity="0.0"
     inkscape:pageshadow="2"
     inkscape:zoom="0.7"
     inkscape:cx="363.17509"
     inkscape:cy="239.46986"
     inkscape:document-units="px"
     inkscape:current-layer="layer1"
     showgrid="false"
     inkscape:window-width="1280"
     inkscape:window-height="707"
     inkscape:window-x="0"
     inkscape:window-y="1"
     inkscape:window-maximized="1"
     units="px" />
  <metadata
     id="metadata5318">
    <rdf:RDF>
      <cc:Work
         rdf:about="">
        <dc:format>image/svg+xml</dc:format>
        <dc:type
           rdf:resource="http://purl.org/dc/dcmitype/StillImage" />
        <dc:title></dc:title>
      </cc:Work>
    </rdf:RDF>
  </metadata>
  <g
     inkscape:label="Layer 1"
     inkscape:groupmode="layer"
     id="layer1"
     transform="translate(0,-452.36214)">
    <g
       id="g6023"
       transform="translate(-460,-8.5714289)" />
    <path
       style="fill-opacity:1;fill:url(#linearGradient6212)"
       d="m 252.82327,1051.7292 c -3.16816,-0.5758 -6.51063,-1.5328 -7.42771,-2.1266 -0.91703,-0.5939 -8.35231,-1.4106 -16.52279,-1.815 -12.26613,-0.607 -16.38545,-1.397 -23.63364,-4.5323 -4.82801,-2.0884 -13.8051,-4.6584 -19.94909,-5.7109 -23.21746,-3.9776 -38.08463,-13.3137 -48.76879,-30.6252 -2.29247,-3.7145 -5.48386,-6.2324 -11.5058,-9.0776 -12.47928,-5.89621 -18.95305,-12.12545 -24.29052,-23.37313 -3.813164,-8.03543 -5.778674,-10.48172 -11.292564,-14.05458 -16.07825,-10.41834 -23.77427,-23.28013 -23.64291,-39.51274 0.0738,-9.10953 -0.36328,-10.87607 -4.34386,-17.55642 -6.73595,-11.30462 -7.8958,-16.29438 -7.14114,-30.72157 0.52602,-10.05654 0.1346,-14.46077 -1.85261,-20.84563 -3.12265,-10.03322 -3.22466,-20.8929 -0.26559,-28.28829 2.10483,-5.26054 2.10483,-6.19233 0,-14.09155 -2.7822,-10.44125 -2.9696,-29.60624 -0.35068,-35.87302 1.04668,-2.50472 3.25554,-6.27323 4.90855,-8.37446 2.6805,-3.40725 2.83982,-4.37353 1.47316,-8.93491 -2.73268,-9.12096 -1.9118,-22.83617 1.85054,-30.91802 4.521,-9.71149 8.3356,-14.84768 13.24438,-17.83291 l 4.09852,-2.49247 0.21473,-28.0976 c 0.23003,-30.11677 1.10907,-35.54711 8.05079,-49.73548 1.92026,-3.92489 6.72221,-10.75704 10.67097,-15.18252 6.803654,-7.62493 7.224424,-8.52643 8.035884,-17.21609 0.95386,-10.21482 6.33593,-23.21206 13.20153,-31.88061 3.51857,-4.44254 4.29677,-6.77056 4.80915,-14.38653 0.69316,-10.30364 2.17839,-15.83125 6.65438,-24.76626 4.37366,-8.73067 16.02558,-21.03618 23.5102,-24.82891 4.36637,-2.2126 8.28631,-5.88658 12.71107,-11.91342 11.68604,-15.91732 28.56024,-26.86888 49.59588,-32.18834 8.85911,-2.24029 14.13161,-2.67173 27.99204,-2.29062 15.36263,0.42226 17.83543,0.84203 24.63098,4.17937 9.04669,4.44286 16.42574,11.31007 20.28806,18.88094 3.69018,7.23329 3.11374,18.86207 -1.23791,24.97337 -3.67631,5.16294 -3.70872,7.45405 -0.20797,14.68603 2.9072,6.00547 5.27547,26.70111 5.31833,46.47539 0.018,8.32305 -0.59949,11.30683 -3.44714,16.65613 -2.95893,5.55832 -3.2568,7.12557 -2.02574,10.65711 1.88376,5.40368 1.84437,16.61679 -0.077,21.93026 -1.35977,3.76036 -1.04096,5.05382 3.01781,12.2456 3.77611,6.69088 4.53194,9.40259 4.50119,16.14884 -0.0405,8.44207 -1.38146,12.51309 -6.03004,18.27889 l -2.75631,3.41877 4.07039,7.38517 c 4.77291,8.65986 5.43726,18.21681 1.88366,27.09815 -2.08133,5.2017 -2.08088,6.01942 0.005,11.84415 3.66406,10.22373 2.23092,19.71837 -4.11469,27.25971 l -3.53892,4.2057 2.93052,6.03189 c 3.86543,7.95621 5.86952,22.30962 4.1724,29.8826 -0.71981,3.21197 -2.87115,8.20087 -4.78079,11.08652 l -3.47199,5.24657 5.54905,11.24012 c 9.21639,18.66854 9.73057,31.43147 1.84963,45.91138 -3.2785,6.02365 -3.38861,6.80855 -1.7677,12.59794 3.19855,11.42409 -0.97812,33.88249 -8.18305,44.00083 l -2.89006,4.05873 4.83392,6.20453 c 13.70539,17.59148 16.0457,48.08972 6.01212,78.34834 -3.7446,11.29275 -3.97274,12.84425 -2.10335,14.30335 1.15328,0.9001 3.66862,4.0003 5.58961,6.8894 4.41872,6.6453 4.78727,16.9164 0.83942,23.3911 -6.19935,10.1673 -23.97095,16.4393 -38.89507,13.7268 z m 25.05787,-9.1246 c 11.75492,-6.0249 14.51889,-18.9599 5.89428,-27.5845 l -4.13855,-4.1386 -7.49857,3.794 c -6.1578,3.1155 -8.76443,3.6888 -14.57812,3.2064 -9.60183,-0.7968 -20.18547,-5.912 -30.71315,-14.8438 -11.41082,-9.68113 -15.94969,-11.91129 -24.24181,-11.91129 -5.91922,0 -6.81954,-0.35653 -6.81954,-2.70099 0,-1.56373 0.90032,-2.70098 2.13828,-2.70098 4.19724,0 0.94282,-3.31565 -4.26329,-4.34351 -10.2723,-2.02803 -11.37993,-2.48045 -11.37993,-4.64799 0,-1.85261 1.22859,-2.0762 8.02378,-1.46002 11.63378,1.05492 20.99729,5.96846 35.15123,18.44594 15.049,13.26654 23.72142,18.00994 33.1773,18.14654 14.11878,0.204 21.37003,-8.9944 26.46256,-33.56868 2.17812,-10.5108 2.64387,-16.49907 2.10065,-27.00987 -0.83974,-16.24941 -3.64372,-24.53968 -11.09516,-32.80403 -5.31851,-5.89868 -5.72195,-6.07605 -17.93311,-7.88377 -22.56589,-3.34054 -41.78558,-12.89893 -55.66681,-27.68431 -6.77425,-7.21546 -8.87283,-7.73918 -18.86995,-4.70904 -21.34068,6.46842 -48.89272,1.90528 -60.88115,-10.08314 -6.19084,-6.19084 -10.2718,-13.94196 -18.36378,-34.87897 -3.3165,-8.58099 -8.725634,-20.77955 -12.020384,-27.10788 -6.47508,-12.43705 -25.53401,-36.86487 -29.3334,-37.59657 -1.64382,-0.31646 -3.12185,1.28144 -4.98751,5.39257 -4.07606,8.98186 -3.64039,23.32545 1.12424,37.01199 5.41809,15.56385 24.802,44.67783 41.953544,63.01285 4.52721,4.83963 8.2313,9.48155 8.2313,10.31534 0,2.71328 -4.85309,1.59912 -8.10296,-1.86021 -4.175774,-4.44488 -4.932954,-4.27413 -5.988144,1.35049 -0.48766,2.5997 -1.4669,4.72673 -2.176,4.72673 -0.70915,0 -1.74511,0.15216 -2.30219,0.33762 -0.55708,0.18547 -1.06887,-2.2198 -1.13734,-5.34561 -0.0752,-3.41994 -1.79363,-9.06703 -4.31582,-14.18018 -5.25004,-10.6432 -25.41669,-41.58404 -27.10373,-41.58404 -3.0712,0 -3.80506,9.38445 -1.42571,18.23166 0.79909,2.97109 3.87497,10.71171 6.83539,17.20142 5.71646,12.53132 5.83053,16.14272 0.39749,12.58282 -4.70575,-3.08331 -5.05386,-2.73453 -4.37033,4.37897 0.92999,9.67899 6.60594,20.6409 15.81068,30.53538 4.52064,4.85935 8.21937,9.45823 8.21937,10.21973 0,2.00044 -4.29893,1.62248 -7.28906,-0.64086 -1.40924,-1.06675 -3.08052,-1.61928 -3.71386,-1.22786 -2.00431,1.23876 -1.18897,10.46785 1.43526,16.24675 3.0432,6.70146 13.60654,18.06789 16.79132,18.06789 2.09259,0 2.06738,-0.42585 -0.29981,-5.06435 -1.42162,-2.78539 -3.86485,-6.22204 -5.42944,-7.63704 -3.21885,-2.91108 -3.8083,-7.55601 -0.95885,-7.55601 2.42877,0 9.53075,8.09157 12.77522,14.55535 1.38777,2.76473 3.891364,9.28086 5.563544,14.48026 5.85885,18.21739 13.37997,26.70533 27.6817,31.2402 6.09288,1.93193 7.27254,2.98558 11.50931,10.2797 5.63205,9.6963 14.38937,17.8331 23.63976,21.9648 7.68309,3.4316 15.53067,5.4154 15.53067,3.926 0,-0.552 -3.64633,-5.1065 -8.10296,-10.121 -7.63664,-8.5926 -10.00549,-13.3987 -6.60396,-13.3987 0.82443,0 6.58591,5.03 12.80327,11.1779 17.12457,16.933 34.17761,25.8872 47.64118,25.0154 l 6.25647,-0.4052 -12.82969,-12.915 c -9.21973,-9.281 -17.94427,-16.2698 -31.00679,-24.8378 -20.02291,-13.13342 -31.38169,-23.02655 -35.33494,-30.7755 -1.42356,-2.79048 -3.30668,-5.07358 -4.18473,-5.07358 -0.878,0 -3.44844,1.78621 -5.71214,3.96937 -4.73433,4.56593 -11.51169,8.3641 -13.13476,7.361 -2.45916,-1.51984 -0.80017,-4.27616 5.05998,-8.40678 11.75168,-8.28329 14.18707,-21.33635 6.92713,-37.12777 -4.16812,-9.06635 -9.4684,-15.23604 -15.91385,-18.52431 -6.56385,-3.34859 -11.53767,-3.33432 -20.46448,0.0585 -8.463184,3.21665 -10.480824,3.35773 -10.480824,0.73282 0,-1.08282 2.81245,-3.61698 6.249864,-5.63146 5.75882,-3.37489 6.05687,-3.8038 3.79335,-5.45892 -1.35108,-0.98798 -3.55576,-1.7963 -4.89936,-1.7963 -1.542544,0 -2.442864,-0.99544 -2.442864,-2.70098 0,-4.3521 6.628084,-3.41153 14.275754,2.02574 3.65655,2.5997 7.74391,4.72673 9.08301,4.72673 4.02879,0 10.18376,3.82783 18.60787,11.57233 4.38798,4.03401 8.74309,7.3845 9.67799,7.4455 0.93495,0.0612 8.14717,0.32952 16.02717,0.59642 10.37287,0.35158 16.52315,1.29107 22.28314,3.40419 4.37573,1.60528 9.22729,3.21255 10.7813,3.57174 3.98563,0.92121 7.30325,-2.96461 7.30325,-8.55403 0,-3.77692 0.47591,-4.63773 2.36336,-4.27463 1.73467,0.33358 2.58503,2.26595 3.19667,7.26372 1.21197,9.90286 5.52658,18.55034 12.96883,25.99259 8.42654,8.42659 16.53508,13.11222 31.88632,18.42605 8.84362,3.06121 12.51602,4.99052 12.85558,6.75377 0.41595,2.1598 -0.17467,2.35972 -4.72543,1.59939 -2.86048,-0.47794 -6.56821,-1.24403 -8.23945,-1.70243 -2.89244,-0.79337 -3.03861,-0.46435 -3.03861,6.84052 0,8.44072 -1.68357,12.89843 -4.87141,12.89843 -1.71476,0 -1.92292,-1.2321 -1.19798,-7.09009 0.75286,-6.08371 0.42451,-7.76102 -2.31276,-11.81682 -1.75461,-2.5997 -6.15069,-6.85376 -9.76911,-9.45346 -3.61842,-2.5997 -11.73561,-9.44967 -18.03823,-15.22218 -7.87711,-7.21451 -14.88257,-12.17524 -22.41013,-15.86911 -16.86015,-8.27343 -35.72312,-9.72247 -40.72017,-3.12801 -3.65687,4.82581 -1.65571,21.20293 4.06341,33.25514 3.69823,7.79343 11.46344,14.62319 32.60861,28.6803 13.61014,9.04781 24.24892,17.50001 35.0092,27.81371 8.50167,8.1488 18.04642,16.0293 21.21045,17.5121 7.65703,3.5884 22.11176,2.9682 30.45237,-1.3068 z M 274.5718,900.8483 c 3.57147,-3.35521 7.06358,-14.07782 8.43122,-25.88811 1.1793,-10.18412 -1.44408,-16.27831 -8.38494,-19.47817 -2.87678,-1.32627 -8.57298,-5.62386 -12.65822,-9.55028 l -7.42772,-7.13889 -16.88116,-1.4737 c -12.31714,-1.07527 -21.03588,-2.75506 -32.24835,-6.21313 -16.87955,-5.20584 -23.04901,-5.76062 -30.31241,-2.72575 -3.55923,1.48712 -5.07106,1.60651 -5.78178,0.45656 -1.33447,-2.15921 4.10077,-6.25513 9.69245,-7.30414 2.54667,-0.47776 4.63034,-1.2854 4.63034,-1.79476 0,-0.50937 -2.43088,-3.29985 -5.40197,-6.20102 -5.18234,-5.06044 -6.90111,-8.77821 -4.05828,-8.77821 0.73904,0 5.07376,3.00575 9.63276,6.67941 16.36703,13.18869 34.87721,20.33046 52.6931,20.33046 10.97519,0 9.89309,-2.25406 -3.58817,-7.47448 -10.76582,-4.16889 -14.44096,-7.38095 -8.44504,-7.38095 11.21779,0 28.06164,9.63411 38.32278,21.91932 3.55522,4.25653 8.50662,8.70839 11.0031,9.89309 4.09033,1.94097 4.85165,1.94912 7.70078,0.0824 8.95913,-5.87024 9.89565,-26.76984 1.90312,-42.4692 -2.51269,-4.93556 -5.52955,-9.15886 -6.70417,-9.38507 -3.69932,-0.71243 -8.16819,4.10442 -8.41992,9.07559 -0.28811,5.68593 -3.13031,6.91551 -4.94609,2.13963 -1.83721,-4.83216 0.53866,-9.1148 9.87953,-17.80856 9.43572,-8.78203 11.9927,-13.72817 12.03902,-23.28809 0.0477,-9.83515 -2.25114,-17.90781 -6.55633,-23.02425 -3.96937,-4.71731 -7.40214,-5.13183 -17.54791,-2.11887 -7.85172,2.33171 -13.18072,7.36662 -15.64731,14.7838 -0.96911,2.91428 -2.4443,5.52195 -3.27819,5.79484 -2.46798,0.80768 -2.99373,-4.24614 -1.02894,-9.89025 2.57643,-7.40125 2.44574,-7.85605 -3.00381,-10.45476 -4.80546,-2.29156 -4.93646,-2.27617 -9.36333,1.10038 -4.90342,3.74001 -10.07189,4.52623 -10.07189,1.53209 0,-1.04078 2.0893,-3.12504 4.6429,-4.63174 7.19368,-4.24433 9.30292,-9.62519 8.52207,-21.74011 -0.5348,-8.29743 -1.6468,-12.26136 -5.89914,-21.02876 -4.88392,-10.06964 -5.24009,-11.62037 -5.24009,-22.816 l 0,-12.01206 -6.75247,-1.95371 c -6.58897,-1.90645 -11.4792,-5.0242 -11.4792,-7.3186 0,-1.76136 4.56121,-1.35463 9.92041,0.88458 6.80717,2.84423 17.39314,2.63107 21.16872,-0.42631 l 3.02803,-2.45196 -4.04162,-4.63813 c -5.8588,-6.72357 -8.5543,-12.48293 -6.94865,-14.84674 1.10794,-1.63104 1.58363,-1.50886 2.94002,0.7551 4.20909,7.02545 15.68936,16.64875 23.35377,19.57622 9.37945,3.58254 25.74937,5.12013 30.04362,2.8219 3.14413,-1.68271 6.97202,-9.45008 6.95977,-14.12247 -0.0135,-5.38176 -2.7894,-12.90919 -6.296,-17.0765 -3.45708,-4.10851 -3.60919,-4.14714 -12.77778,-3.2437 -7.79798,0.76843 -9.27906,0.58715 -9.27906,-1.13559 0,-1.30183 1.84815,-2.39204 5.06435,-2.98733 8.58558,-1.58917 14.0314,-4.8873 16.05102,-9.7209 2.32982,-5.5761 1.14495,-14.29263 -2.37611,-17.47912 -2.26347,-2.04843 -3.39689,-2.11555 -10.30363,-0.61002 -11.3965,2.48419 -15.57727,5.52572 -20.07423,14.60428 -2.32551,4.69481 -5.92322,5.92808 -5.90949,2.02574 0.004,-1.29985 0.91617,-4.10406 2.02574,-6.23158 3.00377,-5.7595 2.53114,-7.29402 -3.13729,-10.18583 -6.25134,-3.18919 -9.26686,-6.50218 -7.51387,-8.25516 0.78247,-0.78248 3.77309,0.009 7.86946,2.08295 8.01558,4.05801 10.8052,4.12833 23.55976,0.59386 18.4228,-5.10522 20.44206,-7.56519 20.3555,-24.79781 -0.14991,-29.79868 -3.88718,-44.67414 -12.07666,-48.06631 -14.47337,-5.99507 -45.53725,9.99662 -60.02327,30.90001 -2.03893,2.94214 -4.5675,5.67955 -5.61909,6.08307 -3.05851,1.17367 -2.28913,-3.65079 1.4643,-9.18178 5.73131,-8.44553 3.74388,-11.08534 -7.11931,-9.45633 -5.36461,0.80449 -5.92385,0.63685 -5.47341,-1.64054 0.44476,-2.24794 1.83302,-2.53654 12.20328,-2.53654 11.37588,0 11.88236,-0.1373 18.19993,-4.92691 3.57412,-2.70977 9.49167,-6.6759 13.15011,-8.81355 3.65844,-2.13765 6.87149,-4.54594 7.14006,-5.35178 0.26875,-0.80584 -1.66111,-4.03798 -4.28831,-7.18256 -4.92102,-5.89004 -6.23091,-10.86377 -2.86116,-10.86377 1.05357,0 3.15062,1.99823 4.66002,4.44056 7.67976,12.42607 29.29562,15.32738 36.702,4.92615 8.54723,-12.00355 -3.03172,-31.39182 -22.13585,-37.06515 -8.95022,-2.65791 -32.93993,-2.64319 -43.47878,0.027 -14.2021,3.59798 -30.09908,12.35917 -39.55127,21.79764 -5.11054,5.10311 -8.36667,9.44337 -8.10296,10.80079 0.38759,1.9941 10.87768,6.8127 15.50717,7.12305 0.87868,0.059 1.97627,-2.91198 2.5103,-6.79474 1.03029,-7.4911 6.24927,-14.99849 7.1555,-10.29297 0.24984,1.29733 -0.21743,4.39338 -1.0379,6.88009 -1.51188,4.58097 -0.0824,11.66277 2.35432,11.66277 0.62217,0 2.86696,-1.81168 4.98836,-4.02595 6.0896,-6.35619 13.86966,-11.247 16.36686,-10.28874 1.74159,0.66832 -0.28316,3.21386 -9.17125,11.52948 -18.03728,16.87586 -24.80227,33.00521 -21.56306,51.41163 1.70405,9.68285 4.60505,14.57803 10.29004,17.36329 5.15551,2.52587 16.02126,0.2854 28.63181,-5.90368 12.83487,-6.2992 18.01059,-13.54226 18.01059,-25.20471 0,-5.82783 0.48843,-7.87144 1.88124,-7.87144 2.17744,0 3.52073,2.87614 3.52073,7.53818 0,4.76193 2.53515,3.99255 4.81379,-1.46096 1.09872,-2.62968 2.94052,-4.72673 4.15137,-4.72673 3.32888,0 1.32799,7.41272 -4.28169,15.86231 -7.4558,11.23039 -24.58573,22.13202 -41.83694,26.62539 -4.4135,1.14954 -9.01495,3.15106 -10.22544,4.44771 -1.21049,1.2967 -3.20814,6.59095 -4.43925,11.76501 -1.23111,5.1741 -3.74942,11.58786 -5.59622,14.25279 -3.88069,5.59982 -4.09321,7.75359 -1.40101,14.19702 1.60218,3.8345 2.67461,4.68333 5.91701,4.68333 8.57154,0 17.17855,-14.64273 13.63521,-23.19707 -1.0582,-2.55468 -1.177,-4.42764 -0.33447,-5.27034 2.04591,-2.04591 5.42926,2.7144 6.75017,9.49748 l 1.1712,6.01415 7.20839,-0.38264 c 8.92636,-0.47375 8.96467,2.0961 0.0743,4.99494 -7.46143,2.43291 -20.68078,11.66565 -27.4829,19.19483 -10.04898,11.12294 -16.84867,31.34207 -15.06427,44.79376 0.46426,3.49944 2.27707,10.18672 4.02853,14.86065 5.385,14.37037 6.75557,23.47436 4.7762,31.7253 -1.40492,5.85632 -1.39272,8.14545 0.0671,12.56836 0.98163,2.97433 1.46961,5.72303 1.08445,6.1082 -1.6327,1.63265 -5.17757,-1.30548 -6.71938,-5.5693 -3.76639,-10.41582 -7.99695,-0.97826 -5.2672,11.75014 2.04204,9.52175 5.92219,15.40729 12.82393,19.45197 6.83017,4.00278 12.93125,4.22471 20.58661,0.7489 3.09636,-1.40591 5.98304,-2.20284 6.41484,-1.77104 1.88885,1.88889 0.46228,4.48125 -3.60397,6.54926 -2.41401,1.22769 -4.60734,2.42373 -4.87407,2.65791 -0.26694,0.23409 0.79679,2.22579 2.36337,4.42584 1.56657,2.20004 2.84832,4.63007 2.84832,5.40004 0,2.85638 -2.68986,2.92093 -5.47935,0.13144 -9.04142,-9.04142 -17.04854,-11.23192 -28.5073,-7.79883 -3.87124,1.1599 -5.6628,1.17885 -6.77003,0.0716 -1.10722,-1.10727 -0.14675,-2.30759 3.63022,-4.53595 4.90175,-2.89208 5.00259,-3.08966 2.21269,-4.33454 -3.63462,-1.62185 -6.18845,-0.51143 -18.30616,7.95945 -7.57244,5.29353 -9.87454,7.81085 -12.61289,13.79218 -4.29651,9.38476 -3.788,19.09292 1.62766,31.07724 2.10483,4.65772 3.46068,8.83493 3.01295,9.28267 -1.96722,1.96722 -5.38293,-1.41573 -8.70222,-8.61885 -4.89716,-10.62726 -5.19999,-26.55026 -0.66885,-35.17109 3.82086,-7.26948 3.79677,-7.91587 -0.33358,-8.95251 -7.87738,-1.97708 -27.16301,-26.43073 -31.90536,-40.45511 -2.55225,-7.54769 -3.01151,-7.94271 -11.98991,-10.31368 -4.431514,-1.17024 -8.004784,-3.58137 -13.195084,-8.90362 -3.91486,-4.01434 -8.26683,-7.29879 -9.67102,-7.29879 -3.39785,0 -9.19718,7.05894 -13.31411,16.20592 -4.41301,9.80472 -4.64021,20.1364 -0.62366,28.36037 2.91697,5.9726 16.97039,24.61 19.13329,25.37415 0.60714,0.21473 1.53295,-3.40203 2.0573,-8.03679 1.09188,-9.65098 2.64656,-13.28588 5.68238,-13.28588 1.76406,0 1.9313,0.8672 0.97681,5.06435 -2.6493,11.64972 -0.45732,25.86623 5.98661,38.82669 1.846534,3.71386 6.601174,15.21304 10.565854,25.55372 11.65548,30.3997 16.84264,37.25634 32.36971,42.78756 13.64147,4.85952 37.84867,3.80551 45.77903,-1.99333 2.26811,-1.6585 2.36251,-2.20333 0.72387,-4.1778 -2.75109,-3.31483 -11.11722,-7.27277 -18.90169,-8.94225 -4.62805,-0.99252 -6.79708,-2.12874 -6.79708,-3.56048 0,-1.74039 1.27491,-1.97118 7.3976,-1.33929 12.87691,1.32902 25.14038,9.86067 37.27371,25.93119 11.55023,15.29816 36.00393,26.72608 55.53707,25.95405 7.2657,-0.2872 9.69875,-0.96713 12.34009,-3.44853 z M 161.63124,771.04431 c 6.82243,-4.15988 10.14604,-12.21216 10.88939,-26.38257 0.76407,-14.56444 -1.83028,-26.49088 -7.90205,-36.32666 -2.67834,-4.33873 -3.62666,-7.07316 -2.75514,-7.94468 2.63261,-2.63261 5.8091,0.53502 10.31403,10.28531 4.99827,10.81813 7.30455,13.52434 10.48546,12.30372 3.0328,-1.16381 3.83423,-6.11499 2.29962,-14.20688 -1.91631,-10.10461 -6.96337,-20.39821 -16.30725,-33.25883 -8.69088,-11.96186 -12.03394,-18.60494 -12.03394,-23.91296 0,-6.91714 4.18703,-5.10869 5.9686,2.57791 1.05946,4.5712 9.63564,18.23166 11.44602,18.23166 0.64958,0 1.60497,-3.39266 2.12302,-7.53922 0.98095,-7.85118 4.29439,-18.44958 8.05358,-25.76021 4.82274,-9.37904 2.5107,-17.20196 -6.14344,-20.78662 -5.16533,-2.13954 -4.77251,-6.18616 0.54573,-5.62219 3.17843,0.33717 3.66587,-0.0963 3.66587,-3.25798 0,-2.00571 1.78729,-6.43469 3.97171,-9.84221 4.50457,-7.02662 7.02194,-16.38838 5.90657,-21.96547 -0.41506,-2.07557 -2.33379,-5.35277 -4.26365,-7.28262 -2.78665,-2.78666 -4.49003,-3.39154 -8.2756,-2.93877 -2.62171,0.31377 -5.82513,1.03543 -7.11872,1.60407 -1.62892,0.71608 -2.62356,0.32637 -3.23542,-1.2682 -1.00832,-2.62774 1.10889,-4.41778 6.64825,-5.62084 5.20539,-1.13055 6.37154,-4.02668 4.81955,-11.9697 -1.65165,-8.45305 -0.4101,-20.61339 2.98392,-29.22382 4.48701,-11.38358 3.10258,-15.20422 -6.7025,-18.49717 -15.97548,-5.36524 -32.49103,3.94501 -43.4407,24.48872 -3.50475,6.57556 -4.4315,9.94445 -4.52293,16.44159 l -0.11479,8.17147 6.75246,0 6.75247,0 0.402,-8.44058 c 0.34933,-7.33417 0.74763,-8.44059 3.03861,-8.44059 2.29548,0 2.63652,0.96083 2.63652,7.42772 0,4.08524 0.60772,7.42771 1.35049,7.42771 0.74278,0 1.3505,-2.72516 1.3505,-6.05593 0,-4.79533 0.82452,-6.97394 3.96118,-10.46632 3.04104,-3.38587 4.33445,-4.04243 5.56804,-2.82631 1.23975,1.22219 0.95236,2.50314 -1.25808,5.60747 -2.56035,3.59569 -2.82928,5.59379 -2.52943,18.79495 l 0.33537,14.77152 -7.86396,15.53014 c -6.61081,13.05531 -7.89233,16.74018 -8.04179,23.12306 -0.19987,8.5321 0.89425,10.69928 3.5604,7.05309 2.4597,-3.36386 4.92048,-1.47686 4.90445,3.76085 -0.036,11.5939 -12.21706,26.38189 -27.3949,33.25644 -8.79711,3.9845 -12.87502,7.60238 -15.97057,14.16902 -1.02458,2.17344 -2.54766,4.17424 -3.38461,4.44619 -3.280304,1.06581 -2.88839,-3.9163 0.89493,-11.3762 2.18284,-4.30416 3.97653,-7.97764 3.98593,-8.16333 0.0689,-1.35522 -3.15466,0.22778 -6.18773,3.03861 -4.567154,4.23267 -5.949604,4.25545 -5.949604,0.0981 0,-6.60594 12.627744,-12.03376 20.782924,-8.93316 3.20067,1.21689 4.82185,0.87067 10.56816,-2.25685 6.95774,-3.78688 13.21521,-10.50702 13.21521,-14.19234 0,-1.13901 -0.98195,-4.42106 -2.18209,-7.29347 -3.78786,-9.0656 -2.03749,-22.5491 4.67901,-36.04373 8.83714,-17.7553 7.30946,-27.93879 -4.1913,-27.93879 -9.6766,0 -17.43217,6.71605 -24.17257,20.93265 -4.29642,9.06181 -4.93736,14.18019 -1.77581,14.18019 6.4152,0 2.37849,8.62168 -9.41443,20.10736 -14.620134,14.23929 -19.520984,27.61777 -20.585714,56.19552 -0.77176,20.71311 1.45043,36.26372 6.06791,42.4624 4.28048,5.74635 11.769864,10.94791 16.980614,11.7935 4.50259,0.73066 5.12395,0.47474 5.85232,-2.41032 0.44836,-1.77531 3.82239,-9.00117 7.49821,-16.0575 7.64501,-14.67581 8.27199,-19.56627 3.68585,-28.74913 -1.75483,-3.51371 -2.68982,-7.14177 -2.18172,-8.46584 0.83578,-2.17798 1.0474,-2.17375 3.52749,0.0707 1.45106,1.31322 2.99864,3.52299 3.43908,4.91057 1.17115,3.68996 3.57336,3.10785 8.6071,-2.08565 2.45673,-2.5347 5.65172,-4.91841 7.10004,-5.29713 5.02482,-1.31403 4.073,2.95443 -1.96421,8.80819 -4.19215,4.0648 -6.72959,8.06798 -8.39975,13.25189 -1.31615,4.08525 -5.34849,13.07868 -8.96075,19.98537 -10.62483,20.31507 -9.33628,29.31778 7.28744,50.91554 4.00197,5.1994 9.29653,10.82083 11.76573,12.49207 5.55957,3.76292 12.76855,3.91274 18.55335,0.38534 z m 105.84818,-36.42579 c 17.63578,-5.46986 22.6511,-12.02704 18.17111,-23.7577 -2.79327,-7.31405 -13.26099,-18.08414 -20.94345,-21.54847 -2.99652,-1.35126 -5.44821,-3.27608 -5.44821,-4.27742 0,-3.59983 6.72848,-1.72017 15.61099,4.36101 10.17831,6.96832 11.34261,6.71457 12.40419,-2.70382 1.41964,-12.59479 -6.93911,-25.08573 -16.7869,-25.08573 -2.62374,0 -9.87589,-1.33906 -16.11594,-2.97564 l -11.34545,-2.97567 -7.15838,3.51078 c -6.0725,2.97825 -7.40201,4.32406 -8.76461,8.87194 -2.75155,9.1838 -1.94787,14.86227 3.90013,27.55758 5.75923,12.50251 8.46714,25.25887 7.14137,33.64134 -1.19596,7.56141 2.00282,9.88628 12.26558,8.91474 4.49557,-0.42586 12.17686,-2.01543 17.06957,-3.53294 z m 46.08037,310.13928 -5.68315,-5.7907 0,-15.232 c 0,-14.1442 0.23994,-15.5465 3.35751,-19.634 l 3.3575,-4.4019 -4.03275,-3.86362 -4.03275,-3.86359 0,-37.85631 0,-37.85632 7.03877,-7.12732 7.03882,-7.12736 -5.68833,-5.79591 -5.68828,-5.79596 0,-15.53599 0,-15.53599 6.08227,-5.96931 6.08226,-5.96927 -6.08226,-6.17514 -6.08227,-6.17508 0,-21.66372 c 0,-21.36184 0.0468,-21.70792 3.37624,-24.83553 1.85693,-1.74448 3.37623,-3.73781 3.37623,-4.42958 0,-0.69176 -1.5193,-3.06332 -3.37623,-5.27016 -3.16259,-3.75851 -3.37624,-4.97193 -3.37624,-19.17458 l 0,-15.16212 4.72673,-4.58133 c 2.5997,-2.5197 4.72673,-5.25445 4.72673,-6.07722 0,-0.82277 -2.19158,-3.5902 -4.8702,-6.14992 l -4.87015,-4.65403 0.76222,-11.27275 c 0.4191,-6.20002 1.48455,-12.14314 2.36737,-13.20692 1.27622,-1.53772 1.01103,-2.56662 -1.294,-5.02019 -2.38537,-2.53911 -2.89919,-4.73299 -2.89919,-12.37858 0,-8.2512 0.40785,-9.7182 3.63949,-13.09133 l 3.63953,-3.79885 -4.99002,-5.11022 c -4.95168,-5.07097 -4.98999,-5.19733 -4.98999,-16.45855 0,-10.47556 0.2791,-11.63968 3.62891,-15.13611 l 3.62887,-3.78777 -3.62887,-3.78778 c -3.24361,-3.38559 -3.62891,-4.80838 -3.62891,-13.40131 0,-8.25061 0.47249,-10.17506 3.33266,-13.57417 l 3.33266,-3.96063 -3.33266,-3.1309 -3.33266,-3.13085 0,-30.56104 0,-30.56099 4.72673,-4.58132 c 5.62728,-5.45415 5.77629,-6.64614 1.35049,-10.80395 -3.21282,-3.01831 -3.37623,-3.90626 -3.37623,-18.34745 l 0,-15.17563 8.97353,-8.22257 8.97354,-8.22261 31.92116,0 31.92117,0 8.01842,8.10296 c 7.69034,7.77146 8.29694,8.10296 14.82581,8.10296 l 6.80743,0 26.65955,26.68463 26.6596,26.68458 0,16.23257 0,16.23257 8.77821,8.7002 8.77821,8.70019 0,16.27476 0,16.27475 11.47919,11.41955 11.4792,11.41954 0,23.00701 0,23.00697 18.15122,18.11385 18.15121,18.11385 0.009,20.76699 0.009,20.76704 -4.61346,5.10657 -4.61352,5.10658 4.60096,4.45942 4.60095,4.45938 -0.045,13.84296 -0.045,13.84292 -5.28295,5.15866 -5.28295,5.15866 5.61418,5.72046 5.61423,5.72042 -0.83118,11.77748 c -0.77127,10.92936 -1.1459,12.10218 -5.20219,16.28722 l -4.37106,4.50979 4.9962,5.11657 4.9962,5.11662 0,15.50754 0,15.50753 -10.12871,10.06109 -10.1287,10.06109 0,13.99759 0,13.9976 -14.0689,14.8742 c -7.73788,8.18079 -14.45919,16.48237 -14.93623,18.44801 -0.47704,1.96564 -6.44042,9.19533 -13.2519,16.06597 -12.36102,12.46833 -12.39753,12.49203 -19.19754,12.49203 -6.68368,0 -7.00384,0.1923 -16.87405,10.1287 l -10.06109,10.1287 -16.29614,0 -16.29618,0 -5.96436,6.0773 -5.96432,6.0772 -17.72446,0 -17.72447,0 -4.34111,5.402 -4.34116,5.4019 -16.53635,0 -16.53634,0 -5.68315,-5.7907 z m 39.28959,-4.1901 c 4.7965,-5.0837 8.96764,-7.5756 12.6805,-7.5756 1.42689,0 19.30441,-16.8789 42.55406,-40.17717 l 40.09349,-40.17719 0.4128,-11.81997 0.4128,-11.81997 -11.29845,0.003 -11.29845,0.003 -9.13969,8.10296 -9.13969,8.10296 -18.25517,0 -18.25511,0 -9.45337,10.12258 c -8.09287,8.66576 -9.43432,10.79467 -9.32097,14.7929 0.24984,8.81323 -8.09071,13.30997 -13.90432,7.49636 -5.26931,-5.26931 -1.82672,-14.85542 5.33495,-14.85542 1.11816,0 6.75629,-4.69558 12.5292,-10.43464 8.88566,-8.83263 10.49622,-11.12073 10.49622,-14.91102 0,-2.61051 -1.12614,-5.68599 -2.70099,-7.3764 -1.48554,-1.59457 -2.70099,-4.11279 -2.70099,-5.59608 0,-3.74902 5.23721,-8.94824 9.0136,-8.94824 4.05733,0 8.54282,4.51349 8.54282,8.59607 0,1.75677 -1.21545,4.73929 -2.70099,6.62787 -5.59145,7.10836 -4.41287,7.73445 14.56008,7.73445 l 17.26106,0 8.01842,-8.10296 8.01842,-8.10296 13.58344,0 13.5834,0 9.38103,-9.45346 9.38102,-9.45345 8.75012,0 c 8.01248,0 9.12555,-0.36373 13.20355,-4.3164 3.07237,-2.97784 4.45339,-5.56237 4.45339,-8.33426 0,-5.45536 3.48377,-8.95724 8.91091,-8.95724 4.92215,0 8.6455,3.86773 8.6455,8.9807 0,3.74455 -6.2969,8.82871 -10.28702,8.30585 -2.868,-0.37589 -9.97038,4.7942 -9.97038,7.25773 0,0.6133 1.82316,1.1151 4.05148,1.1151 8.14856,0 12.35463,9.25327 6.75247,14.85543 -5.62197,5.62197 -13.06607,2.48239 -14.41985,-6.08163 -0.4693,-2.96866 -1.5189,-5.84404 -2.33253,-6.38977 -0.81363,-0.54569 -4.74681,-1.00148 -8.74044,-1.01287 -7.22591,-0.0225 -7.3027,0.0225 -15.83427,9.09517 l -8.57315,9.11583 -0.036,12.7654 c -0.0315,12.54802 0.0405,12.84121 4.28242,17.21879 2.97784,3.07238 5.56236,4.45339 8.33425,4.45339 5.17604,0 8.95724,3.4682 8.95724,8.21582 0,6.89017 -7.2761,11.07787 -12.87439,7.40975 -3.25176,-2.13063 -5.80694,-8.19839 -4.15007,-9.85522 1.04556,-1.04556 -5.86528,-8.47133 -7.88391,-8.47133 -0.79458,0 -18.14874,16.71235 -38.56483,37.13857 l -37.12016,37.13857 9.46957,0 9.46962,0 12.91963,-13.1673 c 9.89957,-10.0894 12.97266,-14.0907 13.14638,-17.1173 0.67718,-11.79727 16.42385,-11.76729 16.42385,0.032 0,5.0464 -3.8932,8.6455 -9.35203,8.6455 -3.13896,0 -12.25587,7.2293 -12.25587,9.7183 0,0.5971 4.93155,1.0856 10.95903,1.0856 l 10.95903,0 10.60786,-10.323 c 10.05253,-9.7825 10.98122,-10.3558 17.739,-10.9494 6.76831,-0.5946 7.66351,-1.14988 17.59738,-10.91561 l 10.46633,-10.28914 0,-12.98972 c 0,-11.27455 -0.35653,-13.3124 -2.70099,-15.43403 -5.64272,-5.10662 -1.8463,-14.18018 5.93308,-14.18018 3.56769,0 7.1153,-2.94678 24.7748,-20.57869 l 20.61087,-20.57868 0,-13.67677 c 0,-11.79152 -0.38579,-14.16726 -2.79898,-17.23513 -4.47738,-5.6921 -8.00496,-4.0707 -8.00496,3.67929 0,8.56356 -9.529,12.05675 -14.75743,5.40989 -1.53943,-1.95709 -2.79899,-4.41562 -2.79899,-5.46333 0,-2.99035 6.30424,-8.53273 9.72972,-8.5538 1.78495,-0.009 6.394,-2.92283 10.86531,-6.86433 l 7.76533,-6.84525 0,-11.1147 c 0,-10.61024 -0.18546,-11.29246 -4.09041,-15.03351 l -4.09047,-3.91891 -12.73182,12.78206 -12.73178,12.78206 -0.66777,9.97097 c -0.50675,7.56645 -1.33515,10.68137 -3.43517,12.91675 -1.52205,1.62014 -2.76738,4.68189 -2.76738,6.80383 0,2.12199 -1.00576,4.96946 -2.23507,6.32783 -2.27644,2.51547 -7.94869,3.25203 -10.84775,1.40865 -2.61739,-1.6643 -4.22434,-7.46134 -2.98697,-10.77541 1.19491,-3.20035 7.24121,-6.32782 9.51575,-4.92209 2.73943,1.69306 6.55404,-3.7894 6.55404,-9.41961 l 0,-5.50213 -12.15444,12.09812 c -9.81008,9.76466 -12.15445,12.86449 -12.15445,16.07142 0,7.99541 -8.9729,11.96568 -14.13966,6.25647 -5.29538,-5.85133 -0.92923,-14.90017 7.18944,-14.90017 2.84427,0 10.3699,-6.81149 37.66423,-34.09002 l 34.10968,-34.09005 0,-12.07733 c 0,-10.54137 -0.37363,-12.47483 -2.93637,-15.203 -1.61506,-1.71909 -3.58399,-3.12563 -4.37542,-3.12563 -0.79148,0 -12.23223,10.78072 -25.42399,23.95717 l -23.98494,23.95721 0,9.44545 0,9.44548 -14.49481,14.53987 -14.49475,14.53986 -9.09189,0 c -8.17629,0 -9.55649,0.40785 -13.70624,4.05148 -4.57854,4.02002 -4.7401,4.05148 -20.81426,4.05148 -12.8413,0 -16.55282,0.42541 -17.90214,2.05109 -2.39173,2.88181 1.87259,7.40237 6.98281,7.40237 4.74478,0 9.24413,4.27255 9.24413,8.7782 0,1.85693 -1.21544,4.59168 -2.70099,6.07723 -5.68773,5.68773 -13.19729,1.80182 -14.73109,-7.62277 -0.43981,-2.70216 -1.85675,-5.57975 -3.14886,-6.39464 -1.9845,-1.25163 -4.08573,0.24579 -13.53311,9.6441 l -11.18389,11.12577 -20.18673,0 -20.18672,0 -7.13259,7.04395 -7.13254,7.04395 0,35.12724 0,35.12719 9.75727,9.82282 c 14.56543,14.66338 14.33995,14.72038 38.95935,-9.85798 18.25678,-18.22635 20.15427,-19.73836 25.67572,-20.45907 3.27909,-0.42811 7.41137,-1.90289 9.18277,-3.27756 4.19076,-3.25208 8.93388,-3.17438 12.30993,0.20167 3.45083,3.45083 3.42157,6.82265 -0.0981,11.29706 -3.32896,4.23213 -8.27938,4.63445 -11.94317,0.9706 -1.42329,-1.42328 -4.75626,-2.77459 -7.40661,-3.00291 -4.14507,-0.35698 -5.67139,0.4218 -10.91716,5.56993 -3.35409,3.29178 -6.09838,6.3344 -6.09838,6.76138 0,1.74277 6.88063,0.31467 9.37958,-1.94701 8.06884,-7.3022 19.96511,3.60942 12.69428,11.6436 -3.01245,3.32867 -10.18682,3.20391 -13.29565,-0.23139 -1.83784,-2.03082 -4.15948,-2.70098 -9.35681,-2.70098 -6.85731,0 -6.99843,0.0869 -17.68471,10.91314 l -10.7723,10.9131 -6.51523,-0.7327 c -4.65443,-0.5234 -7.85002,-1.9046 -11.18857,-4.8359 -5.43848,-4.775 -5.61004,-4.8112 -8.86207,-1.8681 -2.05573,1.8604 -2.46974,4.3426 -2.46974,14.8084 0,12.1379 0.14495,12.7387 4.19139,17.3471 l 4.19139,4.7737 13.4339,0 13.4339,0 4.32023,-4.5789 z m 79.01558,-38.2993 c -0.2503,-1.2999 -1.35009,-2.36338 -2.4439,-2.36338 -1.09381,0 -2.19356,1.06348 -2.4439,2.36338 -0.31917,1.6582 0.40965,2.3634 2.4439,2.3634 2.03402,0 2.76324,-0.7052 2.4439,-2.3634 z M 389.5815,991.12681 c 0,-1.09381 -1.06351,-2.19356 -2.36337,-2.4439 -1.65822,-0.31916 -2.36336,0.40965 -2.36336,2.4439 0,2.03402 0.70514,2.76324 2.36336,2.4439 1.29986,-0.25029 2.36337,-1.35009 2.36337,-2.4439 z m -43.05374,-18.16697 c 0.41371,-1.0786 0.34078,-2.62743 -0.1625,-3.44183 -1.31989,-2.13558 -4.77503,1.00324 -3.82618,3.47586 0.95512,2.48905 3.02736,2.47136 3.98877,-0.036 z m 57.07141,-2.9615 c -1.17686,-1.41806 -1.99153,-1.49374 -3.40954,-0.31692 -1.41807,1.17687 -1.49374,1.99153 -0.31692,3.40955 1.17682,1.41806 1.99148,1.49373 3.4095,0.31691 1.41806,-1.17686 1.49374,-1.99152 0.31692,-3.40954 z m 67.01194,-0.49793 c 0,-2.89478 -3.92408,-2.47667 -4.49327,0.47875 -0.34753,1.8048 0.20257,2.35481 2.00728,2.00729 1.36729,-0.26335 2.48599,-1.38205 2.48599,-2.48604 z m 53.3445,-35.88306 0,-10.61803 -9.2905,9.21932 c -6.8809,6.82814 -9.11025,9.90857 -8.59549,11.87696 0.3993,1.52624 -0.53263,4.31816 -2.1887,6.55809 -2.01066,2.71953 -2.87781,5.85916 -2.8643,10.36994 l 0.018,6.46954 11.4598,-11.62892 11.45979,-11.62896 0,-10.61794 z m -24.30889,11.59268 c 0,-1.48554 -0.8757,-2.70099 -1.94601,-2.70099 -2.38579,0 -3.91112,2.22242 -2.78072,4.05148 1.46867,2.37633 4.72673,1.44544 4.72673,-1.35049 z m -125.5959,-20.23652 c 0,-0.57238 -0.83096,-1.73029 -1.84657,-2.57318 -2.48221,-2.06004 -5.63597,1.28202 -3.35872,3.55927 1.5369,1.53691 5.20529,0.84194 5.20529,-0.98609 z M 500.83466,914.6281 c -1.17682,-1.41806 -1.99148,-1.49373 -3.4095,-0.31691 -1.41806,1.17682 -1.49374,1.99148 -0.31692,3.4095 1.17682,1.41806 1.99149,1.49373 3.40951,0.31691 1.41806,-1.17682 1.49373,-1.99148 0.31691,-3.4095 z M 389.04517,873.9715 c 21.0284,-21.22927 23.77418,-24.51182 24.00431,-28.69687 0.29755,-5.41287 2.03582,-7.5574 7.1387,-8.80751 7.68742,-1.88326 12.7808,10.21963 6.23141,14.80704 -1.6508,1.15624 -4.25649,2.10231 -5.79038,2.10231 -1.55955,0 -5.72065,2.97649 -9.43981,6.75247 l -6.65096,6.75246 12.99882,0 12.99877,0 8.19488,-9.11583 c 5.66955,-6.30671 8.20285,-10.23057 8.22072,-12.73322 0.0486,-6.79761 7.3615,-10.91054 12.92166,-7.26741 6.35065,4.1611 3.08561,15.61153 -4.45154,15.61153 -1.81034,0 -4.8367,1.21544 -6.72528,2.70099 l -3.43376,2.70098 5.4121,0 c 4.96644,0 6.44415,-0.98604 17.94716,-11.97527 l 12.5351,-11.97528 -0.96209,-20.66062 c -0.81417,-17.48434 -1.36531,-21.17321 -3.58484,-23.99489 -3.17173,-4.03221 -3.30529,-6.79667 -0.52048,-10.77257 2.89663,-4.13548 10.45516,-4.13548 13.35179,0 2.80088,3.99881 2.6498,6.7422 -0.59868,10.87197 -2.05266,2.60951 -2.70098,5.47863 -2.70098,11.95281 l 0,8.51905 7.33984,-7.24869 7.33984,-7.24863 0.65904,-12.28738 c 1.28072,-23.8774 3.15282,-29.1685 10.32065,-29.1685 4.49094,0 8.44059,4.14313 8.44059,8.85402 0,4.52266 -2.89006,7.38787 -8.62884,8.5547 -4.44934,0.90469 -4.54644,1.07436 -4.94349,8.6382 -0.22283,4.24348 0.0725,7.71542 0.65648,7.71542 0.58382,0 8.81836,-7.73968 18.29905,-17.1993 l 17.23757,-17.1993 0,-19.57626 0,-19.57631 -12.46537,-12.51741 c -6.85601,-6.88459 -12.83271,-12.51745 -13.28166,-12.51745 -0.44881,0 -0.82781,3.3878 -0.84203,7.52851 l -0.027,7.52846 -29.90835,30.01643 -29.90839,30.01643 0,18.05659 c 0,15.30397 -0.36013,18.45377 -2.36336,20.66183 -1.29985,1.43288 -2.99017,4.8232 -3.75622,7.53405 -0.9353,3.30965 -2.64994,5.53202 -5.21934,6.76493 -3.40703,1.63482 -4.2166,1.54618 -7.38535,-0.80881 -7.5711,-5.62669 -3.55639,-15.61022 6.01807,-14.9654 2.99318,0.20167 5.24383,-0.4128 6.04008,-1.6485 0.69802,-1.08337 1.11609,-8.95859 0.929,-17.50047 l -0.34032,-15.53067 -8.77821,-0.42721 c -7.27623,-0.35428 -9.4097,-1.02912 -12.46879,-3.94425 -3.64895,-3.47716 -3.72273,-3.48774 -6.53995,-0.93819 -1.56711,1.41825 -3.44295,3.6878 -4.16848,5.04342 -1.72449,3.22228 0.75254,6.30438 4.31758,5.37208 1.45691,-0.38083 4.16933,0.30342 6.02756,1.52102 6.34958,4.16042 3.22273,15.65645 -4.25842,15.65645 -4.23613,0 -8.56888,-4.55553 -8.56888,-9.0095 0,-6.7639 -3.23992,-8.54691 -15.53067,-8.54691 -12.44813,0 -15.99079,2.08511 -16.37051,9.63527 -0.40154,7.98858 -8.67809,12.0763 -14.24689,7.03657 -5.34715,-4.83913 -1.54807,-13.67744 6.2359,-14.50736 7.94198,-0.84672 9.71032,-8.91695 1.95385,-8.91695 -4.80208,0 -9.30895,-4.24991 -9.30895,-8.77821 0,-4.24127 4.4153,-8.77821 8.54282,-8.77821 4.91827,0 9.54533,5.78205 8.5619,10.69906 -1.21387,6.06939 2.70742,8.20785 15.05066,8.20785 l 9.94648,0 5.90535,-6.41484 5.9053,-6.41485 0.0536,-13.16731 c 0.0315,-7.24202 -0.37319,-13.16731 -0.89497,-13.16731 -0.5217,0 -2.95259,1.94237 -5.40198,4.3164 -3.23699,3.13742 -4.45338,5.51416 -4.45338,8.70164 0,7.85064 -9.40344,11.42972 -14.80281,5.63421 -3.49012,-3.74618 -3.47855,-6.56245 0.0455,-11.0424 1.88839,-2.40068 4.08907,-3.55837 6.76417,-3.55837 3.94749,0 12.04474,-5.77471 12.04474,-8.5899 0,-0.76506 -1.54672,-3.00544 -3.43719,-4.97864 -3.27089,-3.41414 -3.43646,-4.32703 -3.42323,-18.87572 l 0.0135,-15.28808 4.77372,-4.88874 c 2.62558,-2.68883 4.77377,-5.48989 4.77377,-6.22461 0,-0.73471 -3.64633,-4.94411 -8.10296,-9.35423 l -8.10296,-8.01842 0,-8.16936 0,-8.16937 -13.84256,-13.78556 c -10.75173,-10.70753 -14.45695,-13.62374 -16.59419,-13.06072 -1.67871,0.44207 -4.23033,-0.43846 -6.54377,-2.25802 -3.16817,-2.49211 -3.65682,-3.67226 -2.96978,-7.17256 0.45232,-2.3043 1.84193,-4.94934 3.08804,-5.8778 5.52856,-4.11923 13.90387,0.29081 13.90387,7.32138 0,3.50706 3.3088,8.54692 5.6113,8.54692 1.8739,0 1.2908,-6.52986 -0.68745,-7.69822 -5.5169,-3.25834 -5.32662,-12.15354 0.32457,-15.17806 3.94119,-2.10925 6.57726,-1.76123 9.60687,1.26838 3.50543,3.50543 3.42832,8.16455 -0.21158,12.7921 -4.62926,5.88518 -3.89622,14.66335 1.70739,20.44476 2.43989,2.51732 4.92466,4.57696 5.52171,4.57696 0.59706,0 1.08558,-8.15162 1.08558,-18.11471 l 0,-18.11471 -6.41485,-6.17819 c -6.16158,-5.93425 -6.73536,-6.17878 -14.53365,-6.19418 l -8.11876,-0.018 -21.57625,-21.6079 c -18.06794,-18.09445 -22.2203,-21.6079 -25.5372,-21.6079 -5.12391,0 -8.90039,-3.48598 -8.90039,-8.21581 0,-4.81672 3.21818,-7.99011 8.10296,-7.99011 4.93057,0 8.10297,3.18339 8.10297,8.13096 0,2.64071 1.40699,5.20526 4.3891,8.00028 5.68805,5.33112 7.6537,5.31311 3.15867,-0.027 -4.02456,-4.78286 -4.35039,-7.52945 -1.39398,-11.75033 2.34405,-3.34657 9.70325,-4.16064 12.48302,-1.38088 2.36233,2.36233 1.98153,10.59755 -0.62312,13.47568 -1.23404,1.36359 -2.2998,4.43079 -2.36836,6.81598 -0.10714,3.72016 1.70009,6.21655 12.70999,17.55818 l 12.83473,13.22142 7.36343,-0.009 c 6.44505,-0.009 7.9188,-0.5496 11.81682,-4.3277 l 4.45339,-4.3169 0,-27.13335 0,-27.13335 -6.41485,-6.19935 c -4.96441,-4.79767 -7.39098,-6.18575 -10.73201,-6.13903 -2.37439,0.0315 -5.26107,-0.72301 -6.41484,-1.68051 -2.75888,-2.28971 -2.68118,-9.33101 0.1373,-12.44547 4.82923,-5.33625 13.97085,-1.46132 13.97085,5.92192 0,2.7397 1.69415,5.72901 5.62166,9.91937 3.09195,3.29885 6.3285,5.9979 7.19232,5.9979 0.86386,0 2.88776,-1.40203 4.49759,-3.11559 3.50611,-3.73208 1.84428,-6.33786 -4.04207,-6.33786 -5.31554,0 -8.75498,-6.55089 -6.22474,-11.85598 1.36445,-2.86076 2.85422,-3.76649 6.726,-4.08898 4.06597,-0.33853 5.3773,0.20212 7.18697,2.96397 1.21742,1.85805 2.03244,4.77926 1.81114,6.49151 -0.73237,5.66622 0.9679,6.48948 13.40275,6.48948 l 11.70329,0 -10.06109,-10.1287 c -9.32592,-9.38859 -10.47411,-10.12871 -15.71322,-10.12871 -4.52802,0 -6.95202,-1.03537 -12.18825,-5.20606 -3.59488,-2.86336 -7.6938,-6.50969 -9.10881,-8.10296 -2.48387,-2.79692 -3.60091,-2.8969 -32.36934,-2.8969 l -29.79671,0 -7.13254,7.04395 -7.13259,7.04395 0,12.12671 c 0,11.3202 0.24129,12.37858 3.62891,15.9144 3.50755,3.6611 4.08561,3.78777 17.28632,3.78777 14.98584,0 16.89859,-0.82105 16.89859,-7.25386 0,-2.20697 1.00576,-5.12404 2.23507,-6.48237 4.89738,-5.41156 14.30848,-1.21238 14.30848,6.38433 0,4.67275 -2.74236,7.21699 -8.4811,7.86847 -2.57742,0.2926 -5.14201,0.59993 -5.69908,0.68299 -1.72476,0.25704 -1.11569,3.78637 0.94921,5.50011 2.98689,2.47887 14.00372,2.0392 17.00699,-0.67872 2.99346,-2.70904 8.53454,-3.01124 11.41289,-0.62244 1.11641,0.92657 2.02988,3.53753 2.02988,5.80208 0,8.1397 -7.97012,11.89065 -13.50493,6.35583 -1.48555,-1.48554 -4.03978,-2.70099 -5.67604,-2.70099 -2.68316,0 -2.45745,0.53012 2.2998,5.40198 2.97491,3.04657 6.56227,5.40197 8.22743,5.40197 4.55333,0 8.99136,4.33283 8.99136,8.77821 0,4.26481 -4.38969,8.77821 -8.53759,8.77821 -4.04617,0 -8.277,-5.50732 -7.63695,-9.94117 0.48595,-3.36651 -0.96565,-5.36569 -11.27676,-15.53067 l -11.83446,-11.66674 -13.12631,0.0405 -13.12625,0.0405 -4.53825,5.24996 -4.53819,5.24995 0,27.71069 c 0,26.59252 0.11839,27.83682 2.93637,30.83631 2.62923,2.79872 4.15502,3.12567 14.58533,3.12567 12.85454,0 14.89014,-0.99166 14.89014,-7.25386 0,-5.17131 3.46982,-8.95206 8.21582,-8.95206 4.81671,0 7.9901,3.21818 7.9901,8.10296 0,6.02892 -3.85764,8.89674 -11.02191,8.19385 -1.23409,-0.12109 -2.65377,0.44341 -3.15489,1.25412 -1.3816,2.23551 1.93422,5.40746 5.65276,5.40746 5.78047,0 8.52404,2.37493 8.52404,7.37878 0,5.47378 -2.94623,8.82714 -7.75548,8.82714 -4.82463,0 -8.45044,-3.66573 -8.45044,-8.54353 0,-7.09811 -3.11307,-9.01288 -14.65321,-9.01288 -9.211,0 -10.5447,0.34662 -13.97086,3.62891 -3.25617,3.11955 -3.78777,4.67734 -3.78777,11.09908 0,7.19349 0.26109,7.73441 7.04395,14.60275 5.15042,5.2152 8.05474,7.13258 10.80394,7.13258 4.3011,0 9.16198,4.20238 9.16198,7.92083 0,3.98098 -5.20899,9.63559 -8.87621,9.63559 -4.72016,0 -8.68021,-4.54545 -8.68021,-9.96336 0,-6.20074 -2.91198,-8.54232 -6.64654,-5.34466 -2.3572,2.01826 -2.80691,3.95294 -2.80691,12.07476 0,9.57077 0.0563,9.72225 5.40584,14.5553 5.34589,4.82968 5.53743,4.88388 17.25503,4.88388 l 11.84914,0 9.39372,-9.46624 c 7.16486,-7.22019 9.44261,-10.43877 9.59985,-13.56494 0.42,-8.34668 8.50316,-12.19761 14.02109,-6.67968 5.67158,5.67158 1.93067,14.85543 -6.05111,14.85543 -2.82442,0 -5.36461,1.15238 -7.46238,3.38533 l -3.18032,3.38533 3.87286,4.04239 c 4.41526,4.60855 12.53105,5.62043 15.58312,1.94291 3.11608,-3.75465 6.2775,-4.74348 10.28923,-3.21819 4.47958,1.70311 5.80694,3.50309 5.83485,7.91232 0.0473,7.46233 -9.38021,10.96286 -14.83477,5.5083 -1.67204,-1.67204 -4.50164,-2.70098 -7.42771,-2.70098 l -4.72673,0 0,24.24014 0,24.24019 4.51659,3.44493 c 2.4841,1.89474 6.03626,3.44497 7.89364,3.44497 8.15752,0 10.85036,12.40708 3.45807,15.93258 -3.0662,1.46232 -4.36151,1.46097 -7.42771,-0.009 -2.96789,-1.42171 -3.8729,-2.96744 -4.5057,-7.69552 -0.45809,-3.42287 -1.82236,-6.66999 -3.237,-7.70438 -2.12613,-1.55469 -3.12171,-1.25213 -7.63002,2.31848 -2.85165,2.25857 -5.54944,4.69643 -5.99506,5.41746 -1.24903,2.02097 1.93674,5.04013 4.5869,4.34706 1.30044,-0.33988 4.01282,0.67835 6.02757,2.2632 6.79352,5.34377 3.49229,14.83985 -5.15893,14.83985 -5.28862,0 -7.50001,-2.40991 -8.09603,-8.82277 -0.70279,-7.56159 -2.44137,-8.73342 -12.95803,-8.73342 -5.10847,0 -9.28811,0.5018 -9.28811,1.11511 0,1.99107 5.98282,6.61111 9.69664,7.4879 7.44981,1.75884 10.37309,9.33979 5.62471,14.58668 -5.21034,5.75738 -13.97085,1.41302 -13.97085,-6.92817 0,-3.8264 -1.02125,-5.91755 -4.56935,-9.35649 l -4.56931,-4.42881 -4.88415,4.88415 -4.8841,4.88411 0,12.88492 0,12.88493 7.6333,8.00271 c 5.68616,5.96139 8.57613,8.0027 11.32956,8.0027 5.22281,0 9.73512,4.06877 9.73512,8.77821 0,4.15894 -4.36223,8.77821 -8.28969,8.77821 -4.25851,0 -8.25385,-4.00232 -8.25385,-8.26831 0,-8.37067 -4.55958,-11.69126 -9.68475,-7.05304 -2.17718,1.97033 -2.46969,4.56399 -2.46969,21.89911 l 0,19.66409 6.36406,6.46121 c 3.8765,3.93565 7.55844,6.46125 9.41965,6.46125 2.01872,0 7.27695,-4.09865 15.49574,-12.07845 6.8421,-6.64312 13.02844,-11.7149 13.7474,-11.27054 0.75024,0.46367 0.86823,0.0977 0.27685,-0.85914 -0.61974,-1.00279 0.0225,-2.40393 1.60961,-3.51619 1.60623,-1.12501 2.6873,-3.51552 2.76095,-6.105 0.24353,-8.56672 9.87701,-12.83892 14.39752,-6.385 4.46072,6.36857 0.56765,13.65462 -7.29595,13.65462 -3.02673,0 -5.75653,1.81398 -11.56928,7.68809 l -7.60787,7.68809 5.76076,0.92117 5.7608,0.92117 10.55266,-10.49077 c 7.6704,-7.62543 10.55267,-11.43175 10.55267,-13.93583 0,-5.16006 3.5951,-9.44801 7.92141,-9.44801 11.50242,0 12.32596,15.81333 0.8568,16.45198 -3.78102,0.21068 -11.4792,5.64903 -11.4792,8.10958 0,0.60381 2.56193,1.09782 5.69319,1.09782 4.97117,0 6.51275,-0.80719 12.15449,-6.36407 4.38131,-4.31546 6.46121,-7.47921 6.46121,-9.82821 0,-5.28088 3.58304,-9.4671 8.10296,-9.4671 4.55706,0 8.10296,4.19603 8.10296,9.58859 0,4.414 -2.72413,6.82697 -8.19304,7.25715 -2.9502,0.23229 -6.21322,2.35153 -11.19514,7.2716 l -7.03139,6.94401 -10.68758,0 c -9.6563,0 -11.03952,0.33718 -14.33486,3.49431 -3.15187,3.01971 -5.17955,3.59353 -14.9293,4.22493 -11.07522,0.71725 -16.0088,2.70837 -16.0088,6.46094 0,2.73723 5.17694,6.45856 9.45269,6.79492 2.24097,0.17647 4.98103,1.07292 6.08911,1.99252 2.68802,2.23088 2.56211,9.30184 -0.22058,12.37651 -4.97999,5.50285 -14.34436,1.17236 -14.2749,-6.60139 0.0477,-5.36034 -5.81428,-11.18632 -11.25582,-11.18632 -3.36534,0 -5.51573,1.31668 -9.87603,6.04706 l -5.57398,6.04701 0,12.18073 c 0,12.09863 0.0315,12.2172 4.88388,17.58663 l 4.88388,5.40584 20.45192,0 20.45196,0 23.74443,-23.97126 z m 17.4175,17.82926 c 0,-2.73052 -2.57382,-3.74776 -4.80254,-1.89803 -1.45826,1.21022 -1.5952,2.11347 -0.51737,3.4122 1.73223,2.08719 5.31991,1.06603 5.31991,-1.51417 z m 101.64413,-0.0671 c 1.28882,-1.28877 -0.47231,-4.59469 -2.44764,-4.59469 -2.2623,0 -3.73825,2.26833 -2.6362,4.05148 0.92238,1.49247 3.8245,1.80255 5.08384,0.54321 z m -35.90602,-13.50919 c 0.95543,-2.48977 -2.31065,-5.08488 -4.12108,-3.27445 -1.47406,1.47406 -0.12109,5.4365 1.85616,5.4365 0.78941,0 1.80863,-0.97294 2.26492,-2.16205 z m 24.06971,-5.94091 c 0,-1.09381 -1.06352,-2.19356 -2.36337,-2.4439 -1.65818,-0.31917 -2.36336,0.40965 -2.36336,2.4439 0,2.03402 0.70518,2.76324 2.36336,2.4439 1.29985,-0.25029 2.36337,-1.35009 2.36337,-2.4439 z m 29.74741,-1.40965 c 0.47915,-0.77532 0.13055,-2.30214 -0.77473,-3.39289 -1.25749,-1.51521 -2.08562,-1.61834 -3.50913,-0.43666 -1.40924,1.16953 -1.48982,1.99621 -0.33087,3.39285 1.83132,2.20657 3.42751,2.35769 4.61459,0.43711 z m -173.81356,-8.49334 c 0.29441,-1.51809 -0.47542,-2.25145 -2.36336,-2.25145 -1.54002,0 -2.80003,0.81029 -2.80003,1.80065 0,4.13621 4.37457,4.51813 5.16339,0.4508 z m 71.81474,-17.84691 c 0,-2.73052 -2.57381,-3.74775 -4.80253,-1.89803 -1.45826,1.21023 -1.5952,2.11348 -0.51738,3.41221 1.73224,2.08718 5.31991,1.06603 5.31991,-1.51418 z m 33.3088,1.32448 c 1.12559,-2.93319 -1.73192,-5.69166 -3.77724,-3.64634 -1.72872,1.72873 -0.65778,5.76287 1.5298,5.76287 0.7894,0 1.80074,-0.95241 2.24744,-2.11653 z M 396.1092,809.38689 c -0.4065,-1.05987 -1.60511,-1.92702 -2.66308,-1.92702 -2.67736,0 -3.9795,4.07898 -1.74336,5.46103 2.35198,1.45359 5.38649,-0.98014 4.40644,-3.53401 z m 49.51778,1.26235 c 0,-2.54316 -3.8408,-3.94025 -5.70561,-2.07544 -1.06311,1.06311 -1.01044,2.02948 0.18952,3.47527 1.92922,2.32456 5.51609,1.41433 5.51609,-1.39983 z m -70.47978,-0.84149 c 0.30161,-1.56734 -0.4038,-2.34788 -2.12275,-2.34788 -3.30633,0 -4.38042,1.11699 -3.43737,3.57457 1.00265,2.61289 4.99012,1.73318 5.56012,-1.22669 z m 42.55711,1.16039 c 0.91068,-2.37314 -0.17781,-3.50827 -3.36376,-3.50827 -1.57558,0 -2.47591,0.98217 -2.47591,2.70099 0,3.14593 4.69328,3.79475 5.83967,0.80728 z m -80.57035,-12.37728 c 1.12559,-2.93318 -1.73192,-5.69165 -3.77724,-3.64633 -1.72873,1.72872 -0.65778,5.76287 1.52979,5.76287 0.78941,0 1.80075,-0.95241 2.24745,-2.11654 z m 148.67061,-13.75104 c 0.7384,-2.21769 -3.49305,-3.80074 -5.30798,-1.98581 -0.77667,0.77667 -0.98303,2.10646 -0.45854,2.95506 1.19325,1.93067 5.01483,1.28833 5.76652,-0.96925 z M 378.1023,783.23071 c 0,-1.44174 -0.48482,-2.92094 -1.07738,-3.28715 -1.92427,-1.18929 -4.74113,1.52453 -3.88852,3.74636 1.17102,3.05158 4.9659,2.70063 4.9659,-0.45921 z m 48.46908,-0.57581 c 1.15427,-1.39082 1.10056,-2.20499 -0.21743,-3.29898 -2.33446,-1.93742 -5.66019,0.21968 -4.59964,2.98351 1.01665,2.64935 2.78417,2.76513 4.81721,0.31556 z m 87.67368,-19.4237 c -0.25029,-1.29985 -1.35009,-2.36336 -2.4439,-2.36336 -1.09381,0 -2.19356,1.06351 -2.44389,2.36336 -0.31917,1.65819 0.40965,2.36337 2.44389,2.36337 2.03407,0 2.76325,-0.70518 2.4439,-2.36337 z m -43.99034,-18.88741 c 9.48064,-9.45962 17.23756,-17.82458 17.23756,-18.58878 0,-0.7642 -7.74846,-9.07572 -17.21879,-18.47007 -13.90207,-13.79048 -17.94279,-17.07096 -20.9774,-17.03049 -7.655,0.10219 -11.84351,-8.49051 -6.83602,-14.02375 3.39582,-3.75235 10.69087,-3.25834 13.42139,0.90893 1.21756,1.85823 1.90518,4.55845 1.52813,6.00051 -0.4074,1.55707 0.35158,3.56067 1.86881,4.93362 2.46524,2.23097 2.5545,2.12298 2.5545,-3.0902 0,-3.68684 -0.85756,-6.17805 -2.70098,-7.84632 -2.71161,-2.45398 -3.54356,-8.0633 -1.63995,-11.05707 0.56081,-0.88201 2.76059,-2.26555 4.88833,-3.07449 8.40629,-3.19608 14.37232,7.96251 7.55556,14.13156 -2.13999,1.9367 -2.70098,4.15948 -2.70098,10.7023 l 0,8.25796 12.82347,12.77017 12.82348,12.77013 8.78442,-8.70631 8.78442,-8.70636 0,-11.10088 c 0,-6.10549 -0.60772,-11.47645 -1.35049,-11.93553 -0.81566,-0.50409 -1.3505,-10.03786 -1.3505,-24.07399 l 0,-23.23933 -14.85421,-14.80817 c -11.94687,-11.90982 -15.6592,-14.84867 -18.96692,-15.01501 -8.35964,-0.42045 -12.21629,-8.49919 -6.69367,-14.02181 5.29722,-5.29722 13.19531,-1.9313 14.0391,5.983 0.20977,1.96654 1.08683,4.28115 1.94926,5.14358 1.19041,1.19041 1.56805,-1.33352 1.56805,-10.4797 l 0,-12.04775 -7.72306,-7.8045 -7.72307,-7.8045 -8.7562,0 c -8.01927,0 -9.13095,0.36328 -13.20958,4.3164 -4.31496,4.18225 -4.45339,4.65605 -4.45339,15.24383 l 0,10.92738 6.75247,6.65096 6.75247,6.65096 0,12.6597 0,12.65971 8.31701,8.66134 c 7.62863,7.94442 8.78501,8.6613 13.9709,8.6613 3.93872,0 6.39536,-0.81934 8.09819,-2.70098 1.34442,-1.48555 3.86948,-2.70099 5.6113,-2.70099 7.57533,0 11.61636,11.21724 5.56741,15.4541 -4.23159,2.96389 -6.96854,2.62964 -11.80736,-1.44196 -5.88356,-4.95069 -6.90323,-2.81187 -1.37746,2.88924 3.19666,3.29818 5.76395,4.70652 8.57955,4.70652 7.40692,0 11.19177,6.80626 7.55925,13.5937 -2.65061,4.95267 -14.40035,2.42198 -14.96792,-3.22385 -0.0882,-0.87539 -0.0468,-2.4159 0.0923,-3.42336 0.13865,-1.00747 -7.68971,-9.90993 -17.39643,-19.78329 l -17.64852,-17.95162 0,-12.67929 0,-12.67929 -6.8637,-6.70173 -6.8637,-6.70169 0.47897,-13.73403 c 0.37184,-10.66336 1.00306,-14.31316 2.82312,-16.32436 2.22786,-2.46172 2.22111,-2.7017 -0.1364,-4.83526 -1.36436,-1.23471 -4.10406,-2.24492 -6.08816,-2.24492 -4.517,0 -9.0095,-4.35098 -9.0095,-8.72559 0,-4.00412 4.80847,-8.83083 8.79743,-8.83083 4.29065,0 9.24151,5.87546 8.44815,10.02579 -1.07612,5.62927 2.20756,7.11612 13.81577,6.25567 l 10.1287,-0.75078 0.38759,-14.10447 0.38759,-14.10446 -12.51556,-12.56779 -12.51552,-12.56778 -14.14993,0 -14.14989,0 -5.12129,5.00079 -5.1213,5.00083 0,24.71003 c 0,24.34773 0.0405,24.71007 2.88974,24.71007 1.58935,0 3.56445,-0.87832 4.38911,-1.95183 2.71066,-3.52866 8.05218,-3.85183 12.02412,-0.72746 4.41755,3.47477 4.66519,7.50757 0.71904,11.7081 -3.70404,3.94272 -8.3537,3.98999 -12.21944,0.12425 -1.6508,-1.6508 -4.04608,-3.16088 -5.32284,-3.35571 -2.64381,-0.40335 -10.58269,5.76422 -10.58269,8.22172 0,0.89344 2.73475,4.30843 6.07722,7.58882 l 6.07722,5.96437 0.15531,20.31381 c 0.095,12.41373 0.53299,18.37184 1.1264,15.32027 1.40312,-7.21524 3.694,-9.39678 9.36423,-8.91727 3.60447,0.30476 5.31496,1.33082 6.86803,4.11977 1.85715,3.33487 1.85715,4.09285 3.1e-4,7.42772 -1.5261,2.74091 -3.29516,3.82869 -6.75247,4.15213 -7.36244,0.6888 -10.76181,4.79732 -10.76181,13.00674 0,6.63624 0.30566,7.19921 8.08104,14.89365 l 8.08104,7.99672 4.0734,-3.90252 c 2.89046,-2.76927 4.07341,-5.17387 4.07341,-8.28019 0,-5.63484 3.06395,-8.622 8.84352,-8.622 3.391,0 5.16888,0.86954 6.768,3.31011 3.65164,5.57308 -0.48397,12.89581 -7.28308,12.89581 -2.64584,0 -6.65644,2.78197 -14.75895,10.23764 l -11.12591,10.23765 0,13.67667 0,13.67667 5.00083,5.1213 c 2.75042,2.81672 5.69557,5.1213 6.54472,5.1213 2.94633,0 12.76333,-12.19014 12.76333,-15.84868 0,-7.3361 8.3348,-11.11334 13.73623,-6.22514 2.95817,2.67708 3.28332,10.26388 0.53759,12.54266 -1.0627,0.88192 -3.83576,1.65764 -6.16244,1.72382 -3.00187,0.0855 -6.16649,1.86102 -10.89758,6.11467 l -6.66725,5.99444 0,14.30564 c 0,12.82919 0.30296,14.62819 2.93638,17.43123 2.4908,2.65133 4.28124,3.12567 11.79804,3.12567 l 8.86167,0 17.23757,-17.1993 z m -90.95061,14.00223 c 1.1675,-1.40672 1.03241,-2.26158 -0.56712,-3.58907 -2.58124,-2.1422 -5.46158,0.11659 -4.23263,3.31911 1.00031,2.60681 2.77738,2.70675 4.79975,0.27009 z m -35.21826,-6.6095 c 0.31196,-1.62059 -0.41505,-2.34787 -2.34784,-2.34787 -1.93269,0 -2.80002,0.86733 -2.80002,2.80002 0,3.46082 4.46991,3.06819 5.14786,-0.45215 z m 21.52479,-7.4115 c 0.73841,-2.21769 -3.49305,-3.80074 -5.30798,-1.98582 -0.77667,0.77667 -0.98302,2.10646 -0.45853,2.95506 1.19325,1.93067 5.01483,1.28833 5.76651,-0.96924 z m 40.39849,-2.45489 c 1.22895,-3.2026 -1.65139,-5.4613 -4.23258,-3.3191 -1.59957,1.32749 -1.73467,2.18235 -0.56717,3.58907 2.02237,2.43678 3.79944,2.33685 4.79975,-0.2701 z M 384.85477,730.3827 c 0,-3.46082 -4.46991,-3.06819 -5.14786,0.45215 -0.31196,1.62059 0.41506,2.34787 2.34784,2.34787 1.93269,0 2.80002,-0.86733 2.80002,-2.80002 z m -26.71861,-7.61552 6.46121,-6.36411 0,-25.79511 0,-25.7951 -3.8914,-3.72817 -3.89141,-3.72822 -5.04895,4.43309 c -4.82815,4.23915 -5.61796,4.4564 -18.05416,4.96581 -11.74417,0.48113 -13.36521,0.87107 -16.71898,4.02186 -3.1195,2.9307 -3.70697,4.58335 -3.67091,10.32655 0.0225,3.76058 0.906,7.97714 1.96087,9.37017 2.67596,3.53379 6.09914,1.84104 6.09914,-3.01601 0,-4.47662 3.36066,-9.0159 7.57713,-10.23463 3.3535,-0.96925 7.97052,2.50773 9.27055,6.98151 1.15134,3.96195 -4.52375,9.81359 -9.51747,9.81359 -2.37709,0 -5.3742,1.7777 -8.83956,5.24311 -4.88933,4.88928 -5.24311,5.77345 -5.24311,13.10303 0,7.01118 0.4661,8.34078 4.3164,12.31331 l 4.3164,4.45338 14.20652,0 14.20647,0 6.46126,-6.36406 z m 91.5423,-16.69336 c 0,-1.93269 -0.72728,-2.65994 -2.34788,-2.34784 -3.52033,0.67795 -3.91296,5.14786 -0.45214,5.14786 1.93269,0 2.80002,-0.86733 2.80002,-2.80002 z m -116.9179,-19.70897 c 0.4752,-1.23836 0.262,-2.85346 -0.47352,-3.58907 -1.81682,-1.81682 -5.57606,1.37917 -4.60348,3.91364 1.00729,2.62495 4.01907,2.43242 5.077,-0.32457 z m 119.28167,-4.16254 c 0.7384,-2.21769 -3.49305,-3.80074 -5.30798,-1.98581 -0.77667,0.77667 -0.98302,2.10646 -0.45854,2.95506 1.19325,1.93071 5.01484,1.28833 5.76652,-0.96925 z m 44.90351,-8.4413 c 0,-1.80066 -0.90033,-2.70099 -2.70099,-2.70099 -1.80066,0 -2.70099,0.90033 -2.70099,2.70099 0,1.80066 0.90033,2.70098 2.70099,2.70098 1.80066,0 2.70099,-0.90032 2.70099,-2.70098 z m -29.26038,-1.92702 c 0.98001,-2.55387 -2.05446,-4.9876 -4.40644,-3.53402 -2.23615,1.38205 -0.934,5.46104 1.74335,5.46104 1.05798,0 2.25641,-0.86715 2.66309,-1.92702 z m -76.33224,-7.87955 c 0.31197,-1.62059 -0.41505,-2.34787 -2.34783,-2.34787 -1.93269,0 -2.80003,0.86733 -2.80003,2.80002 0,3.46082 4.46991,3.06819 5.14786,-0.45215 z m 52.08088,-7.1257 c 0.46183,-1.20356 -0.0837,-2.41472 -1.29678,-2.88033 -2.52187,-0.96772 -5.28142,1.43288 -4.01066,3.489 1.3252,2.14423 4.38573,1.79323 5.30744,-0.60867 z m 51.7077,-2.74069 c 1.22895,-3.2026 -1.65138,-5.4613 -4.23263,-3.3191 -1.59952,1.32749 -1.73461,2.18235 -0.56711,3.58907 2.02236,2.43678 3.79943,2.33685 4.79974,-0.2701 z M 374.94778,639.23262 c 1.22894,-3.2026 -1.65139,-5.4613 -4.23263,-3.3191 -1.59953,1.32749 -1.73462,2.18235 -0.56712,3.58907 2.02237,2.43678 3.79944,2.33685 4.79975,-0.2701 z m -43.66227,-4.0594 c -0.4065,-1.05987 -1.60511,-1.92702 -2.66308,-1.92702 -2.67736,0 -3.9795,4.07899 -1.74336,5.46104 2.35198,1.45358 5.38649,-0.98015 4.40644,-3.53402 z m 89.69537,-9.69164 c 0.7384,-2.21769 -3.49305,-3.80074 -5.30798,-1.98581 -0.77667,0.77667 -0.98303,2.10646 -0.45854,2.95506 1.19325,1.93071 5.01483,1.28833 5.76652,-0.96925 z m -46.93006,-21.45785 c 0,-2.54316 -3.8408,-3.94025 -5.70561,-2.07544 -1.06311,1.06311 -1.01044,2.02948 0.18952,3.47527 1.92923,2.32456 5.51609,1.41433 5.51609,-1.39983 z m -20.2574,-3.18937 c 0,-1.80066 -0.90033,-2.70099 -2.70099,-2.70099 -2.60267,0 -3.6597,2.6426 -1.80066,4.50164 1.85905,1.85905 4.50165,0.80202 4.50165,-1.80065 z m 37.36028,-2.11654 c 1.22895,-3.20261 -1.65139,-5.46131 -4.23258,-3.31911 -1.59957,1.32749 -1.73467,2.18235 -0.56717,3.58907 2.02237,2.43679 3.79944,2.33685 4.79975,-0.2701 z m 84.93947,-4.50633 c -1.35864,-2.19833 -4.7721,-1.79147 -5.72123,0.68196 -1.15134,3.0003 2.44529,4.98746 4.78808,2.64543 1.01634,-1.01602 1.4363,-2.51336 0.93315,-3.32739 z M 353.79342,577.87597 c 0,-1.80066 -0.90033,-2.70099 -2.70099,-2.70099 -1.80066,0 -2.70098,0.90033 -2.70098,2.70099 0,1.80065 0.90032,2.70098 2.70098,2.70098 1.80066,0 2.70099,-0.90033 2.70099,-2.70098 z m 66.92951,-9.58306 c 0.50311,-0.81403 0.0833,-2.31137 -0.93314,-3.32739 -2.34279,-2.34203 -5.93943,-0.35473 -4.78809,2.64543 0.94913,2.47343 4.36259,2.88029 5.72123,0.68196 z m 16.51424,-17.61003 c 0.49325,-2.56108 -3.63035,-4.54275 -5.52027,-2.65282 -1.95151,1.95155 0.0522,5.80302 2.74893,5.28371 1.29354,-0.24894 2.54068,-1.433 2.77134,-2.63089 z M 379.81658,543.776 c 0.86458,-2.4786 -0.3885,-5.06435 -2.4543,-5.06435 -2.37259,0 -3.73902,2.33978 -2.79827,4.79142 0.92221,2.4032 4.4456,2.58628 5.25257,0.2728 z m -30.41186,-12.82896 c 0.73841,-2.21769 -3.49305,-3.80074 -5.30798,-1.98581 -0.77667,0.77666 -0.98302,2.10645 -0.45854,2.95506 1.19325,1.93071 5.01484,1.28832 5.76652,-0.96925 z m -21.27068,-1.68884 c 0,-1.80066 -0.90033,-2.70099 -2.70098,-2.70099 -1.80066,0 -2.70099,0.90033 -2.70099,2.70099 0,1.80066 0.90033,2.70099 2.70099,2.70099 1.80065,0 2.70098,-0.90033 2.70098,-2.70099 z m 52.07409,-8.23256 c 1.42715,-2.30921 -3.07575,-6.19314 -4.97648,-4.29241 -0.84671,0.84671 -1.17398,2.49188 -0.72729,3.65596 0.93468,2.43571 4.35584,2.81745 5.70377,0.63645 z m -17.86127,-22.25227 c -0.4065,-1.05986 -1.60511,-1.92702 -2.66308,-1.92702 -2.67736,0 -3.9795,4.07899 -1.74335,5.46104 2.35197,1.45358 5.38648,-0.98014 4.40643,-3.53402 z m 20.9196,-6.43213 c 0.55662,-2.86993 -3.69649,-4.62211 -5.22322,-2.15183 -1.31484,2.12748 1.05613,5.64903 3.30038,4.90189 0.81696,-0.2719 1.68227,-1.50949 1.92284,-2.75006 z m 22.85899,-1.90901 c 0.7384,-2.21769 -3.49305,-3.80074 -5.30798,-1.98581 -0.77667,0.77667 -0.98302,2.10645 -0.45854,2.95506 1.19325,1.93071 5.01484,1.28832 5.76652,-0.96925 z"
       id="path6203"
       inkscape:connector-curvature="0" />
  </g>
</svg>
